<svg version="1.1" id="Layer_1" xmlns="http://www.w3.org/2000/svg" xmlns:xlink="http://www.w3.org/1999/xlink" x="0px"
	y="0px" width="100%" viewBox="0 0 335 165" enable-background="new 0 0 335 165" xml:space="preserve">
	<path fill="#385266" opacity="1.000000" stroke="none" d="
M133.000000,166.000000 
	C89.019417,166.000000 45.038830,166.000000 1.058245,166.000000 
	C1.038830,165.852829 1.002404,165.705643 1.002398,165.558472 
	C0.999956,110.749329 1.000000,55.940193 1.000000,1.065526 
	C112.573677,1.065526 224.147400,1.065526 335.860565,1.065526 
	C335.860565,55.882458 335.860565,110.765388 335.860565,166.000000 
	C271.312866,166.000000 206.625092,166.000000 141.505890,165.615814 
	C142.269714,161.143753 143.464951,157.055862 144.809296,152.458023 
	C151.820221,155.009033 158.458862,153.270416 165.341064,150.174301 
	C172.445023,146.978394 174.947525,140.086182 180.005890,135.529510 
	C180.005890,138.852554 180.011856,142.632263 180.004196,146.411957 
	C179.996689,150.118988 180.964020,152.998138 185.396179,153.261993 
	C187.196869,153.369202 189.026779,154.129288 190.765762,153.926498 
	C197.464279,153.145325 204.140228,151.275070 210.808090,151.346664 
	C219.701660,151.442169 228.413834,152.637482 231.284424,141.174316 
	C231.399933,140.713043 231.703796,140.233292 232.054565,139.906891 
	C235.067093,137.103958 235.318268,133.771362 234.163025,130.052353 
	C232.710922,125.377571 230.271912,120.678261 230.216278,115.966431 
	C230.080765,104.484795 225.890320,95.154915 218.398987,87.897255 
	C221.935303,86.423340 225.581924,84.903458 229.590179,83.232841 
	C231.010468,83.868073 233.297501,84.890938 236.004807,86.101784 
	C236.004807,93.643684 236.004745,101.450615 236.004807,109.257538 
	C236.004883,120.422020 235.960693,131.586731 236.019714,142.750900 
	C236.063980,151.122406 237.966766,152.994339 246.091522,152.994064 
	C251.757080,152.993866 257.422638,152.993988 263.088196,152.993744 
	C272.303284,152.993347 272.443512,152.867691 272.671661,142.771606 
	C275.401459,145.915710 277.236816,148.358459 279.427338,150.424683 
	C280.666626,151.593658 282.410309,152.616364 284.062683,152.892731 
	C291.801422,154.187164 299.466278,153.697281 307.061829,151.547607 
	C309.129791,150.962341 311.440796,151.235733 313.705231,151.111481 
	C313.935059,153.364532 314.084991,154.834351 314.230743,156.262909 
	C324.825378,157.560745 325.793793,156.537842 326.077515,146.219788 
	C326.226471,140.801727 326.951630,135.358063 327.902527,130.012390 
	C329.709961,119.851402 329.927246,109.753410 325.779358,100.201172 
	C323.606262,95.196648 320.012970,90.808815 317.105804,86.213226 
	C326.650116,85.542145 327.323517,84.877617 326.993835,76.366379 
	C326.653564,67.580315 326.538940,58.776657 325.834991,50.020130 
	C325.670593,47.974964 323.979889,45.156143 322.211670,44.295647 
	C315.523987,41.041145 308.275696,39.956635 300.920074,41.597229 
	C292.354218,43.507763 285.381226,47.818542 281.328094,56.197933 
	C280.987274,53.186588 281.014282,50.407261 280.980438,47.628677 
	C280.938019,44.143070 279.195496,41.796677 275.735443,41.516571 
	C272.562378,41.259701 269.334503,41.766296 266.129211,41.804493 
	C255.893921,41.926476 245.657990,42.030140 235.422134,42.048359 
	C231.766357,42.054867 227.827927,41.191559 226.921082,45.248894 
	C221.392136,43.173931 215.858032,41.056568 210.282364,39.054996 
	C209.573593,38.800560 208.581161,38.973881 207.833313,39.252628 
	C204.339828,40.554741 200.591263,41.494686 197.488678,43.446129 
	C193.078476,46.220028 188.679916,49.329094 185.179932,53.127514 
	C182.642380,55.881443 181.570068,59.985500 179.676865,63.827488 
	C173.834625,44.532082 160.843140,40.217949 139.117203,43.020275 
	C132.322144,43.896736 122.859482,54.665356 121.366905,64.218811 
	C118.396317,48.989277 108.361427,44.245152 95.242714,42.439098 
	C81.709419,40.575970 72.493507,46.753567 64.380539,57.403568 
	C64.180099,55.415760 64.100471,54.450047 63.983139,53.488934 
	C62.365456,40.238167 53.031395,30.293999 41.605400,30.051762 
	C31.536207,29.838293 21.453560,29.839563 11.390161,30.161690 
	C9.590473,30.219297 6.443393,32.173752 6.325167,33.471611 
	C5.668243,40.683186 5.589688,47.963192 5.624029,55.218304 
	C5.675591,66.111465 6.172735,77.004349 6.117887,87.895523 
	C6.081203,95.179749 5.170863,102.458679 5.107801,109.743935 
	C5.056292,115.694595 5.670908,121.651642 6.007517,127.604874 
	C6.334757,133.392426 6.351688,139.228119 7.200554,144.939285 
	C7.505311,146.989670 9.466907,149.762268 11.315484,150.433182 
	C16.863005,152.446533 22.683403,153.794113 28.476835,155.028168 
	C48.305859,159.252014 64.169205,145.415970 64.247627,127.920494 
	C65.910690,131.120163 67.419624,134.375565 69.244667,137.442886 
	C71.388756,141.046463 72.104340,144.356445 70.450043,148.626740 
	C68.481537,153.708115 71.386505,158.250244 76.777267,160.345016 
	C81.421730,162.149780 85.010643,160.450760 87.783760,155.547363 
	C88.421204,154.420258 90.376770,152.930206 91.206856,153.200531 
	C96.567436,154.946243 101.240700,153.759155 105.876122,150.976028 
	C107.494492,150.004349 109.527199,149.722763 112.034859,148.911026 
	C112.034859,153.875031 112.034859,158.132874 112.034859,162.581604 
	C113.340736,162.581604 114.159325,162.459854 114.930038,162.600510 
	C122.376297,163.959412 123.564468,163.257996 124.206604,155.785629 
	C124.800713,148.872101 124.934395,141.918991 125.270851,134.983322 
	C125.497330,134.964951 125.723808,134.946579 125.950287,134.928207 
	C128.300186,145.285477 130.650101,155.642731 133.000000,166.000000 
z" />
	<path fill="#FFFFFF" opacity="1.000000" stroke="none" d="
M133.444168,166.000000 
	C130.650101,155.642731 128.300186,145.285477 125.950287,134.928207 
	C125.723808,134.946579 125.497330,134.964951 125.270851,134.983322 
	C124.934395,141.918991 124.800713,148.872101 124.206604,155.785629 
	C123.564468,163.257996 122.376297,163.959412 114.930038,162.600510 
	C114.159325,162.459854 113.340736,162.581604 112.034859,162.581604 
	C112.034859,158.132874 112.034859,153.875031 112.034859,148.911026 
	C109.527199,149.722763 107.494492,150.004349 105.876122,150.976028 
	C101.240700,153.759155 96.567436,154.946243 91.206856,153.200531 
	C90.376770,152.930206 88.421204,154.420258 87.783760,155.547363 
	C85.010643,160.450760 81.421730,162.149780 76.777267,160.345016 
	C71.386505,158.250244 68.481537,153.708115 70.450043,148.626740 
	C72.104340,144.356445 71.388756,141.046463 69.244667,137.442886 
	C67.419624,134.375565 65.910690,131.120163 64.247627,127.920494 
	C64.169205,145.415970 48.305859,159.252014 28.476835,155.028168 
	C22.683403,153.794113 16.863005,152.446533 11.315484,150.433182 
	C9.466907,149.762268 7.505311,146.989670 7.200554,144.939285 
	C6.351688,139.228119 6.334757,133.392426 6.007517,127.604874 
	C5.670908,121.651642 5.056292,115.694595 5.107801,109.743935 
	C5.170863,102.458679 6.081203,95.179749 6.117887,87.895523 
	C6.172735,77.004349 5.675591,66.111465 5.624029,55.218304 
	C5.589688,47.963192 5.668243,40.683186 6.325167,33.471611 
	C6.443393,32.173752 9.590473,30.219297 11.390161,30.161690 
	C21.453560,29.839563 31.536207,29.838293 41.605400,30.051762 
	C53.031395,30.293999 62.365456,40.238167 63.983139,53.488934 
	C64.100471,54.450047 64.180099,55.415760 64.380539,57.403568 
	C72.493507,46.753567 81.709419,40.575970 95.242714,42.439098 
	C108.361427,44.245152 118.396317,48.989277 121.366905,64.218811 
	C122.859482,54.665356 132.322144,43.896736 139.117203,43.020275 
	C160.843140,40.217949 173.834625,44.532082 179.676865,63.827488 
	C181.570068,59.985500 182.642380,55.881443 185.179932,53.127514 
	C188.679916,49.329094 193.078476,46.220028 197.488678,43.446129 
	C200.591263,41.494686 204.339828,40.554741 207.833313,39.252628 
	C208.581161,38.973881 209.573593,38.800560 210.282364,39.054996 
	C215.858032,41.056568 221.392136,43.173931 226.921082,45.248894 
	C227.827927,41.191559 231.766357,42.054867 235.422134,42.048359 
	C245.657990,42.030140 255.893921,41.926476 266.129211,41.804493 
	C269.334503,41.766296 272.562378,41.259701 275.735443,41.516571 
	C279.195496,41.796677 280.938019,44.143070 280.980438,47.628677 
	C281.014282,50.407261 280.987274,53.186588 281.328094,56.197933 
	C285.381226,47.818542 292.354218,43.507763 300.920074,41.597229 
	C308.275696,39.956635 315.523987,41.041145 322.211670,44.295647 
	C323.979889,45.156143 325.670593,47.974964 325.834991,50.020130 
	C326.538940,58.776657 326.653564,67.580315 326.993835,76.366379 
	C327.323517,84.877617 326.650116,85.542145 317.105804,86.213226 
	C320.012970,90.808815 323.606262,95.196648 325.779358,100.201172 
	C329.927246,109.753410 329.709961,119.851402 327.902527,130.012390 
	C326.951630,135.358063 326.226471,140.801727 326.077515,146.219788 
	C325.793793,156.537842 324.825378,157.560745 314.230743,156.262909 
	C314.084991,154.834351 313.935059,153.364532 313.705231,151.111481 
	C311.440796,151.235733 309.129791,150.962341 307.061829,151.547607 
	C299.466278,153.697281 291.801422,154.187164 284.062683,152.892731 
	C282.410309,152.616364 280.666626,151.593658 279.427338,150.424683 
	C277.236816,148.358459 275.401459,145.915710 272.671661,142.771606 
	C272.443512,152.867691 272.303284,152.993347 263.088196,152.993744 
	C257.422638,152.993988 251.757080,152.993866 246.091522,152.994064 
	C237.966766,152.994339 236.063980,151.122406 236.019714,142.750900 
	C235.960693,131.586731 236.004883,120.422020 236.004807,109.257538 
	C236.004745,101.450615 236.004807,93.643684 236.004807,86.101784 
	C233.297501,84.890938 231.010468,83.868073 229.590179,83.232841 
	C225.581924,84.903458 221.935303,86.423340 218.398987,87.897255 
	C225.890320,95.154915 230.080765,104.484795 230.216278,115.966431 
	C230.271912,120.678261 232.710922,125.377571 234.163025,130.052353 
	C235.318268,133.771362 235.067093,137.103958 232.054565,139.906891 
	C231.703796,140.233292 231.399933,140.713043 231.284424,141.174316 
	C228.413834,152.637482 219.701660,151.442169 210.808090,151.346664 
	C204.140228,151.275070 197.464279,153.145325 190.765762,153.926498 
	C189.026779,154.129288 187.196869,153.369202 185.396179,153.261993 
	C180.964020,152.998138 179.996689,150.118988 180.004196,146.411957 
	C180.011856,142.632263 180.005890,138.852554 180.005890,135.529510 
	C174.947525,140.086182 172.445023,146.978394 165.341064,150.174301 
	C158.458862,153.270416 151.820221,155.009033 144.809296,152.458023 
	C143.464951,157.055862 142.269714,161.143753 141.037231,165.615814 
	C138.629440,166.000000 136.258896,166.000000 133.444168,166.000000 
M240.902588,141.834671 
	C241.403152,144.622375 239.547546,148.860611 244.614487,149.007050 
	C252.235443,149.227295 259.867493,149.064392 268.612854,149.064392 
	C268.612854,125.413887 268.612854,102.228798 268.612854,79.183357 
	C271.766235,78.929970 273.695496,78.774948 275.859894,78.601028 
	C275.859894,67.602585 275.859894,57.025459 275.859894,47.157692 
	C264.459564,47.157692 253.300156,47.194992 242.141296,47.133396 
	C239.068100,47.116428 235.996552,46.804291 232.480423,46.256588 
	C232.158249,46.953957 231.836075,47.651325 231.466797,49.168144 
	C231.469894,56.630966 231.679901,64.101059 231.418060,71.554573 
	C231.154846,79.047630 231.647598,79.730675 238.963867,79.022179 
	C239.233551,78.996063 239.531540,79.262337 240.862930,79.870132 
	C240.862930,91.321686 240.862930,103.245514 240.789352,115.512749 
	C240.789352,115.512749 240.854492,115.857857 240.790680,116.742821 
	C240.802673,118.220833 240.814682,119.698837 240.765839,121.502220 
	C240.765839,121.502220 240.829391,121.827072 240.773209,122.783806 
	C240.835922,128.533752 240.898636,134.283707 240.876801,140.499969 
	C240.876801,140.499969 240.961212,140.966309 240.902588,141.834671 
M126.062447,69.854179 
	C126.027435,71.848274 125.735901,73.881317 126.031105,75.825272 
	C126.314377,77.690613 127.205986,79.463577 127.834587,81.987175 
	C127.039093,84.308075 125.633324,86.611565 125.566521,88.953255 
	C125.390625,95.118439 126.055031,101.307701 125.876556,107.472664 
	C125.765121,111.321915 122.954262,116.259918 124.505608,118.732178 
	C127.210091,123.042068 124.529755,130.574265 132.009598,132.030548 
	C132.298309,132.086761 132.475449,133.228821 132.532974,133.880066 
	C133.079483,140.066452 133.421555,146.277603 134.211212,152.431717 
	C134.446686,154.266800 135.906387,155.944794 136.805161,157.694763 
	C137.789124,156.014236 139.508423,154.378922 139.615051,152.644455 
	C139.900925,147.994705 141.462967,145.695114 146.432373,147.068130 
	C147.023804,147.231537 147.737411,146.884430 148.389069,146.909912 
	C151.284683,147.023087 154.178345,147.185791 157.072723,147.330582 
	C157.112488,147.884949 157.152267,148.439301 157.192032,148.993668 
	C159.106857,147.727432 160.866638,146.026901 162.965958,145.277527 
	C168.933670,143.147293 173.651718,138.977798 174.836792,133.301956 
	C176.740387,124.184715 177.534698,114.693382 177.541946,105.359154 
	C177.550797,93.983879 177.247864,82.625359 175.644196,71.201729 
	C173.670547,57.142574 171.409073,52.258118 157.959518,47.869217 
	C151.034149,45.609303 143.319244,45.517246 137.077393,48.878044 
	C129.727554,52.835423 124.458641,59.352600 126.062447,69.854179 
M68.084656,74.679863 
	C67.898682,76.414200 67.442337,78.175285 67.610504,79.874580 
	C67.750320,81.287270 68.624359,82.627296 69.070618,84.691193 
	C65.978706,88.828583 67.033661,94.904228 62.519218,98.538635 
	C61.890762,99.044586 62.995285,101.875793 63.493420,103.573120 
	C64.585609,107.294624 65.815300,110.975578 66.967300,114.679779 
	C69.158432,121.725266 70.386139,129.288849 73.831688,135.653168 
	C76.362671,140.328171 78.124840,143.636322 75.249321,148.663559 
	C74.405838,150.138214 75.720352,153.287476 76.818100,155.233612 
	C77.315285,156.115051 80.753784,156.584778 81.041840,156.118744 
	C82.226662,154.201920 82.973770,151.899750 83.370483,149.649155 
	C83.656113,148.028763 83.132683,146.265747 82.867386,143.492142 
	C85.623108,144.913330 87.255974,145.755432 88.888847,146.597534 
	C88.622459,146.939224 88.356071,147.280914 88.089684,147.622589 
	C100.093781,152.060638 107.905861,145.925064 115.872749,137.270523 
	C116.451927,144.433777 117.031105,151.597031 117.610275,158.760284 
	C118.151520,158.739044 118.692764,158.717804 119.234009,158.696564 
	C119.546158,154.160690 119.994232,149.629303 120.143417,145.088089 
	C120.502220,134.166016 120.668472,123.237656 121.016914,112.315170 
	C121.209366,106.282578 122.282211,100.198517 121.764618,94.241364 
	C120.978432,85.192894 119.482887,76.167786 117.670631,67.258461 
	C116.128845,59.678799 113.628723,52.211761 105.187981,49.412033 
	C101.484131,48.183498 97.541656,47.498272 93.651726,47.038628 
	C79.856613,45.408543 66.997902,54.034260 68.240463,68.853020 
	C68.379227,70.507996 68.307060,72.180656 68.084656,74.679863 
M34.457272,151.208786 
	C42.749676,150.892990 50.132179,148.920731 55.217037,141.467865 
	C62.269562,131.131012 62.297604,109.723442 54.898117,99.578110 
	C52.900013,96.838531 50.711468,94.237839 48.820854,91.840363 
	C50.524330,90.001060 52.633499,88.422882 53.819118,86.323204 
	C59.108063,76.956703 61.530922,66.972015 59.997082,56.110077 
	C58.036156,42.223679 50.641174,34.311165 38.621544,34.070332 
	C29.343937,33.884441 20.059624,34.033257 10.460537,34.033257 
	C9.968395,38.862648 9.031792,42.823910 9.260773,46.716610 
	C10.225030,63.109009 11.612236,79.381790 10.395728,95.932434 
	C9.279270,111.121864 10.840921,126.503265 11.090828,141.802231 
	C11.139250,144.766541 12.242435,146.581711 15.089474,147.214722 
	C21.227324,148.579483 27.380510,149.875275 34.457272,151.208786 
M285.122253,110.684593 
	C283.626831,109.694221 282.131409,108.703857 280.707428,107.760788 
	C273.717926,116.916222 276.251404,127.442505 276.063446,137.481934 
	C276.037323,138.876755 278.390350,141.632248 279.302887,141.495453 
	C282.824341,140.967621 282.994537,142.913574 283.579010,145.362747 
	C283.884430,146.642532 285.182465,148.480927 286.262421,148.657288 
	C297.049500,150.418854 307.017059,147.010056 317.613037,143.644531 
	C318.273438,145.078308 319.173157,147.031769 320.072906,148.985229 
	C321.488800,147.566589 321.844727,146.128769 321.914948,144.677139 
	C322.131653,140.197037 321.336945,135.441452 322.581360,131.285843 
	C325.008942,123.179123 324.791290,115.279182 323.207825,107.209099 
	C321.733124,99.693314 317.859375,93.719612 311.706726,89.178505 
	C308.970337,87.158867 308.389404,82.147423 310.603638,78.822487 
	C311.379456,79.407143 312.076324,80.331848 312.919312,80.493164 
	C315.519501,80.990738 318.221100,81.572769 320.778961,81.262268 
	C321.451416,81.180649 322.174255,77.977318 322.140808,76.221497 
	C321.985687,68.072311 321.656219,59.923061 321.171570,51.786797 
	C321.089111,50.402760 320.306915,48.418583 319.235962,47.835251 
	C309.299744,42.422947 293.284821,45.657379 287.765686,55.029217 
	C277.348694,72.718025 278.603302,91.867180 293.580688,106.011345 
	C296.428162,108.700394 298.468719,111.574203 297.322144,114.551056 
	C293.507996,113.638000 290.447632,112.936829 287.409180,112.151054 
	C286.813782,111.997070 286.303101,111.515556 285.122253,110.684593 
M220.155838,146.239151 
	C223.498062,146.861755 225.109543,145.572388 225.165710,142.075058 
	C225.184555,140.902237 225.689987,139.445267 226.492157,138.627304 
	C230.052856,134.996445 230.635345,129.516602 228.156662,124.937698 
	C226.991089,122.784492 226.105667,120.238098 225.957413,117.816963 
	C225.265625,106.518982 223.035431,96.125221 212.308578,89.703651 
	C210.392014,88.556313 210.234589,81.627525 211.112671,80.370949 
	C215.477905,81.168213 219.357285,81.876732 224.263336,82.772766 
	C222.660828,69.919212 223.669037,58.366974 221.980270,45.805450 
	C219.548325,47.696293 218.493027,48.516796 217.392883,49.372166 
	C214.821136,47.050808 212.531448,44.984055 209.887802,42.597794 
	C208.821167,44.258728 208.059341,45.444996 207.348557,46.551819 
	C199.952499,45.922417 193.755768,48.608009 189.728806,54.593185 
	C179.716782,69.473816 178.904678,92.248627 194.922577,106.469391 
	C197.813721,109.036156 199.920486,111.946320 197.845947,117.112030 
	C193.913239,110.415787 188.825851,113.278297 184.735626,113.382698 
	C184.735626,125.414391 184.735626,137.088226 184.735626,149.722839 
	C191.560486,149.350647 197.503174,149.828674 203.009857,148.499832 
	C208.476379,147.180710 213.767136,145.931915 220.155838,146.239151 
M276.927002,84.647011 
	C275.281464,82.082275 273.305786,82.077690 273.159393,85.148224 
	C272.777985,93.148750 273.031036,101.179520 273.031036,109.198227 
	C275.999268,104.924271 278.542938,101.206230 283.721802,103.449104 
	C281.486053,97.468727 279.240997,91.463364 276.927002,84.647011 
M63.198448,76.162888 
	C61.239559,80.533089 59.626373,85.107658 57.204666,89.204269 
	C55.485992,92.111595 55.519306,93.824600 58.872173,95.718727 
	C61.126629,89.155830 65.216103,83.365601 63.198448,76.162888 
M182.135284,99.047340 
	C182.135284,102.252991 182.135284,105.458649 182.135284,109.347549 
	C184.733704,108.684143 186.460648,108.243233 188.354736,107.759644 
	C186.312347,104.538437 184.556137,101.768578 182.135284,99.047340 
z" />
	<path fill="#5A6D73" opacity="1.000000" stroke="none" d="
M33.992348,151.204041 
	C27.380510,149.875275 21.227324,148.579483 15.089474,147.214722 
	C12.242435,146.581711 11.139250,144.766541 11.090828,141.802231 
	C10.840921,126.503265 9.279270,111.121864 10.395728,95.932434 
	C11.612236,79.381790 10.225030,63.109009 9.260773,46.716610 
	C9.031792,42.823910 9.968395,38.862648 10.460537,34.033257 
	C20.059624,34.033257 29.343937,33.884441 38.621544,34.070332 
	C50.641174,34.311165 58.036156,42.223679 59.997082,56.110077 
	C61.530922,66.972015 59.108063,76.956703 53.819118,86.323204 
	C52.633499,88.422882 50.524330,90.001060 48.820854,91.840363 
	C50.711468,94.237839 52.900013,96.838531 54.898117,99.578110 
	C62.297604,109.723442 62.269562,131.131012 55.217037,141.467865 
	C50.132179,148.920731 42.749676,150.892990 33.992348,151.204041 
M31.723152,104.470100 
	C31.723152,114.883698 31.723152,125.297295 31.723152,135.710892 
	C32.454258,135.699280 33.185364,135.687653 33.916470,135.676025 
	C36.347065,124.308243 34.353798,112.967529 32.536396,101.532211 
	C32.322342,102.246925 32.108284,102.961639 31.723152,104.470100 
M35.172916,72.335281 
	C35.147923,68.172646 35.240929,64.004951 35.063057,59.848854 
	C34.901657,56.077824 34.445282,52.319416 34.118958,48.555443 
	C33.406551,48.592392 32.694149,48.629341 31.981745,48.666290 
	C31.981745,58.914856 31.914099,69.164551 32.084759,79.410271 
	C32.102119,80.452728 33.552242,81.471313 35.185760,83.613266 
	C35.185760,79.128700 35.185760,76.202736 35.172916,72.335281 
z" />
	<path fill="#596D73" opacity="1.000000" stroke="none" d="
M68.332718,73.845116 
	C68.307060,72.180656 68.379227,70.507996 68.240463,68.853020 
	C66.997902,54.034260 79.856613,45.408543 93.651726,47.038628 
	C97.541656,47.498272 101.484131,48.183498 105.187981,49.412033 
	C113.628723,52.211761 116.128845,59.678799 117.670631,67.258461 
	C119.482887,76.167786 120.978432,85.192894 121.764618,94.241364 
	C122.282211,100.198517 121.209366,106.282578 121.016914,112.315170 
	C120.668472,123.237656 120.502220,134.166016 120.143417,145.088089 
	C119.994232,149.629303 119.546158,154.160690 119.234009,158.696564 
	C118.692764,158.717804 118.151520,158.739044 117.610275,158.760284 
	C117.031105,151.597031 116.451927,144.433777 115.872749,137.270523 
	C107.905861,145.925064 100.093781,152.060638 88.089684,147.622589 
	C88.356071,147.280914 88.622459,146.939224 88.888847,146.597534 
	C87.255974,145.755432 85.623108,144.913330 82.867386,143.492142 
	C83.132683,146.265747 83.656113,148.028763 83.370483,149.649155 
	C82.973770,151.899750 82.226662,154.201920 81.041840,156.118744 
	C80.753784,156.584778 77.315285,156.115051 76.818100,155.233612 
	C75.720352,153.287476 74.405838,150.138214 75.249321,148.663559 
	C78.124840,143.636322 76.362671,140.328171 73.831688,135.653168 
	C70.386139,129.288849 69.158432,121.725266 66.967300,114.679779 
	C65.815300,110.975578 64.585609,107.294624 63.493420,103.573120 
	C62.995285,101.875793 61.890762,99.044586 62.519218,98.538635 
	C67.033661,94.904228 65.978706,88.828583 69.447029,84.289009 
	C70.214066,81.283623 70.817902,78.683723 70.858231,76.075104 
	C70.869514,75.344963 69.220245,74.589157 68.332718,73.845116 
M95.060745,81.506348 
	C94.919731,76.355881 94.778717,71.205421 94.637711,66.054955 
	C94.166748,66.094765 93.695793,66.134567 93.224838,66.174377 
	C90.082451,72.827103 90.374489,123.880501 94.853546,128.618195 
	C94.933075,113.247566 95.012611,97.876938 95.060745,81.506348 
z" />
	<path fill="#596D73" opacity="1.000000" stroke="none" d="
M126.227837,68.939713 
	C124.458641,59.352600 129.727554,52.835423 137.077393,48.878044 
	C143.319244,45.517246 151.034149,45.609303 157.959518,47.869217 
	C171.409073,52.258118 173.670547,57.142574 175.644196,71.201729 
	C177.247864,82.625359 177.550797,93.983879 177.541946,105.359154 
	C177.534698,114.693382 176.740387,124.184715 174.836792,133.301956 
	C173.651718,138.977798 168.933670,143.147293 162.965958,145.277527 
	C160.866638,146.026901 159.106857,147.727432 157.192032,148.993668 
	C157.152267,148.439301 157.112488,147.884949 157.072723,147.330582 
	C154.178345,147.185791 151.284683,147.023087 148.389069,146.909912 
	C147.737411,146.884430 147.023804,147.231537 146.432373,147.068130 
	C141.462967,145.695114 139.900925,147.994705 139.615051,152.644455 
	C139.508423,154.378922 137.789124,156.014236 136.805161,157.694763 
	C135.906387,155.944794 134.446686,154.266800 134.211212,152.431717 
	C133.421555,146.277603 133.079483,140.066452 132.532974,133.880066 
	C132.475449,133.228821 132.298309,132.086761 132.009598,132.030548 
	C124.529755,130.574265 127.210091,123.042068 124.505608,118.732178 
	C122.954262,116.259918 125.765121,111.321915 125.876556,107.472664 
	C126.055031,101.307701 125.390625,95.118439 125.566521,88.953255 
	C125.633324,86.611565 127.039093,84.308075 127.884735,81.176971 
	C128.265625,78.092278 128.716553,75.826988 128.891296,73.540581 
	C129.047256,71.500023 129.757935,68.931976 126.227837,68.939713 
M152.846329,89.499527 
	C152.553223,81.483719 153.749924,73.365608 151.917465,64.084061 
	C148.413712,71.008682 148.033585,119.654922 150.694351,130.419739 
	C154.299591,129.377228 155.603500,127.415665 153.524078,123.856796 
	C152.982956,122.930649 152.641006,121.735023 152.647491,120.665833 
	C152.708496,110.608276 152.864990,100.551300 152.846329,89.499527 
z" />
	<path fill="#596D73" opacity="1.000000" stroke="none" d="
M285.437805,110.934845 
	C286.303101,111.515556 286.813782,111.997070 287.409180,112.151054 
	C290.447632,112.936829 293.507996,113.638000 297.322144,114.551056 
	C298.468719,111.574203 296.428162,108.700394 293.580688,106.011345 
	C278.603302,91.867180 277.348694,72.718025 287.765686,55.029217 
	C293.284821,45.657379 309.299744,42.422947 319.235962,47.835251 
	C320.306915,48.418583 321.089111,50.402760 321.171570,51.786797 
	C321.656219,59.923061 321.985687,68.072311 322.140808,76.221497 
	C322.174255,77.977318 321.451416,81.180649 320.778961,81.262268 
	C318.221100,81.572769 315.519501,80.990738 312.919312,80.493164 
	C312.076324,80.331848 311.379456,79.407143 310.603638,78.822487 
	C308.389404,82.147423 308.970337,87.158867 311.706726,89.178505 
	C317.859375,93.719612 321.733124,99.693314 323.207825,107.209099 
	C324.791290,115.279182 325.008942,123.179123 322.581360,131.285843 
	C321.336945,135.441452 322.131653,140.197037 321.914948,144.677139 
	C321.844727,146.128769 321.488800,147.566589 320.072906,148.985229 
	C319.173157,147.031769 318.273438,145.078308 317.613037,143.644531 
	C307.017059,147.010056 297.049500,150.418854 286.262421,148.657288 
	C285.182465,148.480927 283.884430,146.642532 283.579010,145.362747 
	C282.994537,142.913574 282.824341,140.967621 279.302887,141.495453 
	C278.390350,141.632248 276.037323,138.876755 276.063446,137.481934 
	C276.251404,127.442505 273.717926,116.916222 280.707428,107.760788 
	C282.131409,108.703857 283.626831,109.694221 285.437805,110.934845 
z" />
	<path fill="#596D73" opacity="1.000000" stroke="none" d="
M219.770599,146.344666 
	C213.767136,145.931915 208.476379,147.180710 203.009857,148.499832 
	C197.503174,149.828674 191.560486,149.350647 184.735626,149.722839 
	C184.735626,137.088226 184.735626,125.414391 184.735626,113.382698 
	C188.825851,113.278297 193.913239,110.415787 197.845947,117.112030 
	C199.920486,111.946320 197.813721,109.036156 194.922577,106.469391 
	C178.904678,92.248627 179.716782,69.473816 189.728806,54.593185 
	C193.755768,48.608009 199.952499,45.922417 207.348557,46.551819 
	C208.059341,45.444996 208.821167,44.258728 209.887802,42.597794 
	C212.531448,44.984055 214.821136,47.050808 217.392883,49.372166 
	C218.493027,48.516796 219.548325,47.696293 221.980270,45.805450 
	C223.669037,58.366974 222.660828,69.919212 224.263336,82.772766 
	C219.357285,81.876732 215.477905,81.168213 211.112671,80.370949 
	C210.234589,81.627525 210.392014,88.556313 212.308578,89.703651 
	C223.035431,96.125221 225.265625,106.518982 225.957413,117.816963 
	C226.105667,120.238098 226.991089,122.784492 228.156662,124.937698 
	C230.635345,129.516602 230.052856,134.996445 226.492157,138.627304 
	C225.689987,139.445267 225.184555,140.902237 225.165710,142.075058 
	C225.109543,145.572388 223.498062,146.861755 219.770599,146.344666 
z" />
	<path fill="#596D73" opacity="1.000000" stroke="none" d="
M240.862930,115.169342 
	C240.862930,103.245514 240.862930,91.321686 240.862930,79.870132 
	C239.531540,79.262337 239.233551,78.996063 238.963867,79.022179 
	C231.647598,79.730675 231.154846,79.047630 231.418060,71.554573 
	C231.679901,64.101059 231.469894,56.630966 231.753448,48.623184 
	C232.334824,47.594681 232.629532,47.111137 232.924240,46.627594 
	C235.996552,46.804291 239.068100,47.116428 242.141296,47.133396 
	C253.300156,47.194992 264.459564,47.157692 275.859894,47.157692 
	C275.859894,57.025459 275.859894,67.602585 275.859894,78.601028 
	C273.695496,78.774948 271.766235,78.929970 268.612854,79.183357 
	C268.612854,102.228798 268.612854,125.413887 268.612854,149.064392 
	C259.867493,149.064392 252.235443,149.227295 244.614487,149.007050 
	C239.547546,148.860611 241.403152,144.622375 241.181870,141.382843 
	C241.732666,140.785782 242.004181,140.640518 242.275696,140.495270 
	C241.837570,140.341400 241.399460,140.187531 240.961349,140.033661 
	C240.898636,134.283707 240.835922,128.533752 241.062500,122.334351 
	C241.604401,121.794632 241.857025,121.704376 242.109650,121.614113 
	C241.681992,121.468353 241.254333,121.322601 240.826675,121.176849 
	C240.814682,119.698837 240.802673,118.220833 241.109467,116.322586 
	C241.796677,115.555321 242.165070,115.208290 242.533478,114.861267 
	C241.976624,114.963959 241.419785,115.066650 240.862930,115.169342 
z" />
	<path fill="#385266" opacity="1.000000" stroke="none" d="
M276.961456,85.052505 
	C279.240997,91.463364 281.486053,97.468727 283.721802,103.449104 
	C278.542938,101.206230 275.999268,104.924271 273.031036,109.198227 
	C273.031036,101.179520 272.777985,93.148750 273.159393,85.148224 
	C273.305786,82.077690 275.281464,82.082275 276.961456,85.052505 
z" />
	<path fill="#385266" opacity="1.000000" stroke="none" d="
M63.526550,76.111969 
	C65.216103,83.365601 61.126629,89.155830 58.872173,95.718727 
	C55.519306,93.824600 55.485992,92.111595 57.204666,89.204269 
	C59.626373,85.107658 61.239559,80.533089 63.526550,76.111969 
z" />
	<path fill="#385266" opacity="1.000000" stroke="none" d="
M182.467590,99.023026 
	C184.556137,101.768578 186.312347,104.538437 188.354736,107.759644 
	C186.460648,108.243233 184.733704,108.684143 182.135284,109.347549 
	C182.135284,105.458649 182.135284,102.252991 182.467590,99.023026 
z" />
	<path fill="#768586" opacity="1.000000" stroke="none" d="
M126.145142,69.396942 
	C129.757935,68.931976 129.047256,71.500023 128.891296,73.540581 
	C128.716553,75.826988 128.265625,78.092278 127.882568,80.821945 
	C127.205986,79.463577 126.314377,77.690613 126.031105,75.825272 
	C125.735901,73.881317 126.027435,71.848274 126.145142,69.396942 
z" />
	<path fill="#8B9694" opacity="1.000000" stroke="none" d="
M68.208687,74.262489 
	C69.220245,74.589157 70.869514,75.344963 70.858231,76.075104 
	C70.817902,78.683723 70.214066,81.283623 69.498306,83.943169 
	C68.624359,82.627296 67.750320,81.287270 67.610504,79.874580 
	C67.442337,78.175285 67.898682,76.414200 68.208687,74.262489 
z" />
	<path fill="#A7ADA7" opacity="1.000000" stroke="none" d="
M232.702332,46.442093 
	C232.629532,47.111137 232.334824,47.594681 231.777008,48.213463 
	C231.836075,47.651325 232.158249,46.953957 232.702332,46.442093 
z" />
	<path fill="#9AA29E" opacity="1.000000" stroke="none" d="
M240.826141,115.341049 
	C241.419785,115.066650 241.976624,114.963959 242.533478,114.861267 
	C242.165070,115.208290 241.796677,115.555321 241.141388,115.880096 
	C240.854492,115.857857 240.789352,115.512749 240.826141,115.341049 
z" />
	<path fill="#9AA29E" opacity="1.000000" stroke="none" d="
M240.796265,121.339539 
	C241.254333,121.322601 241.681992,121.468353 242.109650,121.614113 
	C241.857025,121.704376 241.604401,121.794632 241.090576,121.855988 
	C240.829391,121.827072 240.765839,121.502220 240.796265,121.339539 
z" />
	<path fill="#9AA29E" opacity="1.000000" stroke="none" d="
M240.919067,140.266815 
	C241.399460,140.187531 241.837570,140.341400 242.275696,140.495270 
	C242.004181,140.640518 241.732666,140.785782 241.211182,140.948669 
	C240.961212,140.966309 240.876801,140.499969 240.919067,140.266815 
z" />
	<path fill="#DEDACB" opacity="1.000000" stroke="none" d="
M31.808689,104.073227 
	C32.108284,102.961639 32.322342,102.246925 32.536396,101.532211 
	C34.353798,112.967529 36.347065,124.308243 33.916470,135.676025 
	C33.185364,135.687653 32.454258,135.699280 31.723152,135.710892 
	C31.723152,125.297295 31.723152,114.883698 31.808689,104.073227 
z" />
	<path fill="#FFFFFF" opacity="1.000000" stroke="none" d="
M35.179337,72.806030 
	C35.185760,76.202736 35.185760,79.128700 35.185760,83.613266 
	C33.552242,81.471313 32.102119,80.452728 32.084759,79.410271 
	C31.914099,69.164551 31.981745,58.914856 31.981745,48.666290 
	C32.694149,48.629341 33.406551,48.592392 34.118958,48.555443 
	C34.445282,52.319416 34.901657,56.077824 35.063057,59.848854 
	C35.240929,64.004951 35.147923,68.172646 35.179337,72.806030 
z" />
	<path fill="#FFFFFF" opacity="1.000000" stroke="none" d="
M95.076447,82.006332 
	C95.012611,97.876938 94.933075,113.247566 94.853546,128.618195 
	C90.374489,123.880501 90.082451,72.827103 93.224838,66.174377 
	C93.695793,66.134567 94.166748,66.094765 94.637711,66.054955 
	C94.778717,71.205421 94.919731,76.355881 95.076447,82.006332 
z" />
	<path fill="#FFFFFF" opacity="1.000000" stroke="none" d="
M152.920120,89.996841 
	C152.864990,100.551300 152.708496,110.608276 152.647491,120.665833 
	C152.641006,121.735023 152.982956,122.930649 153.524078,123.856796 
	C155.603500,127.415665 154.299591,129.377228 150.694351,130.419739 
	C148.033585,119.654922 148.413712,71.008682 151.917465,64.084061 
	C153.749924,73.365608 152.553223,81.483719 152.920120,89.996841 
z" />
</svg>