<svg version="1.1" id="Layer_1" xmlns="http://www.w3.org/2000/svg" xmlns:xlink="http://www.w3.org/1999/xlink" x="0px"
	y="0px" width="100%" viewBox="0 0 477 165" enable-background="new 0 0 477 165" xml:space="preserve">
	<path fill="#385266" opacity="1.000000" stroke="none" d="
M35.000000,166.000000 
	C23.671368,166.000000 12.342736,166.000000 1.010579,166.000000 
	C1.007052,111.027519 1.007052,56.055038 1.007052,1.041277 
	C159.906509,1.041277 318.813049,1.041277 477.859802,1.041277 
	C477.859802,55.883385 477.859802,110.767242 477.859802,166.000000 
	C407.312836,166.000000 336.625061,166.000000 265.643585,165.733643 
	C266.830994,164.999878 268.312164,164.532440 269.640137,164.113358 
	C269.640137,160.485397 269.640137,156.932373 269.640137,153.008575 
	C273.920685,153.008575 277.900208,153.110184 281.872101,152.980133 
	C285.877350,152.848984 290.402618,154.325195 293.003845,149.642227 
	C299.649170,154.587234 319.274994,155.354279 323.892792,149.849854 
	C327.168945,150.659119 329.891327,151.880096 332.629425,151.916412 
	C347.250641,152.110275 361.875977,152.044754 376.499420,151.974472 
	C379.122314,151.961868 381.746948,151.261902 384.364166,151.302795 
	C391.659241,151.416794 398.949371,151.828995 406.244415,151.971298 
	C410.127533,152.047043 411.915466,149.864700 412.046509,146.026550 
	C412.101746,144.409760 412.132050,142.442688 413.015137,141.266815 
	C416.096619,137.163773 419.994659,133.511383 417.795380,127.327858 
	C418.716003,128.446091 418.921997,129.345993 418.982147,130.255524 
	C419.318207,135.338104 419.529999,140.430496 419.957031,145.504990 
	C420.379395,150.523758 423.560669,152.144760 428.227539,152.038925 
	C433.890350,151.910507 439.565155,152.173660 445.221222,151.939926 
	C448.124939,151.819916 451.604065,151.794312 453.697296,150.224640 
	C455.403259,148.945450 455.435242,145.433960 456.167816,143.048141 
	C463.722046,148.324860 470.088318,145.361374 471.019073,135.625641 
	C471.081909,134.968384 470.980988,134.147171 471.331055,133.687912 
	C476.638489,126.725235 475.358124,119.002518 474.074982,111.242455 
	C473.281433,106.443283 469.208710,101.966705 464.741028,101.078011 
	C459.908264,100.116692 459.235657,104.360306 457.217468,106.950554 
	C457.088989,107.115402 456.632080,107.024330 456.236389,107.060753 
	C456.236389,98.953491 456.236389,90.857857 456.236389,82.762222 
	C456.583893,83.006966 456.931396,83.251709 457.278900,83.496452 
	C459.186401,81.425308 462.550690,79.485504 462.751282,77.260475 
	C463.658997,67.192368 463.760681,57.045475 463.970520,46.923183 
	C464.072876,41.985584 461.995697,39.923431 457.031433,40.038288 
	C451.239105,40.172306 445.441620,41.083412 439.670044,40.902225 
	C428.000305,40.535873 416.350708,39.214024 404.685211,39.106400 
	C390.069916,38.971565 375.446899,39.658798 360.827484,40.000931 
	C360.166504,40.016392 359.508423,40.175705 358.847839,40.185123 
	C357.000275,40.211479 355.152130,40.194298 353.561951,40.194298 
	C354.165497,35.761196 354.753296,32.679337 354.961182,29.572058 
	C355.172028,26.420012 354.715332,23.209690 355.070038,20.083784 
	C355.758453,14.016739 353.144684,9.514222 349.033936,5.507855 
	C342.352295,-1.004083 331.273346,1.686461 327.955750,10.484041 
	C324.153992,20.565310 323.771973,30.482199 329.326752,40.801723 
	C323.422058,40.624073 322.808929,43.957329 322.948456,48.114143 
	C323.126068,53.406654 322.991455,58.709641 322.991455,64.008110 
	C322.005096,62.079617 322.320526,60.084343 321.941437,58.231152 
	C321.072540,53.983852 321.958832,48.784767 317.298157,46.243557 
	C313.393066,44.114323 309.231628,42.079433 304.935028,41.138985 
	C299.537994,39.957653 293.887421,39.934513 288.220520,39.399693 
	C288.123993,37.659103 288.161285,36.154644 287.936188,34.690525 
	C287.320496,30.685705 282.846558,26.133347 279.787933,27.469877 
	C272.218384,30.777531 261.275787,28.855698 258.839111,40.429726 
	C257.475739,39.223270 255.604752,38.391365 255.382812,37.241241 
	C253.566895,27.830795 243.283981,31.379059 238.642868,26.248287 
	C238.042740,25.584858 235.272964,26.747887 233.567963,27.262695 
	C232.181259,27.681395 230.878235,28.909090 229.548126,28.894018 
	C222.755295,28.817051 215.934052,28.769478 209.184647,28.093491 
	C203.372635,27.511389 200.009781,30.001402 199.995926,35.940956 
	C199.979706,42.895184 199.992126,49.849476 199.992126,56.803741 
	C198.979279,55.171005 199.136719,53.519283 198.950760,51.907181 
	C198.305313,46.312206 194.536896,41.608311 190.417923,41.564262 
	C185.678268,41.513580 180.931458,41.780994 176.194214,42.032215 
	C174.342789,42.130402 172.165421,43.337238 170.727814,42.701664 
	C165.125748,40.224949 159.775070,40.756561 154.297470,42.809498 
	C153.478790,43.116333 152.437805,43.114056 151.563919,42.937225 
	C148.755432,42.368938 145.986252,41.131859 143.185486,41.082378 
	C131.191177,40.870491 119.189827,40.899155 107.193626,41.047832 
	C103.600906,41.092354 100.021568,41.864452 96.426582,42.201862 
	C94.072876,42.422768 92.192451,42.172871 92.532158,38.860252 
	C93.171997,32.620724 94.107735,26.323828 93.798218,20.106649 
	C93.604088,16.207190 91.917091,12.087071 89.909309,8.643522 
	C87.052887,3.744488 82.072983,1.750357 76.561943,3.167782 
	C71.780876,4.397458 68.226418,7.245394 66.565804,12.538366 
	C64.277618,19.831596 63.085114,27.015463 65.077301,34.496029 
	C65.722496,36.918720 66.561050,39.289921 67.311157,41.684673 
	C65.952621,41.368725 65.279198,40.732445 65.037270,39.960869 
	C62.572300,32.099724 60.738697,30.854626 52.149517,30.514257 
	C42.560490,30.134266 32.977985,29.563854 23.398302,28.983004 
	C17.017584,28.596121 13.110539,32.111256 13.010647,38.696217 
	C12.923554,44.437359 13.247183,50.195152 12.926589,55.919674 
	C12.533277,62.942619 11.242607,69.930374 11.103722,76.948471 
	C10.949806,84.726067 11.981477,92.524948 11.879844,100.306503 
	C11.809996,105.654488 10.392805,110.974556 10.135622,116.333862 
	C9.948697,120.229118 10.644227,124.170837 10.998812,128.087082 
	C11.639471,135.162888 12.216002,142.247055 13.028505,149.303650 
	C13.408960,152.607895 15.540550,153.913010 18.918623,153.600189 
	C23.294699,153.194962 27.697176,153.074860 31.289513,152.876190 
	C30.663338,156.912064 30.113031,160.458939 29.607605,163.716568 
	C31.872206,164.675522 33.436104,165.337753 35.000000,166.000000 
z" />
	<path fill="#FFFFFF" opacity="1.000000" stroke="none" d="
M35.333332,166.000000 
	C33.436104,165.337753 31.872206,164.675522 29.607605,163.716568 
	C30.113031,160.458939 30.663338,156.912064 31.289513,152.876190 
	C27.697176,153.074860 23.294699,153.194962 18.918623,153.600189 
	C15.540550,153.913010 13.408960,152.607895 13.028505,149.303650 
	C12.216002,142.247055 11.639471,135.162888 10.998812,128.087082 
	C10.644227,124.170837 9.948697,120.229118 10.135622,116.333862 
	C10.392805,110.974556 11.809996,105.654488 11.879844,100.306503 
	C11.981477,92.524948 10.949806,84.726067 11.103722,76.948471 
	C11.242607,69.930374 12.533277,62.942619 12.926589,55.919674 
	C13.247183,50.195152 12.923554,44.437359 13.010647,38.696217 
	C13.110539,32.111256 17.017584,28.596121 23.398302,28.983004 
	C32.977985,29.563854 42.560490,30.134266 52.149517,30.514257 
	C60.738697,30.854626 62.572300,32.099724 65.037270,39.960869 
	C65.279198,40.732445 65.952621,41.368725 67.311157,41.684673 
	C66.561050,39.289921 65.722496,36.918720 65.077301,34.496029 
	C63.085114,27.015463 64.277618,19.831596 66.565804,12.538366 
	C68.226418,7.245394 71.780876,4.397458 76.561943,3.167782 
	C82.072983,1.750357 87.052887,3.744488 89.909309,8.643522 
	C91.917091,12.087071 93.604088,16.207190 93.798218,20.106649 
	C94.107735,26.323828 93.171997,32.620724 92.532158,38.860252 
	C92.192451,42.172871 94.072876,42.422768 96.426582,42.201862 
	C100.021568,41.864452 103.600906,41.092354 107.193626,41.047832 
	C119.189827,40.899155 131.191177,40.870491 143.185486,41.082378 
	C145.986252,41.131859 148.755432,42.368938 151.563919,42.937225 
	C152.437805,43.114056 153.478790,43.116333 154.297470,42.809498 
	C159.775070,40.756561 165.125748,40.224949 170.727814,42.701664 
	C172.165421,43.337238 174.342789,42.130402 176.194214,42.032215 
	C180.931458,41.780994 185.678268,41.513580 190.417923,41.564262 
	C194.536896,41.608311 198.305313,46.312206 198.950760,51.907181 
	C199.136719,53.519283 198.979279,55.171005 199.992126,56.803741 
	C199.992126,49.849476 199.979706,42.895184 199.995926,35.940956 
	C200.009781,30.001402 203.372635,27.511389 209.184647,28.093491 
	C215.934052,28.769478 222.755295,28.817051 229.548126,28.894018 
	C230.878235,28.909090 232.181259,27.681395 233.567963,27.262695 
	C235.272964,26.747887 238.042740,25.584858 238.642868,26.248287 
	C243.283981,31.379059 253.566895,27.830795 255.382812,37.241241 
	C255.604752,38.391365 257.475739,39.223270 258.839111,40.429726 
	C261.275787,28.855698 272.218384,30.777531 279.787933,27.469877 
	C282.846558,26.133347 287.320496,30.685705 287.936188,34.690525 
	C288.161285,36.154644 288.123993,37.659103 288.220520,39.399693 
	C293.887421,39.934513 299.537994,39.957653 304.935028,41.138985 
	C309.231628,42.079433 313.393066,44.114323 317.298157,46.243557 
	C321.958832,48.784767 321.072540,53.983852 321.941437,58.231152 
	C322.320526,60.084343 322.005096,62.079617 322.991455,64.008110 
	C322.991455,58.709641 323.126068,53.406654 322.948456,48.114143 
	C322.808929,43.957329 323.422058,40.624073 329.326752,40.801723 
	C323.771973,30.482199 324.153992,20.565310 327.955750,10.484041 
	C331.273346,1.686461 342.352295,-1.004083 349.033936,5.507855 
	C353.144684,9.514222 355.758453,14.016739 355.070038,20.083784 
	C354.715332,23.209690 355.172028,26.420012 354.961182,29.572058 
	C354.753296,32.679337 354.165497,35.761196 353.561951,40.194298 
	C355.152130,40.194298 357.000275,40.211479 358.847839,40.185123 
	C359.508423,40.175705 360.166504,40.016392 360.827484,40.000931 
	C375.446899,39.658798 390.069916,38.971565 404.685211,39.106400 
	C416.350708,39.214024 428.000305,40.535873 439.670044,40.902225 
	C445.441620,41.083412 451.239105,40.172306 457.031433,40.038288 
	C461.995697,39.923431 464.072876,41.985584 463.970520,46.923183 
	C463.760681,57.045475 463.658997,67.192368 462.751282,77.260475 
	C462.550690,79.485504 459.186401,81.425308 457.278900,83.496452 
	C456.931396,83.251709 456.583893,83.006966 456.236389,82.762222 
	C456.236389,90.857857 456.236389,98.953491 456.236389,107.060753 
	C456.632080,107.024330 457.088989,107.115402 457.217468,106.950554 
	C459.235657,104.360306 459.908264,100.116692 464.741028,101.078011 
	C469.208710,101.966705 473.281433,106.443283 474.074982,111.242455 
	C475.358124,119.002518 476.638489,126.725235 471.331055,133.687912 
	C470.980988,134.147171 471.081909,134.968384 471.019073,135.625641 
	C470.088318,145.361374 463.722046,148.324860 456.167816,143.048141 
	C455.435242,145.433960 455.403259,148.945450 453.697296,150.224640 
	C451.604065,151.794312 448.124939,151.819916 445.221222,151.939926 
	C439.565155,152.173660 433.890350,151.910507 428.227539,152.038925 
	C423.560669,152.144760 420.379395,150.523758 419.957031,145.504990 
	C419.529999,140.430496 419.318207,135.338104 418.982147,130.255524 
	C418.921997,129.345993 418.716003,128.446091 417.795380,127.327858 
	C419.994659,133.511383 416.096619,137.163773 413.015137,141.266815 
	C412.132050,142.442688 412.101746,144.409760 412.046509,146.026550 
	C411.915466,149.864700 410.127533,152.047043 406.244415,151.971298 
	C398.949371,151.828995 391.659241,151.416794 384.364166,151.302795 
	C381.746948,151.261902 379.122314,151.961868 376.499420,151.974472 
	C361.875977,152.044754 347.250641,152.110275 332.629425,151.916412 
	C329.891327,151.880096 327.168945,150.659119 323.892792,149.849854 
	C319.274994,155.354279 299.649170,154.587234 293.003845,149.642227 
	C290.402618,154.325195 285.877350,152.848984 281.872101,152.980133 
	C277.900208,153.110184 273.920685,153.008575 269.640137,153.008575 
	C269.640137,156.932373 269.640137,160.485397 269.640137,164.113358 
	C268.312164,164.532440 266.830994,164.999878 265.174927,165.733643 
	C264.250000,166.000000 263.500000,166.000000 262.177032,165.715088 
	C257.360413,163.257767 257.068420,159.336685 256.975403,155.239014 
	C256.587769,138.159012 256.139496,121.080383 255.729050,104.625992 
	C250.003830,107.854401 244.915817,110.682411 239.878464,113.597961 
	C238.843521,114.196968 237.090652,115.301445 237.202667,115.871536 
	C238.644592,123.210541 233.091385,131.707352 240.750168,138.045181 
	C241.113983,138.346252 240.928391,139.311218 240.949036,140.361816 
	C240.143311,143.035828 238.969879,145.276642 238.755615,147.605682 
	C238.564392,149.684555 238.940216,152.169144 240.012344,153.882370 
	C240.690445,154.965942 244.024094,155.839432 244.561035,155.276291 
	C245.944916,153.824768 246.778717,151.588699 247.177353,149.538727 
	C247.507050,147.843277 246.901566,145.965973 247.032211,144.039246 
	C248.765549,144.402786 250.733521,144.477280 251.481598,145.470535 
	C253.513748,148.168747 251.629318,156.028381 248.819550,158.093353 
	C242.866028,162.468781 235.718796,159.265091 233.220551,150.882996 
	C233.407639,150.395172 233.383438,150.030869 233.359253,149.666565 
	C233.235275,150.106934 233.111313,150.547287 232.576904,150.979645 
	C226.780762,152.163895 221.395050,153.356140 215.870728,154.579086 
	C214.964005,158.186432 213.981995,162.093216 213.000000,166.000000 
	C210.299988,166.000000 207.599976,166.000000 204.302841,165.661713 
	C202.226227,159.924820 200.746735,154.526245 199.303741,149.260834 
	C196.441864,154.043930 191.156891,154.923950 184.695068,153.540421 
	C178.239960,152.158310 171.440216,152.414429 164.798920,151.863556 
	C160.266602,151.487595 154.991592,156.021637 152.168503,150.814911 
	C148.858536,151.643921 146.142258,152.876465 143.408768,152.915924 
	C129.500046,153.116653 115.586418,153.064331 101.675713,152.951233 
	C99.468681,152.933289 97.255852,151.738297 95.066254,151.801331 
	C86.514488,152.047577 77.973282,152.751633 69.422523,152.866547 
	C67.654526,152.890289 65.681541,151.350143 64.118118,150.127792 
	C60.594723,147.373032 61.778866,143.624512 61.834648,139.817398 
	C61.972862,130.384949 61.322670,120.941010 60.994308,111.501518 
	C60.971184,110.836739 61.018948,110.168724 60.978657,109.505562 
	C60.950100,109.035522 60.828625,108.571129 60.748623,108.104218 
	C59.512032,120.075844 49.543468,117.827797 41.715694,119.789452 
	C42.129845,127.628540 42.536236,135.320831 42.559441,143.020569 
	C41.469639,144.061844 40.763023,145.095642 40.056404,146.129456 
	C41.018501,146.748596 41.980595,147.367737 42.964436,148.439209 
	C42.991302,150.694336 43.347424,152.582718 42.932796,154.283173 
	C41.877220,158.612305 42.936611,164.119003 37.000000,166.000000 
	C36.555553,166.000000 36.111111,166.000000 35.333332,166.000000 
M265.630798,141.454620 
	C265.569580,139.853668 265.508331,138.252716 265.440186,136.079468 
	C265.449921,135.888931 265.459625,135.698410 266.207275,135.829163 
	C266.468933,135.888382 266.730591,135.947617 267.164886,136.764969 
	C267.796082,138.525742 268.582092,140.249283 269.016937,142.057281 
	C269.495880,144.048599 269.652130,146.117538 270.501312,148.277115 
	C270.685883,148.237610 270.870422,148.198120 271.971649,148.313339 
	C276.970093,148.240265 281.968506,148.167191 287.651031,148.041382 
	C287.845245,147.660843 288.039459,147.280304 288.449585,146.113480 
	C288.518890,136.243362 288.588165,126.373238 289.012054,116.392159 
	C289.250183,116.304222 289.495972,116.267891 289.872009,117.043236 
	C292.191589,126.191368 294.426025,135.362839 296.920532,144.463013 
	C297.304169,145.862503 298.834930,147.936050 299.919617,147.989639 
	C305.677948,148.274185 311.463470,148.029556 317.239075,147.935806 
	C320.441284,147.883820 321.447021,145.579987 320.758942,143.183853 
	C318.032654,133.690002 314.958710,124.295990 312.035248,114.517204 
	C312.035248,114.517204 312.056427,114.169411 312.175812,113.342209 
	C311.762085,107.398300 306.565552,101.604118 311.898132,95.014221 
	C313.932404,98.267143 315.832672,101.305832 317.856873,104.542694 
	C318.398071,104.024864 319.041138,103.673683 319.276855,103.141922 
	C321.066711,99.104736 321.792053,95.245331 321.862915,90.505119 
	C321.932343,85.863739 322.252533,81.636299 320.995483,76.896027 
	C318.954285,69.198502 318.174805,61.172134 316.658142,53.324097 
	C316.404846,52.013332 315.353180,50.173256 314.267029,49.820820 
	C308.353271,47.901882 302.387604,45.964584 296.290527,44.851227 
	C292.190125,44.102478 287.842316,44.708656 283.476898,44.708656 
	C283.705627,41.653080 284.558502,39.240536 283.843842,37.455624 
	C283.014008,35.383102 280.568268,32.210346 279.245056,32.403297 
	C274.909607,33.035488 270.664551,34.743477 266.581207,36.495831 
	C263.607086,37.772186 262.320129,44.459480 264.879944,45.781464 
	C268.135651,47.462833 266.719788,49.399410 266.543152,51.552593 
	C266.056702,57.481564 265.836060,63.435543 265.226776,69.350426 
	C264.470276,76.694382 270.195770,85.248474 261.284821,91.130569 
	C261.070587,91.272018 261.019775,91.737846 260.984619,92.062325 
	C260.415466,97.313354 259.234467,102.592690 259.456635,107.811775 
	C259.758331,114.900360 261.135956,121.943153 261.929688,129.935410 
	C262.072632,140.225739 261.182678,150.568420 262.376221,160.805481 
	C262.855103,160.793976 263.333984,160.782471 263.812866,160.770966 
	C263.936462,158.516830 264.060028,156.262711 264.862885,153.851578 
	C264.924164,152.240540 264.985474,150.629486 265.075958,148.140686 
	C265.069580,146.092422 265.063202,144.044159 265.630798,141.454620 
M409.556671,93.828560 
	C409.140045,93.565033 408.723419,93.301498 408.160248,92.107414 
	C408.148804,76.418808 408.137390,60.730206 408.067444,44.464802 
	C407.721680,44.344406 407.375946,44.224010 406.102051,43.938618 
	C400.064178,43.972740 394.026337,44.006866 387.422089,44.050331 
	C387.275055,44.368847 387.128052,44.687366 386.815643,45.930355 
	C386.741638,52.572544 386.667633,59.214737 386.121216,65.879448 
	C385.807281,65.915939 385.492310,65.930771 385.000763,65.111290 
	C384.246185,60.073383 383.491608,55.035473 382.808105,49.207466 
	C382.450287,47.621193 382.092438,46.034920 381.675812,44.187950 
	C375.344299,44.187950 369.238708,44.052830 363.150970,44.322052 
	C362.145996,44.366493 360.415955,46.158661 360.386139,47.182854 
	C360.184418,54.115353 360.349701,61.058529 360.229248,68.660072 
	C360.285034,69.108154 360.340820,69.556236 360.199829,70.922218 
	C360.208832,81.946991 360.217834,92.971756 360.054260,104.919746 
	C360.054260,118.912712 360.054260,132.905685 360.054260,146.933289 
	C367.133209,146.933289 373.575897,146.933289 380.623779,146.925781 
	C380.801819,146.598083 380.979889,146.270401 381.335114,145.044479 
	C381.488770,135.673874 381.642426,126.303261 382.357117,117.024971 
	C382.545074,117.049385 382.733002,117.073799 383.025299,117.942047 
	C383.965454,127.580811 384.905609,137.219574 385.847656,146.877716 
	C393.622620,146.877716 400.504333,146.877716 407.412750,146.877716 
	C407.934387,143.563232 407.327850,139.017456 409.094452,137.731277 
	C414.916748,133.492386 412.536774,128.545227 411.930786,122.809387 
	C412.302612,122.197899 412.674438,121.586411 413.858215,121.162720 
	C417.030212,121.667259 420.202209,122.171806 423.846008,122.751389 
	C423.846008,129.034332 423.763855,135.481720 423.885925,141.925247 
	C423.935608,144.547989 423.896667,147.359695 427.990967,147.269058 
	C435.449066,147.103973 442.913422,147.222168 451.009369,147.222168 
	C451.333008,138.513412 451.800812,130.162827 451.919037,121.807304 
	C452.125702,107.200729 452.117493,92.591110 452.528656,77.811958 
	C452.736206,77.663536 452.885925,77.470306 453.870911,77.152390 
	C455.469208,77.054382 457.067474,76.956367 458.907440,76.843536 
	C458.907440,66.010872 458.907440,55.571236 458.907440,44.993248 
	C456.284760,44.721966 453.826782,44.165905 451.396912,44.269436 
	C441.676849,44.683605 431.966370,45.318684 422.249939,45.826759 
	C420.946625,45.894909 419.504333,46.026741 418.342346,45.574337 
	C414.585571,44.111675 413.895935,46.095772 413.987854,49.132179 
	C414.218353,56.746231 414.356415,64.366089 414.785004,71.969330 
	C414.916443,74.301392 415.868774,76.587189 416.332550,78.443466 
	C419.204895,77.841438 421.007111,77.463707 423.335480,76.975693 
	C423.335480,88.331062 423.335480,98.927811 423.335480,109.798332 
	C420.599335,110.507515 417.891510,111.209343 415.086273,111.134682 
	C415.686493,106.639694 416.774200,102.141525 416.744965,97.650627 
	C416.717651,93.452133 414.072540,92.328827 409.556671,93.828560 
M342.321198,43.468689 
	C344.697205,41.019279 348.713135,38.819218 349.130859,36.072060 
	C350.228271,28.854305 350.443359,21.325550 349.670929,14.063103 
	C349.164337,9.299594 343.631531,5.618578 340.052704,6.116177 
	C334.987366,6.820456 332.291565,10.189927 331.151672,14.954643 
	C328.651154,25.406693 328.941193,35.268887 337.102234,43.985619 
	C337.062225,44.196262 337.022186,44.406902 336.079285,44.784256 
	C333.473389,44.784256 330.867462,44.784256 327.314636,44.784256 
	C327.314636,55.532829 327.290314,65.582191 327.326111,75.631348 
	C327.341339,79.905045 327.516113,84.177940 327.560394,88.451805 
	C327.750305,106.777237 327.833557,125.104851 328.252350,143.424881 
	C328.286774,144.930695 330.474762,147.582535 331.788239,147.663818 
	C338.700378,148.091568 345.653046,147.864120 353.064514,147.864120 
	C353.064514,145.599030 353.058960,143.976547 353.065369,142.354080 
	C353.113861,130.056473 353.194702,117.758888 353.206055,105.461243 
	C353.216644,93.987419 353.154144,82.513519 353.203094,70.503181 
	C353.138641,70.334312 353.074158,70.165436 353.207062,69.077667 
	C353.207062,61.194679 353.207062,53.311691 353.207062,44.573692 
	C349.513153,44.573692 345.772614,44.573692 342.037506,44.325001 
	C342.037506,44.325001 342.027802,44.075939 342.321198,43.468689 
M66.297104,144.056137 
	C65.950714,144.347549 65.604324,144.638947 65.257927,144.930344 
	C65.781860,144.967361 66.305786,145.004379 66.988678,145.811386 
	C68.100853,146.852905 69.179222,148.750473 70.330750,148.795975 
	C77.403183,149.075333 84.492165,148.935944 91.966827,148.935944 
	C91.966827,114.305870 91.966827,80.360321 91.966827,45.858959 
	C88.634979,45.858959 85.496956,46.077911 82.409309,45.778049 
	C80.512543,45.593838 78.692856,44.615887 77.801620,43.925686 
	C84.568550,43.381226 88.232071,40.882553 89.072853,34.295567 
	C89.835960,28.317183 89.624825,22.084667 88.877907,16.084347 
	C88.279884,11.280193 82.991119,7.095722 79.335182,7.155363 
	C75.458923,7.218599 71.445427,10.846008 70.210678,15.734656 
	C69.525002,18.449375 68.921906,21.263514 68.867973,24.044216 
	C68.717773,31.790060 68.991646,39.493797 76.507469,44.955715 
	C73.339417,45.517601 70.171364,46.079491 66.253616,46.774349 
	C66.253616,57.016090 66.248001,67.241745 66.256302,77.467384 
	C66.259766,81.733719 66.334579,86.000328 66.304794,90.266312 
	C66.207626,104.183861 66.077194,118.101181 65.407051,132.543762 
	C65.923256,134.696472 66.439453,136.849167 67.223907,139.526733 
	C67.084366,141.014328 66.944824,142.501923 66.297104,144.056137 
M182.463699,76.843925 
	C182.690369,76.705246 182.859390,76.515274 183.829025,76.136955 
	C186.482224,76.460968 189.135406,76.784981 191.772491,77.107025 
	C192.564362,70.544533 193.463715,63.479115 194.236099,56.399834 
	C194.414825,54.761673 194.329041,53.049072 194.068146,51.418217 
	C193.558044,48.229671 192.665634,45.401585 188.319901,47.101624 
	C186.342499,47.875168 184.199493,48.989830 182.217606,48.836685 
	C177.285751,48.455593 172.411880,47.372978 167.497498,46.697304 
	C164.865692,46.335461 162.148895,45.833504 159.564346,46.153404 
	C157.846954,46.365978 155.439865,47.567966 154.868576,48.955730 
	C153.989624,51.090813 154.321045,53.765343 154.314453,56.211475 
	C154.278946,69.382759 154.297653,82.554192 154.297653,94.652870 
	C152.865372,94.652870 150.841858,94.652870 148.063766,94.223969 
	C147.784882,94.146942 147.506012,94.069916 147.105911,93.064255 
	C147.105911,77.159813 147.105911,61.255371 147.105911,44.576790 
	C139.562347,45.075401 132.742584,45.526176 125.788895,46.502552 
	C125.821640,46.680355 125.854393,46.858162 125.720634,47.938038 
	C125.665283,54.533489 125.609940,61.128944 125.078194,67.825294 
	C124.761337,67.918999 124.438843,67.946411 123.972832,67.089867 
	C122.666824,60.004330 121.360817,52.918793 119.492584,45.614937 
	C119.293922,45.645729 119.095253,45.676521 117.984871,45.540787 
	C112.350670,45.620411 106.716461,45.700039 100.465645,45.708302 
	C100.124344,46.130753 99.783051,46.553207 99.240112,47.891312 
	C99.288528,52.935860 99.336952,57.980412 99.262230,63.498566 
	C99.262230,63.498566 99.374496,63.974865 99.153656,64.890724 
	C99.106201,92.261574 99.058746,119.632431 99.018898,147.618179 
	C99.358551,147.782700 99.698204,147.947220 100.961830,148.248596 
	C106.971169,148.177032 112.980499,148.105484 119.598938,148.004822 
	C119.758591,147.661240 119.918251,147.317642 120.235466,146.050507 
	C120.303329,136.125320 120.371193,126.200119 120.898033,116.199402 
	C120.898033,116.199402 121.357712,116.124550 121.357712,116.124550 
	C121.357712,116.124550 121.823296,116.136993 121.881905,117.014168 
	C122.818436,127.335533 123.754974,137.656906 124.705055,148.127625 
	C132.111130,148.127625 138.557419,148.127625 145.854477,148.073563 
	C146.187805,147.229858 146.806961,146.387268 146.810257,145.542297 
	C146.843384,137.029510 146.775604,128.516357 146.901001,119.093193 
	C146.995438,113.732666 147.089874,108.372139 147.682175,102.981842 
	C147.682175,102.981842 148.177841,102.925209 148.732529,103.431374 
	C150.233063,108.323593 152.757416,112.949303 151.910339,118.420433 
	C151.707993,119.727402 153.155380,121.212502 153.490509,122.695557 
	C154.266495,126.129395 155.175369,129.591110 155.384979,133.080307 
	C155.644897,137.406860 155.115967,141.777451 155.271622,146.116699 
	C155.298981,146.879776 157.036102,148.237976 157.946335,148.207474 
	C164.342789,147.993210 170.731094,147.169327 177.118607,147.202194 
	C180.537354,147.219772 184.043732,148.267303 187.342087,149.359039 
	C192.179398,150.960205 195.718796,148.998459 196.031586,143.771408 
	C196.299042,139.301743 195.932953,134.795776 196.155884,130.321259 
	C196.308395,127.260323 194.883743,126.166771 192.155319,125.940056 
	C187.737961,125.572990 183.269028,125.434326 178.942184,124.585739 
	C177.452606,124.293602 175.661057,122.363945 175.204391,120.826759 
	C174.691132,119.099045 175.531158,116.969299 176.272644,114.865204 
	C176.508224,114.627754 176.743805,114.390297 177.909821,114.096268 
	C182.539383,114.347694 187.168060,114.717079 191.799271,114.752274 
	C192.740097,114.759438 194.371628,113.625053 194.512314,112.813629 
	C194.987366,110.073914 195.266098,107.211189 195.003906,104.454086 
	C194.638641,100.613144 193.610947,96.839851 193.079956,93.008072 
	C192.818100,91.118431 193.034515,89.162506 193.034515,87.499321 
	C187.718857,86.208908 183.254166,85.125069 177.844391,83.811806 
	C177.844391,82.028259 177.844391,79.123779 177.844391,75.813873 
	C179.585327,76.294441 180.846146,76.642487 182.463699,76.843925 
M23.640799,34.362061 
	C20.186747,32.569527 18.069431,34.304199 17.512367,37.433388 
	C17.019144,40.203957 17.598522,43.165470 17.350222,46.389771 
	C17.159044,46.680626 17.085871,46.998669 16.966480,48.151024 
	C17.029114,48.793140 17.126316,49.434036 17.148983,50.077560 
	C17.355257,55.933887 17.912054,61.809441 17.611027,67.640373 
	C17.426649,71.211754 15.612119,74.670891 15.099759,78.261772 
	C14.638543,81.494225 14.954405,84.837555 14.656518,88.736954 
	C15.108205,89.825470 15.559892,90.913994 16.049383,92.848946 
	C16.051786,97.593903 17.140440,102.694633 15.737140,106.979187 
	C14.451226,110.905319 14.815213,114.191582 15.420708,117.831497 
	C15.607210,118.952660 15.558070,120.113297 15.613016,121.256035 
	C16.055891,130.466690 16.497856,139.677383 16.948460,149.062210 
	C23.402164,149.062210 29.011957,149.062210 34.550259,149.062210 
	C34.897770,153.136658 35.225441,156.978424 35.553108,160.820190 
	C36.221916,160.776443 36.890720,160.732697 37.559528,160.688950 
	C37.559528,145.220367 37.559528,129.751785 37.559528,113.792366 
	C39.709244,114.102135 40.989464,114.207649 42.233620,114.478722 
	C50.228733,116.220627 56.047146,111.781631 56.115574,103.794479 
	C56.164379,98.097908 56.125046,92.400589 56.125046,87.778763 
	C57.455990,88.546532 59.556770,90.626785 60.603867,90.188675 
	C63.081287,89.152107 61.371017,83.267838 60.198887,80.885551 
	C58.217815,76.859169 57.708893,72.108452 56.580978,67.662292 
	C62.260818,64.318398 58.050098,58.719143 59.461056,54.283398 
	C60.726288,50.305786 59.987759,45.665619 59.978554,41.318077 
	C59.973705,39.027912 61.003025,36.018608 56.635998,36.294048 
	C53.422546,36.496735 50.170731,36.091137 46.948715,35.996418 
	C46.948715,35.996418 46.986481,36.002258 46.827938,35.425446 
	C46.080379,35.373058 45.332817,35.320671 43.909767,35.068161 
	C43.679340,35.022850 43.448917,34.977543 42.423996,35.139290 
	C41.549473,35.454422 40.656834,36.082127 39.803436,36.032677 
	C35.144291,35.762711 30.494799,35.326233 25.272507,34.973408 
	C24.892775,34.978443 24.513041,34.983479 23.640799,34.362061 
M233.130630,109.756264 
	C246.280884,109.226273 253.513611,101.253418 256.331787,89.518951 
	C259.935211,74.514778 258.538818,59.353462 255.258499,44.238659 
	C251.572464,45.643242 251.152252,43.911221 250.724197,40.927608 
	C250.371078,38.466293 251.525467,33.755787 245.996643,34.290260 
	C245.108597,30.617090 242.832779,30.578527 239.335892,31.609690 
	C237.563156,31.884338 235.790436,32.158989 234.017715,32.433636 
	C225.921692,32.976517 217.623901,33.236458 209.354630,32.863670 
	C205.392853,32.685070 203.980545,33.725910 204.000244,37.724808 
	C204.080261,53.972706 203.920944,70.221634 203.892410,86.470253 
	C203.863739,102.789719 203.720825,119.111702 203.961044,135.427673 
	C204.066940,142.620743 204.892685,149.812851 205.665329,156.975876 
	C205.778549,158.025406 207.417297,158.910370 208.350189,159.871475 
	C209.117599,158.953064 210.200012,158.146042 210.573944,157.088516 
	C211.059097,155.716400 210.512695,153.824493 211.257874,152.737122 
	C212.279465,151.246353 213.933853,149.684174 215.605072,149.242615 
	C219.853287,148.120209 224.394363,148.007492 228.539948,146.644348 
	C230.175613,146.106506 232.079132,143.355789 232.139267,141.555222 
	C232.477890,131.415649 232.292358,121.258583 232.441360,110.610497 
	C232.453445,110.437302 232.465515,110.264114 233.130630,109.756264 
M458.627472,132.298996 
	C459.036865,134.848358 459.446289,137.397705 459.876068,140.073990 
	C462.252106,139.890488 463.977783,139.757202 465.245758,139.659271 
	C466.747986,135.364471 467.813049,131.179108 469.636780,127.355591 
	C472.895996,120.522606 469.884308,109.579010 462.564606,105.683044 
	C461.332214,110.577934 459.847595,115.195618 459.080475,119.929573 
	C458.476135,123.659035 458.755951,127.531761 458.627472,132.298996 
M197.939804,88.582558 
	C197.939804,92.390671 197.939804,96.198784 197.939804,100.006897 
	C198.340164,99.996696 198.740509,99.986496 199.140869,99.976288 
	C199.140869,86.692665 199.140869,73.409035 199.140869,59.806812 
	C194.502258,67.135834 200.272537,76.058273 194.276215,82.412590 
	C195.437927,84.109756 196.703629,85.958809 197.939804,88.582558 
M318.011719,116.512642 
	C319.088287,120.047783 320.164825,123.582916 321.241364,127.118057 
	C321.395386,127.056435 321.549438,126.994804 321.703461,126.933182 
	C321.703461,120.885155 321.703461,114.837135 321.703461,108.661591 
	C319.793579,108.912476 318.186768,109.123543 316.179321,109.387238 
	C316.773621,111.679398 317.298492,113.703712 318.011719,116.512642 
M196.079483,122.112930 
	C202.200119,122.788391 197.460526,118.489113 198.663345,116.637375 
	C193.181335,123.786858 185.942871,116.884506 179.816498,119.535294 
	C185.086990,120.354347 190.188263,121.147110 196.079483,122.112930 
M415.483917,88.766266 
	C416.487488,89.274239 417.491058,89.782211 418.647003,90.367317 
	C418.647003,87.892876 418.647003,85.676643 418.647003,83.218010 
	C416.611450,83.074768 414.903717,82.954597 412.030212,82.752396 
	C413.247070,85.191269 414.044647,86.789856 415.483917,88.766266 
M208.029709,164.219498 
	C208.147202,163.668961 208.264694,163.118408 208.382172,162.567871 
	C208.089905,162.572418 207.545898,162.552750 207.542770,162.585129 
	C207.487747,163.157288 207.498596,163.735794 208.029709,164.219498 
z" />
	<path fill="#385266" opacity="1.000000" stroke="none" d="
M37.468658,166.000000 
	C42.936611,164.119003 41.877220,158.612305 42.932796,154.283173 
	C43.347424,152.582718 42.991302,150.694336 42.983078,148.025146 
	C42.967525,145.776871 42.955074,144.395004 42.942627,143.013123 
	C42.536236,135.320831 42.129845,127.628540 41.715694,119.789452 
	C49.543468,117.827797 59.512032,120.075844 60.748623,108.104218 
	C60.828625,108.571129 60.950100,109.035522 60.978657,109.505562 
	C61.018948,110.168724 60.971184,110.836739 60.994308,111.501518 
	C61.322670,120.941010 61.972862,130.384949 61.834648,139.817398 
	C61.778866,143.624512 60.594723,147.373032 64.118118,150.127792 
	C65.681541,151.350143 67.654526,152.890289 69.422523,152.866547 
	C77.973282,152.751633 86.514488,152.047577 95.066254,151.801331 
	C97.255852,151.738297 99.468681,152.933289 101.675713,152.951233 
	C115.586418,153.064331 129.500046,153.116653 143.408768,152.915924 
	C146.142258,152.876465 148.858536,151.643921 152.168503,150.814911 
	C154.991592,156.021637 160.266602,151.487595 164.798920,151.863556 
	C171.440216,152.414429 178.239960,152.158310 184.695068,153.540421 
	C191.156891,154.923950 196.441864,154.043930 199.303741,149.260834 
	C200.746735,154.526245 202.226227,159.924820 203.852859,165.661713 
	C148.645767,166.000000 93.291542,166.000000 37.468658,166.000000 
z" />
	<path fill="#385266" opacity="1.000000" stroke="none" d="
M213.468658,166.000000 
	C213.981995,162.093216 214.964005,158.186432 215.870728,154.579086 
	C221.395050,153.356140 226.780762,152.163895 232.582642,150.985291 
	C232.998825,150.998947 233.009262,151.006500 233.009262,151.006500 
	C235.718796,159.265091 242.866028,162.468781 248.819550,158.093353 
	C251.629318,156.028381 253.513748,148.168747 251.481598,145.470535 
	C250.733521,144.477280 248.765549,144.402786 246.759583,143.756424 
	C245.988419,142.431396 245.811661,141.259186 245.616806,139.966995 
	C243.840591,139.966995 242.419632,139.966995 240.998672,139.966995 
	C240.928391,139.311218 241.113983,138.346252 240.750168,138.045181 
	C233.091385,131.707352 238.644592,123.210541 237.202667,115.871536 
	C237.090652,115.301445 238.843521,114.196968 239.878464,113.597961 
	C244.915817,110.682411 250.003830,107.854401 255.729050,104.625992 
	C256.139496,121.080383 256.587769,138.159012 256.975403,155.239014 
	C257.068420,159.336685 257.360413,163.257767 261.802032,165.715088 
	C245.979111,166.000000 229.958206,166.000000 213.468658,166.000000 
z" />
	<path fill="#5A6D73" opacity="1.000000" stroke="none" d="
M288.657471,116.503113 
	C288.588165,126.373238 288.518890,136.243362 288.069214,146.636597 
	C287.448212,147.471176 287.207581,147.782639 286.966949,148.094116 
	C281.968506,148.167191 276.970093,148.240265 271.416321,148.040955 
	C270.556946,147.896591 270.252960,148.024628 269.948975,148.152664 
	C269.652130,146.117538 269.495880,144.048599 269.016937,142.057281 
	C268.582092,140.249283 267.796082,138.525742 267.121887,135.946503 
	C266.948669,132.333130 266.818451,129.538254 266.688232,126.743370 
	C266.242188,126.746239 265.796173,126.749115 265.350128,126.751991 
	C265.215118,127.504875 265.080109,128.257767 264.583435,129.008408 
	C263.498566,129.005966 262.775360,129.005768 262.052155,129.005585 
	C261.135956,121.943153 259.758331,114.900360 259.456635,107.811775 
	C259.234467,102.592690 260.415466,97.313354 260.984619,92.062325 
	C261.019775,91.737846 261.070587,91.272018 261.284821,91.130569 
	C270.195770,85.248474 264.470276,76.694382 265.226776,69.350426 
	C265.836060,63.435543 266.056702,57.481564 266.543152,51.552593 
	C266.719788,49.399410 268.135651,47.462833 264.879944,45.781464 
	C262.320129,44.459480 263.607086,37.772186 266.581207,36.495831 
	C270.664551,34.743477 274.909607,33.035488 279.245056,32.403297 
	C280.568268,32.210346 283.014008,35.383102 283.843842,37.455624 
	C284.558502,39.240536 283.705627,41.653080 283.476898,44.708656 
	C287.842316,44.708656 292.190125,44.102478 296.290527,44.851227 
	C302.387604,45.964584 308.353271,47.901882 314.267029,49.820820 
	C315.353180,50.173256 316.404846,52.013332 316.658142,53.324097 
	C318.174805,61.172134 318.954285,69.198502 320.995483,76.896027 
	C322.252533,81.636299 321.932343,85.863739 321.862915,90.505119 
	C321.792053,95.245331 321.066711,99.104736 319.276855,103.141922 
	C319.041138,103.673683 318.398071,104.024864 317.856873,104.542694 
	C315.832672,101.305832 313.932404,98.267143 311.898132,95.014221 
	C306.565552,101.604118 311.762085,107.398300 311.893311,113.770439 
	C311.513855,114.310982 311.416901,114.423294 311.319916,114.535614 
	C311.551147,114.645393 311.782410,114.755180 312.013641,114.864967 
	C314.958710,124.295990 318.032654,133.690002 320.758942,143.183853 
	C321.447021,145.579987 320.441284,147.883820 317.239075,147.935806 
	C311.463470,148.029556 305.677948,148.274185 299.919617,147.989639 
	C298.834930,147.936050 297.304169,145.862503 296.920532,144.463013 
	C294.426025,135.362839 292.191589,126.191368 289.857452,116.330048 
	C289.483032,115.272514 289.123138,114.928177 288.763306,114.583832 
	C288.728027,115.223595 288.692749,115.863350 288.657471,116.503113 
M290.476135,93.032127 
	C294.916046,84.250023 293.768555,56.940567 287.623657,53.685143 
	C288.341095,67.164673 289.021820,79.954361 290.476135,93.032127 
M287.586304,112.517853 
	C287.586304,112.517853 287.475403,112.584633 287.586304,112.517853 
z" />
	<path fill="#5A6E73" opacity="1.000000" stroke="none" d="
M232.285583,111.107483 
	C232.292358,121.258583 232.477890,131.415649 232.139267,141.555222 
	C232.079132,143.355789 230.175613,146.106506 228.539948,146.644348 
	C224.394363,148.007492 219.853287,148.120209 215.605072,149.242615 
	C213.933853,149.684174 212.279465,151.246353 211.257874,152.737122 
	C210.512695,153.824493 211.059097,155.716400 210.573944,157.088516 
	C210.200012,158.146042 209.117599,158.953064 208.350189,159.871475 
	C207.417297,158.910370 205.778549,158.025406 205.665329,156.975876 
	C204.892685,149.812851 204.066940,142.620743 203.961044,135.427673 
	C203.720825,119.111702 203.863739,102.789719 203.892410,86.470253 
	C203.920944,70.221634 204.080261,53.972706 204.000244,37.724808 
	C203.980545,33.725910 205.392853,32.685070 209.354630,32.863670 
	C217.623901,33.236458 225.921692,32.976517 234.017715,32.433636 
	C235.790436,32.158989 237.563156,31.884338 239.786713,32.115814 
	C241.415009,33.773563 242.504349,35.049686 243.831818,35.989426 
	C244.164322,36.224808 245.262360,35.378784 246.008560,35.029770 
	C251.525467,33.755787 250.371078,38.466293 250.724197,40.927608 
	C251.152252,43.911221 251.572464,45.643242 255.258499,44.238659 
	C258.538818,59.353462 259.935211,74.514778 256.331787,89.518951 
	C253.513611,101.253418 246.280884,109.226273 232.564911,109.962723 
	C231.877075,110.269455 231.754990,110.369713 231.632904,110.469986 
	C231.850464,110.682480 232.068024,110.894981 232.285583,111.107483 
M232.275970,92.516609 
	C232.928589,91.404510 234.123459,90.305695 234.151062,89.178284 
	C234.475510,75.930191 234.662933,62.678074 234.751434,49.426105 
	C234.758850,48.314663 233.790970,47.196712 233.276199,46.081783 
	C232.864929,46.217136 232.453674,46.352486 232.042419,46.487839 
	C232.042419,61.564030 232.042419,76.640221 232.275970,92.516609 
M249.531342,71.459770 
	C249.041992,70.782448 248.552643,70.105118 247.810272,69.077576 
	C247.810272,74.685463 247.810272,79.621338 247.810272,84.557220 
	C248.235153,84.549141 248.660019,84.541069 249.084900,84.532990 
	C249.335236,80.431442 249.585571,76.329895 249.531342,71.459770 
z" />
	<path fill="#596C72" opacity="1.000000" stroke="none" d="
M125.922813,45.976952 
	C132.742584,45.526176 139.562347,45.075401 147.105911,44.576790 
	C147.105911,61.255371 147.105911,77.159813 147.079224,93.973732 
	C147.096466,97.592674 147.140396,100.302147 147.184311,103.011612 
	C147.089874,108.372139 146.995438,113.732666 146.446442,119.665634 
	C145.661499,121.769653 145.064697,123.297928 145.045593,124.833382 
	C144.949005,132.597107 145.002701,140.362686 145.003708,148.127625 
	C138.557419,148.127625 132.111130,148.127625 124.705055,148.127625 
	C123.754974,137.656906 122.818436,127.335533 121.929428,116.127846 
	C121.681366,111.866531 121.385796,108.491531 121.090218,105.116531 
	C120.710342,105.140045 120.330460,105.163551 119.950584,105.187057 
	C120.113403,108.883011 120.276230,112.578972 120.439056,116.274925 
	C120.371193,126.200119 120.303329,136.125320 119.918381,146.624161 
	C119.397469,147.476517 119.193649,147.755219 118.989838,148.033920 
	C112.980499,148.105484 106.971169,148.177032 100.392120,147.941650 
	C99.552032,147.424225 99.281662,147.213760 99.011292,147.003281 
	C99.058746,119.632431 99.106201,92.261574 99.469894,64.408615 
	C99.998848,63.785389 100.211578,63.644276 100.424301,63.503162 
	C100.077995,63.343761 99.731682,63.184361 99.385376,63.024960 
	C99.336952,57.980412 99.288528,52.935860 99.609650,47.388535 
	C100.346870,46.517063 100.714561,46.148365 101.082260,45.779663 
	C106.716461,45.700039 112.350670,45.620411 118.534897,45.838272 
	C119.408218,46.034927 119.731506,45.934093 120.054802,45.833260 
	C121.360817,52.918793 122.666824,60.004330 124.001717,67.853134 
	C124.030602,71.567154 124.030602,74.517906 124.030602,77.468658 
	C124.538597,77.435432 125.046593,77.402199 125.554588,77.368973 
	C125.554588,74.154114 125.554588,70.939255 125.554588,67.724396 
	C125.609940,61.128944 125.665283,54.533489 125.989471,47.396389 
	C126.335815,46.743153 126.500893,46.561562 126.476700,46.531296 
	C126.314568,46.328529 126.112160,46.157963 125.922813,45.976952 
z" />
	<path fill="#596D73" opacity="1.000000" stroke="none" d="
M380.018585,146.933289 
	C373.575897,146.933289 367.133209,146.933289 360.054260,146.933289 
	C360.054260,132.905685 360.054260,118.912712 360.514832,104.346008 
	C361.316528,101.402214 361.593597,99.020645 362.016479,96.665260 
	C362.460541,94.192108 360.195557,90.385849 365.174988,89.957390 
	C365.295868,89.946991 365.503967,87.617355 365.291016,87.548660 
	C360.373627,85.962547 362.491608,81.857018 361.984497,78.697968 
	C361.517639,75.790054 360.930634,72.901436 360.396606,70.004318 
	C360.340820,69.556236 360.285034,69.108154 360.633179,68.240540 
	C361.527832,66.542168 362.431519,65.264641 362.435608,63.984226 
	C362.450928,59.221176 362.048828,54.456223 362.086304,49.694210 
	C362.095734,48.496136 363.098785,46.309021 363.745361,46.270786 
	C368.843811,45.969318 373.988953,45.813801 379.066589,46.242580 
	C380.386353,46.354031 381.518646,48.685669 382.737000,49.997559 
	C383.491608,55.035473 384.246185,60.073383 385.032166,65.929405 
	C384.999634,67.852295 384.935669,68.957062 384.613983,70.322769 
	C384.674774,71.986610 384.993286,73.389519 385.311798,74.792419 
	C386.054962,74.615204 387.448151,74.405426 387.441162,74.265808 
	C387.367767,72.800827 387.070343,71.347069 386.867798,69.484299 
	C386.798340,68.004562 386.695984,66.930748 386.593628,65.856926 
	C386.667633,59.214737 386.741638,52.572544 387.117126,45.366226 
	C387.695160,44.613224 387.885101,44.359520 387.988464,44.040993 
	C394.026337,44.006866 400.064178,43.972740 406.692413,44.234970 
	C407.514862,44.782322 407.795929,44.952415 408.125946,45.041599 
	C408.137390,60.730206 408.148804,76.418808 408.142029,92.930801 
	C408.418610,94.846573 408.713440,95.938965 409.010925,97.238037 
	C409.013580,97.444710 409.032135,97.857697 408.681396,98.118034 
	C408.230133,104.027184 408.356140,109.692429 407.948303,115.318962 
	C407.682587,118.984230 408.508484,121.739105 411.792023,123.554474 
	C412.536774,128.545227 414.916748,133.492386 409.094452,137.731277 
	C407.327850,139.017456 407.934387,143.563232 407.412750,146.877716 
	C400.504333,146.877716 393.622620,146.877716 385.847656,146.877716 
	C384.905609,137.219574 383.965454,127.580811 383.004761,117.053513 
	C382.857483,112.092972 382.730713,108.020950 382.603973,103.948936 
	C381.975677,103.986809 381.347412,104.024681 380.719147,104.062553 
	C381.078125,108.352585 381.437103,112.642616 381.796082,116.932648 
	C381.642426,126.303261 381.488770,135.673874 381.006531,145.597183 
	C380.458160,146.411026 380.238373,146.672165 380.018585,146.933289 
z" />
	<path fill="#5A6E73" opacity="1.000000" stroke="none" d="
M14.927521,88.131981 
	C14.954405,84.837555 14.638543,81.494225 15.099759,78.261772 
	C15.612119,74.670891 17.426649,71.211754 17.611027,67.640373 
	C17.912054,61.809441 17.355257,55.933887 17.148983,50.077560 
	C17.126316,49.434036 17.029114,48.793140 17.285414,47.608139 
	C17.637688,46.724400 17.671030,46.383541 17.704372,46.042686 
	C17.598522,43.165470 17.019144,40.203957 17.512367,37.433388 
	C18.069431,34.304199 20.186747,32.569527 23.908337,34.967674 
	C24.731245,35.364525 25.286615,35.155766 25.841986,34.947006 
	C30.494799,35.326233 35.144291,35.762711 39.803436,36.032677 
	C40.656834,36.082127 41.549473,35.454422 42.860718,35.288738 
	C43.367378,35.703773 43.437317,35.969364 43.507256,36.234951 
	C43.866589,35.912731 44.225925,35.590508 44.585258,35.268288 
	C45.332817,35.320671 46.080379,35.373058 46.847664,35.787109 
	C46.867393,36.148777 46.855747,36.305546 46.855747,36.305546 
	C46.855747,36.305546 46.936008,35.956593 46.936008,35.956596 
	C50.170731,36.091137 53.422546,36.496735 56.635998,36.294048 
	C61.003025,36.018608 59.973705,39.027912 59.978554,41.318077 
	C59.987759,45.665619 60.726288,50.305786 59.461056,54.283398 
	C58.050098,58.719143 62.260818,64.318398 56.580978,67.662292 
	C57.708893,72.108452 58.217815,76.859169 60.198887,80.885551 
	C61.371017,83.267838 63.081287,89.152107 60.603867,90.188675 
	C59.556770,90.626785 57.455990,88.546532 56.125046,87.778763 
	C56.125046,92.400589 56.164379,98.097908 56.115574,103.794479 
	C56.047146,111.781631 50.228733,116.220627 42.233620,114.478722 
	C40.989464,114.207649 39.709244,114.102135 37.559528,113.792366 
	C37.559528,129.751785 37.559528,145.220367 37.559528,160.688950 
	C36.890720,160.732697 36.221916,160.776443 35.553108,160.820190 
	C35.225441,156.978424 34.897770,153.136658 34.550259,149.062210 
	C29.011957,149.062210 23.402164,149.062210 16.948460,149.062210 
	C16.497856,139.677383 16.055891,130.466690 15.613016,121.256035 
	C15.558070,120.113297 15.607210,118.952660 15.420708,117.831497 
	C14.815213,114.191582 14.451226,110.905319 15.737140,106.979187 
	C17.140440,102.694633 16.051786,97.593903 16.367676,92.283005 
	C16.099821,90.522034 15.513670,89.327011 14.927521,88.131981 
M39.619766,69.052696 
	C38.728931,71.170319 37.406464,73.214485 37.031208,75.419838 
	C36.051666,81.176582 42.294998,81.432701 44.246948,84.556763 
	C47.896126,83.802475 51.245480,83.110161 54.362156,82.465942 
	C53.504238,77.567055 52.643867,72.654152 51.597214,66.677528 
	C48.230923,67.335175 44.321648,68.098907 39.619766,69.052696 
z" />
	<path fill="#5B6E74" opacity="1.000000" stroke="none" d="
M148.818329,94.652870 
	C150.841858,94.652870 152.865372,94.652870 154.297653,94.652870 
	C154.297653,82.554192 154.278946,69.382759 154.314453,56.211475 
	C154.321045,53.765343 153.989624,51.090813 154.868576,48.955730 
	C155.439865,47.567966 157.846954,46.365978 159.564346,46.153404 
	C162.148895,45.833504 164.865692,46.335461 167.497498,46.697304 
	C172.411880,47.372978 177.285751,48.455593 182.217606,48.836685 
	C184.199493,48.989830 186.342499,47.875168 188.319901,47.101624 
	C192.665634,45.401585 193.558044,48.229671 194.068146,51.418217 
	C194.329041,53.049072 194.414825,54.761673 194.236099,56.399834 
	C193.463715,63.479115 192.564362,70.544533 191.772491,77.107025 
	C189.135406,76.784981 186.482224,76.460968 183.156708,76.176804 
	C182.079132,76.338280 181.953323,76.596237 182.106979,76.990524 
	C180.846146,76.642487 179.585327,76.294441 177.844391,75.813873 
	C177.844391,79.123779 177.844391,82.028259 177.844391,83.811806 
	C183.254166,85.125069 187.718857,86.208908 193.034515,87.499321 
	C193.034515,89.162506 192.818100,91.118431 193.079956,93.008072 
	C193.610947,96.839851 194.638641,100.613144 195.003906,104.454086 
	C195.266098,107.211189 194.987366,110.073914 194.512314,112.813629 
	C194.371628,113.625053 192.740097,114.759438 191.799271,114.752274 
	C187.168060,114.717079 182.539383,114.347694 177.157059,114.106201 
	C176.197006,114.415573 175.989731,114.715012 175.782440,115.014450 
	C175.531158,116.969299 174.691132,119.099045 175.204391,120.826759 
	C175.661057,122.363945 177.452606,124.293602 178.942184,124.585739 
	C183.269028,125.434326 187.737961,125.572990 192.155319,125.940056 
	C194.883743,126.166771 196.308395,127.260323 196.155884,130.321259 
	C195.932953,134.795776 196.299042,139.301743 196.031586,143.771408 
	C195.718796,148.998459 192.179398,150.960205 187.342087,149.359039 
	C184.043732,148.267303 180.537354,147.219772 177.118607,147.202194 
	C170.731094,147.169327 164.342789,147.993210 157.946335,148.207474 
	C157.036102,148.237976 155.298981,146.879776 155.271622,146.116699 
	C155.115967,141.777451 155.644897,137.406860 155.384979,133.080307 
	C155.175369,129.591110 154.266495,126.129395 153.490509,122.695557 
	C153.155380,121.212502 151.707993,119.727402 151.910339,118.420433 
	C152.757416,112.949303 150.233063,108.323593 148.436401,102.741501 
	C148.366287,99.585381 148.592316,97.119125 148.818329,94.652870 
M189.295410,48.459709 
	C189.295410,48.459709 189.494614,48.546192 189.494614,48.546192 
	C189.494614,48.546192 189.450424,48.369976 189.295410,48.459709 
z" />
	<path fill="#5A6D73" opacity="1.000000" stroke="none" d="
M452.199341,77.982765 
	C452.117493,92.591110 452.125702,107.200729 451.919037,121.807304 
	C451.800812,130.162827 451.333008,138.513412 451.009369,147.222168 
	C442.913422,147.222168 435.449066,147.103973 427.990967,147.269058 
	C423.896667,147.359695 423.935608,144.547989 423.885925,141.925247 
	C423.763855,135.481720 423.846008,129.034332 423.846008,122.751389 
	C420.202209,122.171806 417.030212,121.667259 413.450134,120.627556 
	C413.196320,118.061333 413.350555,116.030273 413.722900,113.956940 
	C414.355225,113.246834 414.769470,112.579002 415.183716,111.911171 
	C417.891510,111.209343 420.599335,110.507515 423.335480,109.798332 
	C423.335480,98.927811 423.335480,88.331062 423.335480,76.975693 
	C421.007111,77.463707 419.204895,77.841438 416.332550,78.443466 
	C415.868774,76.587189 414.916443,74.301392 414.785004,71.969330 
	C414.356415,64.366089 414.218353,56.746231 413.987854,49.132179 
	C413.895935,46.095772 414.585571,44.111675 418.342346,45.574337 
	C419.504333,46.026741 420.946625,45.894909 422.249939,45.826759 
	C431.966370,45.318684 441.676849,44.683605 451.396912,44.269436 
	C453.826782,44.165905 456.284760,44.721966 458.907440,44.993248 
	C458.907440,55.571236 458.907440,66.010872 458.907440,76.843536 
	C457.067474,76.956367 455.469208,77.054382 453.187988,77.148506 
	C452.178070,77.341843 452.076141,77.621223 452.199341,77.982765 
z" />
	<path fill="#5A6E73" opacity="1.000000" stroke="none" d="
M353.123840,71.039658 
	C353.154144,82.513519 353.216644,93.987419 353.206055,105.461243 
	C353.194702,117.758888 353.113861,130.056473 353.065369,142.354080 
	C353.058960,143.976547 353.064514,145.599030 353.064514,147.864120 
	C345.653046,147.864120 338.700378,148.091568 331.788239,147.663818 
	C330.474762,147.582535 328.286774,144.930695 328.252350,143.424881 
	C327.833557,125.104851 327.750305,106.777237 327.560394,88.451805 
	C327.516113,84.177940 327.341339,79.905045 327.326111,75.631348 
	C327.290314,65.582191 327.314636,55.532829 327.314636,44.784256 
	C330.867462,44.784256 333.473389,44.784256 336.945099,44.797085 
	C339.217987,44.731174 340.625031,44.652431 342.032104,44.573692 
	C345.772614,44.573692 349.513153,44.573692 353.207062,44.573692 
	C353.207062,53.311691 353.207062,61.194679 352.939789,69.643539 
	C352.822968,70.486168 352.973419,70.762909 353.123840,71.039658 
z" />
	<path fill="#596D73" opacity="1.000000" stroke="none" d="
M65.959564,132.018585 
	C66.077194,118.101181 66.207626,104.183861 66.304794,90.266312 
	C66.334579,86.000328 66.259766,81.733719 66.256302,77.467384 
	C66.248001,67.241745 66.253616,57.016090 66.253616,46.774349 
	C70.171364,46.079491 73.339417,45.517601 76.702667,44.479088 
	C76.897858,44.002460 76.838562,43.994347 76.838562,43.994347 
	C78.692856,44.615887 80.512543,45.593838 82.409309,45.778049 
	C85.496956,46.077911 88.634979,45.858959 91.966827,45.858959 
	C91.966827,80.360321 91.966827,114.305870 91.966827,148.935944 
	C84.492165,148.935944 77.403183,149.075333 70.330750,148.795975 
	C69.179222,148.750473 68.100853,146.852905 66.944939,145.162445 
	C66.869232,144.338837 66.837265,144.164185 66.805290,143.989517 
	C66.944824,142.501923 67.084366,141.014328 67.156563,138.874680 
	C65.976959,136.288574 70.472954,133.333344 65.959564,132.018585 
z" />
	<path fill="#5B6E74" opacity="1.000000" stroke="none" d="
M337.305176,43.375244 
	C328.941193,35.268887 328.651154,25.406693 331.151672,14.954643 
	C332.291565,10.189927 334.987366,6.820456 340.052704,6.116177 
	C343.631531,5.618578 349.164337,9.299594 349.670929,14.063103 
	C350.443359,21.325550 350.228271,28.854305 349.130859,36.072060 
	C348.713135,38.819218 344.697205,41.019279 341.775879,43.696190 
	C339.922119,43.740875 338.613647,43.558060 337.305176,43.375244 
z" />
	<path fill="#5A6E73" opacity="1.000000" stroke="none" d="
M77.320091,43.960014 
	C76.838562,43.994347 76.897858,44.002460 76.923965,44.006561 
	C68.991646,39.493797 68.717773,31.790060 68.867973,24.044216 
	C68.921906,21.263514 69.525002,18.449375 70.210678,15.734656 
	C71.445427,10.846008 75.458923,7.218599 79.335182,7.155363 
	C82.991119,7.095722 88.279884,11.280193 88.877907,16.084347 
	C89.624825,22.084667 89.835960,28.317183 89.072853,34.295567 
	C88.232071,40.882553 84.568550,43.381226 77.320091,43.960014 
z" />
	<path fill="#5B6E74" opacity="1.000000" stroke="none" d="
M458.635254,131.819916 
	C458.755951,127.531761 458.476135,123.659035 459.080475,119.929573 
	C459.847595,115.195618 461.332214,110.577934 462.564606,105.683044 
	C469.884308,109.579010 472.895996,120.522606 469.636780,127.355591 
	C467.813049,131.179108 466.747986,135.364471 465.245758,139.659271 
	C463.977783,139.757202 462.252106,139.890488 459.876068,140.073990 
	C459.446289,137.397705 459.036865,134.848358 458.635254,131.819916 
z" />
	<path fill="#5B6E74" opacity="1.000000" stroke="none" d="
M415.135010,111.522926 
	C414.769470,112.579002 414.355225,113.246834 413.571167,113.646729 
	C412.777618,111.823593 412.348358,110.269867 411.931152,108.712921 
	C410.961700,105.095337 409.998108,101.476204 409.032135,97.857697 
	C409.032135,97.857697 409.013580,97.444710 409.033142,96.915970 
	C409.374420,95.593285 409.696167,94.799332 410.017883,94.005371 
	C414.072540,92.328827 416.717651,93.452133 416.744965,97.650627 
	C416.774200,102.141525 415.686493,106.639694 415.135010,111.522926 
z" />
	<path fill="#5B6E74" opacity="1.000000" stroke="none" d="
M240.949036,140.361816 
	C242.419632,139.966995 243.840591,139.966995 245.616806,139.966995 
	C245.811661,141.259186 245.988419,142.431396 246.437805,143.886414 
	C246.901566,145.965973 247.507050,147.843277 247.177353,149.538727 
	C246.778717,151.588699 245.944916,153.824768 244.561035,155.276291 
	C244.024094,155.839432 240.690445,154.965942 240.012344,153.882370 
	C238.940216,152.169144 238.564392,149.684555 238.755615,147.605682 
	C238.969879,145.276642 240.143311,143.035828 240.949036,140.361816 
z" />
	<path fill="#5B6E74" opacity="1.000000" stroke="none" d="
M382.772583,49.602509 
	C381.518646,48.685669 380.386353,46.354031 379.066589,46.242580 
	C373.988953,45.813801 368.843811,45.969318 363.745361,46.270786 
	C363.098785,46.309021 362.095734,48.496136 362.086304,49.694210 
	C362.048828,54.456223 362.450928,59.221176 362.435608,63.984226 
	C362.431519,65.264641 361.527832,66.542168 360.716675,67.909637 
	C360.349701,61.058529 360.184418,54.115353 360.386139,47.182854 
	C360.415955,46.158661 362.145996,44.366493 363.150970,44.322052 
	C369.238708,44.052830 375.344299,44.187950 381.675812,44.187950 
	C382.092438,46.034920 382.450287,47.621193 382.772583,49.602509 
z" />
	<path fill="#FFFFFF" opacity="1.000000" stroke="none" d="
M408.681396,98.118034 
	C409.998108,101.476204 410.961700,105.095337 411.931152,108.712921 
	C412.348358,110.269867 412.777618,111.823593 413.353088,113.688995 
	C413.350555,116.030273 413.196320,118.061333 413.044159,120.533661 
	C412.674438,121.586411 412.302612,122.197899 411.861389,123.181931 
	C408.508484,121.739105 407.682587,118.984230 407.948303,115.318962 
	C408.356140,109.692429 408.230133,104.027184 408.681396,98.118034 
z" />
	<path fill="#385266" opacity="1.000000" stroke="none" d="
M197.954559,88.195206 
	C196.703629,85.958809 195.437927,84.109756 194.276215,82.412590 
	C200.272537,76.058273 194.502258,67.135834 199.140869,59.806812 
	C199.140869,73.409035 199.140869,86.692665 199.140869,99.976288 
	C198.740509,99.986496 198.340164,99.996696 197.939804,100.006897 
	C197.939804,96.198784 197.939804,92.390671 197.954559,88.195206 
z" />
	<path fill="#5B6E74" opacity="1.000000" stroke="none" d="
M360.298218,70.463272 
	C360.930634,72.901436 361.517639,75.790054 361.984497,78.697968 
	C362.491608,81.857018 360.373627,85.962547 365.291016,87.548660 
	C365.503967,87.617355 365.295868,89.946991 365.174988,89.957390 
	C360.195557,90.385849 362.460541,94.192108 362.016479,96.665260 
	C361.593597,99.020645 361.316528,101.402214 360.601105,103.884399 
	C360.217834,92.971756 360.208832,81.946991 360.298218,70.463272 
z" />
	<path fill="#4E646B" opacity="1.000000" stroke="none" d="
M261.990906,129.470490 
	C262.775360,129.005768 263.498566,129.005966 264.603363,129.396667 
	C265.146423,131.694061 265.307892,133.600967 265.469360,135.507874 
	C265.459625,135.698410 265.449921,135.888931 265.140198,136.533264 
	C264.912415,138.656677 264.984619,140.326294 265.056824,141.995895 
	C265.063202,144.044159 265.069580,146.092422 264.723694,148.766083 
	C264.308838,150.930496 264.246216,152.469543 264.183624,154.008575 
	C264.060028,156.262711 263.936462,158.516830 263.812866,160.770966 
	C263.333984,160.782471 262.855103,160.793976 262.376221,160.805481 
	C261.182678,150.568420 262.072632,140.225739 261.990906,129.470490 
z" />
	<path fill="#385266" opacity="1.000000" stroke="none" d="
M317.917542,116.120331 
	C317.298492,113.703712 316.773621,111.679398 316.179321,109.387238 
	C318.186768,109.123543 319.793579,108.912476 321.703461,108.661591 
	C321.703461,114.837135 321.703461,120.885155 321.703461,126.933182 
	C321.549438,126.994804 321.395386,127.056435 321.241364,127.118057 
	C320.164825,123.582916 319.088287,120.047783 317.917542,116.120331 
z" />
	<path fill="#5B6E74" opacity="1.000000" stroke="none" d="
M145.429092,148.100586 
	C145.002701,140.362686 144.949005,132.597107 145.045593,124.833382 
	C145.064697,123.297928 145.661499,121.769653 146.364044,120.120682 
	C146.775604,128.516357 146.843384,137.029510 146.810257,145.542297 
	C146.806961,146.387268 146.187805,147.229858 145.429092,148.100586 
z" />
	<path fill="#385266" opacity="1.000000" stroke="none" d="
M195.684509,122.026398 
	C190.188263,121.147110 185.086990,120.354347 179.816498,119.535294 
	C185.942871,116.884506 193.181335,123.786858 198.663345,116.637375 
	C197.460526,118.489113 202.200119,122.788391 195.684509,122.026398 
z" />
	<path fill="#385266" opacity="1.000000" stroke="none" d="
M415.163086,88.577354 
	C414.044647,86.789856 413.247070,85.191269 412.030212,82.752396 
	C414.903717,82.954597 416.611450,83.074768 418.647003,83.218010 
	C418.647003,85.676643 418.647003,87.892876 418.647003,90.367317 
	C417.491058,89.782211 416.487488,89.274239 415.163086,88.577354 
z" />
	<path fill="#FFFFFF" opacity="1.000000" stroke="none" d="
M382.076599,116.978806 
	C381.437103,112.642616 381.078125,108.352585 380.719147,104.062553 
	C381.347412,104.024681 381.975677,103.986809 382.603973,103.948936 
	C382.730713,108.020950 382.857483,112.092972 382.952576,116.631592 
	C382.733002,117.073799 382.545074,117.049385 382.076599,116.978806 
z" />
	<path fill="#FFFFFF" opacity="1.000000" stroke="none" d="
M246.002594,34.660011 
	C245.262360,35.378784 244.164322,36.224808 243.831818,35.989426 
	C242.504349,35.049686 241.415009,33.773563 240.118439,32.311165 
	C242.832779,30.578527 245.108597,30.617090 246.002594,34.660011 
z" />
	<path fill="#FFFFFF" opacity="1.000000" stroke="none" d="
M125.316391,67.774841 
	C125.554588,70.939255 125.554588,74.154114 125.554588,77.368973 
	C125.046593,77.402199 124.538597,77.435432 124.030602,77.468658 
	C124.030602,74.517906 124.030602,71.567154 124.070648,68.261963 
	C124.438843,67.946411 124.761337,67.918999 125.316391,67.774841 
z" />
	<path fill="#FFFFFF" opacity="1.000000" stroke="none" d="
M120.668541,116.237167 
	C120.276230,112.578972 120.113403,108.883011 119.950584,105.187057 
	C120.330460,105.163551 120.710342,105.140045 121.090218,105.116531 
	C121.385796,108.491531 121.681366,111.866531 121.900116,115.689255 
	C121.823296,116.136993 121.357712,116.124550 121.357712,116.124550 
	C121.357712,116.124550 120.898033,116.199402 120.668541,116.237167 
z" />
	<path fill="#FFFFFF" opacity="1.000000" stroke="none" d="
M265.838318,135.668518 
	C265.307892,133.600967 265.146423,131.694061 264.965027,129.398895 
	C265.080109,128.257767 265.215118,127.504875 265.350128,126.751991 
	C265.796173,126.749115 266.242188,126.746239 266.688232,126.743370 
	C266.818451,129.538254 266.948669,132.333130 267.035583,135.567429 
	C266.730591,135.947617 266.468933,135.888382 265.838318,135.668518 
z" />
	<path fill="#FFFFFF" opacity="1.000000" stroke="none" d="
M65.683304,132.281174 
	C70.472954,133.333344 65.976959,136.288574 67.022430,138.612244 
	C66.439453,136.849167 65.923256,134.696472 65.683304,132.281174 
z" />
	<path fill="#FFFFFF" opacity="1.000000" stroke="none" d="
M42.559441,143.020569 
	C42.955074,144.395004 42.967525,145.776871 42.961330,147.572815 
	C41.980595,147.367737 41.018501,146.748596 40.056404,146.129456 
	C40.763023,145.095642 41.469639,144.061844 42.559441,143.020569 
z" />
	<path fill="#FFFFFF" opacity="1.000000" stroke="none" d="
M14.792019,88.434464 
	C15.513670,89.327011 16.099821,90.522034 16.348774,91.859787 
	C15.559892,90.913994 15.108205,89.825470 14.792019,88.434464 
z" />
	<path fill="#FFFFFF" opacity="1.000000" stroke="none" d="
M264.523254,153.930084 
	C264.246216,152.469543 264.308838,150.930496 264.709106,149.204956 
	C264.985474,150.629486 264.924164,152.240540 264.523254,153.930084 
z" />
	<path fill="#FFFFFF" opacity="1.000000" stroke="none" d="
M265.343811,141.725250 
	C264.984619,140.326294 264.912415,138.656677 265.143616,136.819427 
	C265.508331,138.252716 265.569580,139.853668 265.343811,141.725250 
z" />
	<path fill="#FFFFFF" opacity="1.000000" stroke="none" d="
M148.441040,94.438416 
	C148.592316,97.119125 148.366287,99.585381 148.159058,102.488419 
	C148.177841,102.925209 147.682175,102.981842 147.433243,102.996727 
	C147.140396,100.302147 147.096466,97.592674 147.139832,94.438049 
	C147.506012,94.069916 147.784882,94.146942 148.441040,94.438416 
z" />
	<path fill="#FFFFFF" opacity="1.000000" stroke="none" d="
M386.357422,65.868187 
	C386.695984,66.930748 386.798340,68.004562 386.650330,69.584229 
	C385.890503,70.080666 385.381104,70.071251 384.871674,70.061829 
	C384.935669,68.957062 384.999634,67.852295 385.119934,66.335724 
	C385.492310,65.930771 385.807281,65.915939 386.357422,65.868187 
z" />
	<path fill="#FFFFFF" opacity="1.000000" stroke="none" d="
M207.762451,164.266205 
	C207.498596,163.735794 207.487747,163.157288 207.542770,162.585129 
	C207.545898,162.552750 208.089905,162.572418 208.382172,162.567871 
	C208.264694,163.118408 208.147202,163.668961 207.762451,164.266205 
z" />
	<path fill="#FFFFFF" opacity="1.000000" stroke="none" d="
M337.203705,43.680431 
	C338.613647,43.558060 339.922119,43.740875 341.629211,43.999813 
	C342.027802,44.075939 342.037506,44.325001 342.034790,44.449345 
	C340.625031,44.652431 339.217987,44.731174 337.396545,44.713730 
	C337.022186,44.406902 337.062225,44.196262 337.203705,43.680431 
z" />
	<path fill="#FFFFFF" opacity="1.000000" stroke="none" d="
M409.787292,93.916969 
	C409.696167,94.799332 409.374420,95.593285 409.030457,96.709297 
	C408.713440,95.938965 408.418610,94.846573 408.215271,93.396072 
	C408.723419,93.301498 409.140045,93.565033 409.787292,93.916969 
z" />
	<path fill="#FFFFFF" opacity="1.000000" stroke="none" d="
M288.834778,116.447632 
	C288.692749,115.863350 288.728027,115.223595 288.763306,114.583832 
	C289.123138,114.928177 289.483032,115.272514 289.796143,115.950012 
	C289.495972,116.267891 289.250183,116.304222 288.834778,116.447632 
z" />
	<path fill="#FFFFFF" opacity="1.000000" stroke="none" d="
M66.551193,144.022827 
	C66.837265,144.164185 66.869232,144.338837 66.865463,144.777435 
	C66.305786,145.004379 65.781860,144.967361 65.257935,144.930344 
	C65.604324,144.638947 65.950714,144.347549 66.551193,144.022827 
z" />
	<path fill="#385266" opacity="1.000000" stroke="none" d="
M232.993088,150.993301 
	C233.111313,150.547287 233.235275,150.106934 233.359253,149.666565 
	C233.383438,150.030869 233.407639,150.395172 233.220551,150.882996 
	C233.009262,151.006500 232.998825,150.998947 232.993088,150.993301 
z" />
	<path fill="#FFFFFF" opacity="1.000000" stroke="none" d="
M25.557247,34.960205 
	C25.286615,35.155766 24.731245,35.364525 24.154591,35.280899 
	C24.513041,34.983479 24.892775,34.978443 25.557247,34.960205 
z" />
	<path fill="#FFFFFF" opacity="1.000000" stroke="none" d="
M44.247513,35.168224 
	C44.225925,35.590508 43.866589,35.912731 43.507256,36.234951 
	C43.437317,35.969364 43.367378,35.703773 43.257965,35.185211 
	C43.448917,34.977543 43.679340,35.022850 44.247513,35.168224 
z" />
	<path fill="#4E646B" opacity="1.000000" stroke="none" d="
M100.773956,45.743980 
	C100.714561,46.148365 100.346870,46.517063 99.710464,46.930710 
	C99.783051,46.553207 100.124344,46.130753 100.773956,45.743980 
z" />
	<path fill="#4E646B" opacity="1.000000" stroke="none" d="
M99.323807,63.261765 
	C99.731682,63.184361 100.077995,63.343761 100.424301,63.503162 
	C100.211578,63.644276 99.998848,63.785389 99.580307,63.950684 
	C99.374496,63.974865 99.262230,63.498566 99.323807,63.261765 
z" />
	<path fill="#4E646B" opacity="1.000000" stroke="none" d="
M387.705261,44.045662 
	C387.885101,44.359520 387.695160,44.613224 387.199829,44.903992 
	C387.128052,44.687366 387.275055,44.368847 387.705261,44.045662 
z" />
	<path fill="#FFFFFF" opacity="1.000000" stroke="none" d="
M17.527298,46.216228 
	C17.671030,46.383541 17.637688,46.724400 17.367523,47.204575 
	C17.085871,46.998669 17.159044,46.680626 17.527298,46.216228 
z" />
	<path fill="#4E646B" opacity="1.000000" stroke="none" d="
M119.773697,45.724098 
	C119.731506,45.934093 119.408218,46.034927 118.990753,45.921539 
	C119.095253,45.676521 119.293922,45.645729 119.773697,45.724098 
z" />
	<path fill="#4E646B" opacity="1.000000" stroke="none" d="
M125.855850,46.239754 
	C126.112160,46.157963 126.314568,46.328529 126.476700,46.531296 
	C126.500893,46.561562 126.335815,46.743153 126.072723,46.945358 
	C125.854393,46.858162 125.821640,46.680355 125.855850,46.239754 
z" />
	<path fill="#4E646B" opacity="1.000000" stroke="none" d="
M287.308990,148.067749 
	C287.207581,147.782639 287.448212,147.471176 287.961243,147.029724 
	C288.039459,147.280304 287.845245,147.660843 287.308990,148.067749 
z" />
	<path fill="#4E646B" opacity="1.000000" stroke="none" d="
M270.225128,148.214890 
	C270.252960,148.024628 270.556946,147.896591 270.957947,147.963593 
	C270.870422,148.198120 270.685883,148.237610 270.225128,148.214890 
z" />
	<path fill="#4E646B" opacity="1.000000" stroke="none" d="
M119.294388,148.019379 
	C119.193649,147.755219 119.397469,147.476517 119.839600,147.085938 
	C119.918251,147.317642 119.758591,147.661240 119.294388,148.019379 
z" />
	<path fill="#4E646B" opacity="1.000000" stroke="none" d="
M99.015091,147.310730 
	C99.281662,147.213760 99.552032,147.424225 99.930130,147.873215 
	C99.698204,147.947220 99.358551,147.782700 99.015091,147.310730 
z" />
	<path fill="#4E646B" opacity="1.000000" stroke="none" d="
M380.321167,146.929535 
	C380.238373,146.672165 380.458160,146.411026 380.917908,146.046295 
	C380.979889,146.270401 380.801819,146.598083 380.321167,146.929535 
z" />
	<path fill="#FFFFFF" opacity="1.000000" stroke="none" d="
M312.024445,114.691086 
	C311.782410,114.755180 311.551147,114.645393 311.319916,114.535614 
	C311.416901,114.423294 311.513855,114.310982 311.833618,114.184036 
	C312.056427,114.169411 312.035248,114.517204 312.024445,114.691086 
z" />
	<path fill="#4E646B" opacity="1.000000" stroke="none" d="
M353.163452,70.771416 
	C352.973419,70.762909 352.822968,70.486168 352.841064,70.102982 
	C353.074158,70.165436 353.138641,70.334312 353.163452,70.771416 
z" />
	<path fill="#FFFFFF" opacity="1.000000" stroke="none" d="
M182.285339,76.917221 
	C181.953323,76.596237 182.079132,76.338280 182.727570,76.245331 
	C182.859390,76.515274 182.690369,76.705246 182.285339,76.917221 
z" />
	<path fill="#FFFFFF" opacity="1.000000" stroke="none" d="
M452.364014,77.897362 
	C452.076141,77.621223 452.178070,77.341843 452.741425,77.188438 
	C452.885925,77.470306 452.736206,77.663536 452.364014,77.897362 
z" />
	<path fill="#4E646B" opacity="1.000000" stroke="none" d="
M408.096680,44.753201 
	C407.795929,44.952415 407.514862,44.782322 407.156494,44.317467 
	C407.375946,44.224010 407.721680,44.344406 408.096680,44.753201 
z" />
	<path fill="#4E646B" opacity="1.000000" stroke="none" d="
M232.363464,110.858994 
	C232.068024,110.894981 231.850464,110.682480 231.632904,110.469986 
	C231.754990,110.369713 231.877075,110.269455 232.238373,110.130058 
	C232.465515,110.264114 232.453445,110.437302 232.363464,110.858994 
z" />
	<path fill="#FFFFFF" opacity="1.000000" stroke="none" d="
M176.027557,114.939835 
	C175.989731,114.715012 176.197006,114.415573 176.691833,114.134483 
	C176.743805,114.390297 176.508224,114.627754 176.027557,114.939835 
z" />
	<path fill="#FFFFFF" opacity="1.000000" stroke="none" d="
M290.089355,92.888092 
	C289.021820,79.954361 288.341095,67.164673 287.623657,53.685143 
	C293.768555,56.940567 294.916046,84.250023 290.089355,92.888092 
z" />
	<path fill="#4E646B" opacity="1.000000" stroke="none" d="
M287.530853,112.551239 
	C287.475403,112.584633 287.586304,112.517853 287.530853,112.551239 
z" />
	<path fill="#FFFFFF" opacity="1.000000" stroke="none" d="
M232.159195,92.116516 
	C232.042419,76.640221 232.042419,61.564030 232.042419,46.487839 
	C232.453674,46.352486 232.864929,46.217136 233.276199,46.081783 
	C233.790970,47.196712 234.758850,48.314663 234.751434,49.426105 
	C234.662933,62.678074 234.475510,75.930191 234.151062,89.178284 
	C234.123459,90.305695 232.928589,91.404510 232.159195,92.116516 
z" />
	<path fill="#FFFFFF" opacity="1.000000" stroke="none" d="
M249.683624,71.844055 
	C249.585571,76.329895 249.335236,80.431442 249.084900,84.532990 
	C248.660019,84.541069 248.235153,84.549141 247.810272,84.557220 
	C247.810272,79.621338 247.810272,74.685463 247.810272,69.077576 
	C248.552643,70.105118 249.041992,70.782448 249.683624,71.844055 
z" />
	<path fill="#4E646B" opacity="1.000000" stroke="none" d="
M384.613983,70.322769 
	C385.381104,70.071251 385.890503,70.080666 386.617401,69.990143 
	C387.070343,71.347069 387.367767,72.800827 387.441162,74.265808 
	C387.448151,74.405426 386.054962,74.615204 385.311798,74.792419 
	C384.993286,73.389519 384.674774,71.986610 384.613983,70.322769 
z" />
	<path fill="#FFFFFF" opacity="1.000000" stroke="none" d="
M40.016068,68.957664 
	C44.321648,68.098907 48.230923,67.335175 51.597214,66.677528 
	C52.643867,72.654152 53.504238,77.567055 54.362156,82.465942 
	C51.245480,83.110161 47.896126,83.802475 44.246948,84.556763 
	C42.294998,81.432701 36.051666,81.176582 37.031208,75.419838 
	C37.406464,73.214485 38.728931,71.170319 40.016068,68.957664 
M41.932419,77.325104 
	C44.035309,77.946739 46.138199,78.568375 48.241089,79.190010 
	C48.578915,78.721092 48.916740,78.252182 49.254566,77.783264 
	C47.980797,76.521385 46.874237,74.610123 45.374954,74.224068 
	C44.361755,73.963173 42.795391,75.850571 41.932419,77.325104 
z" />
	<path fill="#FFFFFF" opacity="1.000000" stroke="none" d="
M46.942360,35.976505 
	C46.936008,35.956593 46.855747,36.305546 46.855747,36.305546 
	C46.855747,36.305546 46.867393,36.148777 46.926937,36.075516 
	C46.986481,36.002258 46.948715,35.996418 46.942360,35.976505 
z" />
	<path fill="#FFFFFF" opacity="1.000000" stroke="none" d="
M189.372925,48.414841 
	C189.450424,48.369976 189.494614,48.546192 189.494614,48.546192 
	C189.494614,48.546192 189.295410,48.459709 189.372925,48.414841 
z" />
	<path fill="#4E646B" opacity="1.000000" stroke="none" d="
M41.704437,77.051071 
	C42.795391,75.850571 44.361755,73.963173 45.374954,74.224068 
	C46.874237,74.610123 47.980797,76.521385 49.254566,77.783264 
	C48.916740,78.252182 48.578915,78.721092 48.241089,79.190010 
	C46.138199,78.568375 44.035309,77.946739 41.704437,77.051071 
z" />
</svg>