<svg version="1.1" id="Layer_1" xmlns="http://www.w3.org/2000/svg" xmlns:xlink="http://www.w3.org/1999/xlink" x="0px"
	y="0px" width="100%" viewBox="0 0 318 165" enable-background="new 0 0 318 165" xml:space="preserve">
	<path fill="#385266" opacity="1.000000" stroke="none" d="
M243.000000,166.000000 
	C162.000015,166.000000 81.500038,166.000000 1.000043,166.000000 
	C1.000029,111.000031 1.000029,56.000065 1.000014,1.000073 
	C106.999939,1.000048 212.999878,1.000048 318.999878,1.000024 
	C318.999908,55.999928 318.999908,110.999855 318.999939,165.999893 
	C293.833344,166.000000 268.666656,166.000000 243.000000,166.000000 
M289.806915,142.957016 
	C298.066406,145.117920 302.844421,143.043701 304.027191,137.068909 
	C304.681488,133.763596 305.929474,130.579010 306.828827,127.317650 
	C307.306610,125.584984 307.972015,123.794930 307.924744,122.047775 
	C307.799622,117.423759 307.410889,112.801659 306.979736,108.192566 
	C306.520813,103.287033 302.019684,98.710587 297.083710,99.219063 
	C294.263977,99.509537 291.662598,101.919044 289.388550,103.144966 
	C289.388550,95.838562 289.388550,87.609009 289.388550,79.469482 
	C295.668762,78.277275 295.981964,77.918694 295.991699,71.949585 
	C296.005341,63.619659 295.974243,55.289574 296.020264,46.959877 
	C296.026642,45.801712 296.363678,44.645370 296.547638,43.488186 
	C298.226715,47.138515 298.829773,50.905670 300.369995,54.239899 
	C301.260681,56.168102 303.661926,57.398502 305.383362,58.942940 
	C306.929260,57.205151 309.249451,55.708248 309.878784,53.685314 
	C311.930542,47.090343 313.396729,40.311028 315.028748,33.588200 
	C316.988159,25.516710 311.641357,19.984245 303.607147,21.622292 
	C302.269501,21.895012 300.828522,21.660721 299.982086,21.660721 
	C299.982086,18.210112 300.168701,15.230469 299.940735,12.282887 
	C299.544098,7.153876 294.502838,3.108923 290.060638,4.129305 
	C283.990509,5.523620 280.503326,11.091344 282.184509,16.998629 
	C282.907715,19.539751 284.411224,21.890928 284.917816,24.455313 
	C286.237335,31.135159 286.093933,37.021702 276.968445,36.961452 
	C267.746887,36.900566 258.528503,36.435841 249.306488,36.281864 
	C247.733780,36.255604 246.138489,36.856140 244.573853,37.247906 
	C242.394318,37.793636 240.239929,38.898041 238.064240,38.925438 
	C225.238144,39.086922 212.408966,38.988495 199.580887,39.013248 
	C193.816269,39.024368 193.041626,39.847919 193.008377,45.756386 
	C192.989319,49.144539 193.004929,52.532890 193.004929,55.921150 
	C191.622543,53.483883 190.715652,51.036964 190.081528,48.521294 
	C189.062195,44.477360 188.379044,38.664440 183.865173,38.865055 
	C178.654892,39.096630 176.773163,34.369553 172.572754,34.026588 
	C172.243042,33.999660 171.902283,34.011780 171.575317,34.062004 
	C167.202789,34.733620 162.841675,35.488728 158.458099,36.076939 
	C152.126846,36.926495 146.118607,38.330132 141.807816,43.661476 
	C139.575226,46.422611 137.125992,49.008591 134.748276,51.703579 
	C126.892250,39.582577 115.184364,34.209816 102.924561,36.029648 
	C97.136192,36.888863 91.085190,36.583427 85.213051,36.091301 
	C80.075180,35.660713 77.103783,37.535545 77.025322,42.685707 
	C76.937912,48.423477 76.867699,54.167713 77.038742,59.901711 
	C77.276001,67.855438 77.843307,75.799301 78.081795,83.753006 
	C78.252296,89.439117 78.114922,95.134468 78.114922,100.825691 
	C77.683662,100.820122 77.252396,100.814545 76.821136,100.808975 
	C76.821136,97.506180 77.091301,94.177063 76.772636,90.905296 
	C75.620544,79.076706 74.163902,67.277611 73.030540,55.447422 
	C72.196960,46.746471 71.389076,38.022648 71.147499,29.293028 
	C71.002274,24.045174 68.622665,22.843189 63.968262,22.940384 
	C53.905540,23.150520 43.835396,23.005062 33.934696,23.005062 
	C30.796970,14.131639 28.630898,12.135145 20.241833,10.080171 
	C15.604147,8.944129 6.859278,15.298585 6.101864,21.538366 
	C4.875959,31.637711 4.342544,41.855156 4.168691,52.033867 
	C4.081161,57.158573 9.011971,60.936146 14.264325,60.988869 
	C17.377174,61.020115 20.490593,60.994591 24.073483,60.994591 
	C23.712193,63.452400 23.192112,65.837044 23.036539,68.245232 
	C22.300014,79.646217 21.743959,91.059219 20.955336,102.456299 
	C20.579664,107.885483 19.647369,113.276741 19.289886,118.706436 
	C18.723648,127.306870 18.188505,135.926773 18.246471,144.534348 
	C18.256542,146.029877 21.104811,148.517456 22.905661,148.787125 
	C27.142435,149.421539 31.538427,148.993454 35.869995,148.993820 
	C47.156513,148.994797 47.154667,148.994324 48.114761,137.465591 
	C48.125275,137.339294 48.496262,137.243027 49.005211,136.966125 
	C49.005211,138.322891 48.997993,139.468796 49.006378,140.614578 
	C49.062771,148.322723 49.710884,148.991257 57.132195,148.993683 
	C63.447685,148.995758 69.763176,148.994110 76.058601,148.994110 
	C76.393616,154.814728 79.949043,159.344162 85.179459,160.065460 
	C92.384712,161.059128 94.094742,155.571350 95.508675,150.226486 
	C110.238937,152.050110 124.235214,152.447952 134.345551,138.374115 
	C135.005249,141.889404 135.005722,145.115707 135.005157,148.341995 
	C135.003006,160.732346 135.231979,160.945480 147.235352,159.527145 
	C147.462112,159.500351 147.641357,159.071335 147.421570,159.334702 
	C147.421570,153.890839 147.421570,148.966858 147.421570,144.472092 
	C157.155396,147.298599 166.823563,153.446533 177.653870,146.427353 
	C178.520630,145.865601 180.489075,146.940521 181.924255,147.332733 
	C184.551117,148.050613 187.246506,149.638565 189.758713,149.377258 
	C193.052597,149.034637 194.368301,146.049988 194.507843,142.716507 
	C194.715866,137.747467 195.051758,132.783768 195.333237,127.817787 
	C197.188629,130.635727 197.863037,133.727890 199.333130,136.378799 
	C202.661133,142.379990 205.441376,149.095947 213.367447,150.637192 
	C223.010452,152.512329 232.054214,149.677277 241.017181,146.823944 
	C242.604553,146.318619 243.808792,144.168793 244.876190,142.569031 
	C246.720047,139.805557 248.317932,136.877945 250.002350,134.002335 
	C250.002350,134.002335 249.983643,133.990005 250.012375,134.808655 
	C250.345779,136.416611 250.695709,138.021362 251.009735,139.633087 
	C252.380478,146.668472 253.494843,153.769287 255.280106,160.697433 
	C255.719086,162.401001 258.158844,164.142349 260.023376,164.687180 
	C260.928925,164.951797 263.146606,162.739594 263.866272,161.220428 
	C265.518524,157.732651 266.616241,153.982162 268.063690,149.994995 
	C272.555389,149.994995 277.179474,150.026794 281.802917,149.986893 
	C287.487915,149.937836 288.608093,148.822144 289.006775,142.993362 
	C289.006775,142.993362 289.036102,142.965393 289.806915,142.957016 
z" />
	<path fill="#FFFFFF" opacity="1.000000" stroke="none" d="
M250.018982,134.019180 
	C248.317932,136.877945 246.720047,139.805557 244.876190,142.569031 
	C243.808792,144.168793 242.604553,146.318619 241.017181,146.823944 
	C232.054214,149.677277 223.010452,152.512329 213.367447,150.637192 
	C205.441376,149.095947 202.661133,142.379990 199.333130,136.378799 
	C197.863037,133.727890 197.188629,130.635727 195.333237,127.817787 
	C195.051758,132.783768 194.715866,137.747467 194.507843,142.716507 
	C194.368301,146.049988 193.052597,149.034637 189.758713,149.377258 
	C187.246506,149.638565 184.551117,148.050613 181.924255,147.332733 
	C180.489075,146.940521 178.520630,145.865601 177.653870,146.427353 
	C166.823563,153.446533 157.155396,147.298599 147.421570,144.472092 
	C147.421570,148.966858 147.421570,153.890839 147.421570,159.334702 
	C147.641357,159.071335 147.462112,159.500351 147.235352,159.527145 
	C135.231979,160.945480 135.003006,160.732346 135.005157,148.341995 
	C135.005722,145.115707 135.005249,141.889404 134.345551,138.374115 
	C124.235214,152.447952 110.238937,152.050110 95.508675,150.226486 
	C94.094742,155.571350 92.384712,161.059128 85.179459,160.065460 
	C79.949043,159.344162 76.393616,154.814728 76.058601,148.994110 
	C69.763176,148.994110 63.447685,148.995758 57.132195,148.993683 
	C49.710884,148.991257 49.062771,148.322723 49.006378,140.614578 
	C48.997993,139.468796 49.005211,138.322891 49.005211,136.966125 
	C48.496262,137.243027 48.125275,137.339294 48.114761,137.465591 
	C47.154667,148.994324 47.156513,148.994797 35.869995,148.993820 
	C31.538427,148.993454 27.142435,149.421539 22.905661,148.787125 
	C21.104811,148.517456 18.256542,146.029877 18.246471,144.534348 
	C18.188505,135.926773 18.723648,127.306870 19.289886,118.706436 
	C19.647369,113.276741 20.579664,107.885483 20.955336,102.456299 
	C21.743959,91.059219 22.300014,79.646217 23.036539,68.245232 
	C23.192112,65.837044 23.712193,63.452400 24.073483,60.994591 
	C20.490593,60.994591 17.377174,61.020115 14.264325,60.988869 
	C9.011971,60.936146 4.081161,57.158573 4.168691,52.033867 
	C4.342544,41.855156 4.875959,31.637711 6.101864,21.538366 
	C6.859278,15.298585 15.604147,8.944129 20.241833,10.080171 
	C28.630898,12.135145 30.796970,14.131639 33.934696,23.005062 
	C43.835396,23.005062 53.905540,23.150520 63.968262,22.940384 
	C68.622665,22.843189 71.002274,24.045174 71.147499,29.293028 
	C71.389076,38.022648 72.196960,46.746471 73.030540,55.447422 
	C74.163902,67.277611 75.620544,79.076706 76.772636,90.905296 
	C77.091301,94.177063 76.821136,97.506180 76.821136,100.808975 
	C77.252396,100.814545 77.683662,100.820122 78.114922,100.825691 
	C78.114922,95.134468 78.252296,89.439117 78.081795,83.753006 
	C77.843307,75.799301 77.276001,67.855438 77.038742,59.901711 
	C76.867699,54.167713 76.937912,48.423477 77.025322,42.685707 
	C77.103783,37.535545 80.075180,35.660713 85.213051,36.091301 
	C91.085190,36.583427 97.136192,36.888863 102.924561,36.029648 
	C115.184364,34.209816 126.892250,39.582577 134.748276,51.703579 
	C137.125992,49.008591 139.575226,46.422611 141.807816,43.661476 
	C146.118607,38.330132 152.126846,36.926495 158.458099,36.076939 
	C162.841675,35.488728 167.202789,34.733620 171.575317,34.062004 
	C171.902283,34.011780 172.243042,33.999660 172.572754,34.026588 
	C176.773163,34.369553 178.654892,39.096630 183.865173,38.865055 
	C188.379044,38.664440 189.062195,44.477360 190.081528,48.521294 
	C190.715652,51.036964 191.622543,53.483883 193.004929,55.921150 
	C193.004929,52.532890 192.989319,49.144539 193.008377,45.756386 
	C193.041626,39.847919 193.816269,39.024368 199.580887,39.013248 
	C212.408966,38.988495 225.238144,39.086922 238.064240,38.925438 
	C240.239929,38.898041 242.394318,37.793636 244.573853,37.247906 
	C246.138489,36.856140 247.733780,36.255604 249.306488,36.281864 
	C258.528503,36.435841 267.746887,36.900566 276.968445,36.961452 
	C286.093933,37.021702 286.237335,31.135159 284.917816,24.455313 
	C284.411224,21.890928 282.907715,19.539751 282.184509,16.998629 
	C280.503326,11.091344 283.990509,5.523620 290.060638,4.129305 
	C294.502838,3.108923 299.544098,7.153876 299.940735,12.282887 
	C300.168701,15.230469 299.982086,18.210112 299.982086,21.660721 
	C300.828522,21.660721 302.269501,21.895012 303.607147,21.622292 
	C311.641357,19.984245 316.988159,25.516710 315.028748,33.588200 
	C313.396729,40.311028 311.930542,47.090343 309.878784,53.685314 
	C309.249451,55.708248 306.929260,57.205151 305.383362,58.942947 
	C303.661926,57.398502 301.260681,56.168102 300.369995,54.239899 
	C298.829773,50.905670 298.226715,47.138515 296.547638,43.488186 
	C296.363678,44.645370 296.026642,45.801712 296.020264,46.959877 
	C295.974243,55.289574 296.005341,63.619659 295.991699,71.949585 
	C295.981964,77.918694 295.668762,78.277275 289.388550,79.469482 
	C289.388550,87.609009 289.388550,95.838562 289.388550,103.144966 
	C291.662598,101.919044 294.263977,99.509537 297.083710,99.219063 
	C302.019684,98.710587 306.520813,103.287033 306.979736,108.192566 
	C307.410889,112.801659 307.799622,117.423759 307.924744,122.047775 
	C307.972015,123.794930 307.306610,125.584984 306.828827,127.317650 
	C305.929474,130.579010 304.681488,133.763596 304.027191,137.068909 
	C302.844421,143.043701 298.066406,145.117920 289.423096,142.712906 
	C288.899689,142.189240 288.760101,141.909683 288.620514,141.630142 
	C288.738800,142.092804 288.857117,142.555450 288.975403,143.018112 
	C288.608093,148.822144 287.487915,149.937836 281.802917,149.986893 
	C277.179474,150.026794 272.555389,149.994995 268.063690,149.994995 
	C266.616241,153.982162 265.518524,157.732651 263.866272,161.220428 
	C263.146606,162.739594 260.928925,164.951797 260.023376,164.687180 
	C258.158844,164.142349 255.719086,162.401001 255.280106,160.697433 
	C253.494843,153.769287 252.380478,146.668472 251.009735,139.633087 
	C250.695709,138.021362 250.345779,136.416611 250.314880,134.175430 
	C251.080307,131.487411 251.968613,129.425934 251.936371,127.378937 
	C251.743469,115.134254 251.323242,102.893295 251.015778,90.650177 
	C250.941437,87.689903 251.004745,84.726173 251.004745,81.564323 
	C249.237625,81.212212 247.849808,80.935677 245.969391,80.560997 
	C245.969391,87.174240 246.563309,93.527901 245.807281,99.716652 
	C245.003738,106.294220 244.722275,112.158882 247.908356,118.536934 
	C250.112015,122.948311 249.418121,128.807144 250.018982,134.019180 
M139.067520,149.805161 
	C139.487030,151.885376 139.906540,153.965576 140.326050,156.045792 
	C140.912415,156.029312 141.498795,156.012833 142.085175,155.996338 
	C142.388275,154.246292 142.848862,152.506699 142.965851,150.744293 
	C143.365143,144.728058 143.643555,138.703781 144.686691,132.790573 
	C145.648941,133.881561 146.837540,134.845734 147.532639,136.086395 
	C149.992004,140.476028 153.676895,142.984192 158.620941,143.450409 
	C163.140060,143.876541 168.107941,145.276367 172.105057,143.938156 
	C176.339157,142.520615 181.630753,141.262604 183.961578,136.186829 
	C184.248627,135.561737 185.560318,135.407166 186.545197,134.968658 
	C186.944351,138.492218 187.298950,141.622620 187.653564,144.753021 
	C188.187225,144.708328 188.720886,144.663635 189.254547,144.618942 
	C192.419220,129.839020 190.780289,114.755447 191.488953,99.822426 
	C191.700882,95.357040 191.790344,90.831184 191.317657,86.398964 
	C190.217773,76.085548 188.832413,65.799225 187.358887,55.531178 
	C186.953003,52.702831 185.638443,50.015396 185.078384,47.196243 
	C184.192368,42.736214 183.199265,42.237644 179.619827,44.428101 
	C175.511230,44.278893 174.514053,33.775600 168.765381,41.979698 
	C161.994553,39.754944 155.129272,39.934120 149.372314,43.292423 
	C141.960342,47.616192 137.574402,54.364395 139.028519,63.733116 
	C139.606979,67.460129 140.113922,71.329308 139.726562,75.036934 
	C139.365585,78.492279 137.830185,81.837654 136.714355,85.199104 
	C132.781204,97.047745 136.712280,108.509911 138.335938,120.900238 
	C138.462860,121.982353 138.589783,123.064476 138.621536,125.058807 
	C138.803482,132.041962 138.985443,139.025101 139.043289,146.753403 
	C139.090347,147.504501 139.137405,148.255600 139.067520,149.805161 
M291.707428,27.337738 
	C292.926208,23.343552 294.578430,19.412981 295.178040,15.327908 
	C295.470764,13.333751 294.144867,10.785815 292.809570,9.064009 
	C292.415466,8.555851 288.569672,9.513407 287.930511,10.685373 
	C286.928406,12.522981 286.690338,15.276051 287.236542,17.349564 
	C288.206390,21.031115 290.006531,24.493944 291.233582,28.789560 
	C290.350220,31.127337 289.466858,33.465111 288.375000,36.354591 
	C291.771515,37.250843 294.450684,38.841682 296.689606,38.364941 
	C301.377075,37.366814 302.203918,39.845200 302.739044,43.307404 
	C303.084198,45.540298 303.492157,47.763477 303.871979,49.991009 
	C304.368042,50.025795 304.864105,50.060581 305.360168,50.095371 
	C306.205902,48.979706 307.523590,47.974453 307.814941,46.729092 
	C309.021149,41.573372 310.049774,36.366150 310.881592,31.136177 
	C311.468964,27.443089 308.898163,25.307405 305.028534,25.920950 
	C300.478638,26.642357 295.927429,27.355659 291.707428,27.337738 
M291.683319,72.334808 
	C291.683319,61.981133 291.683319,51.627457 291.683319,41.186390 
	C286.722382,41.186390 282.595764,41.175602 278.469177,41.188522 
	C268.302612,41.220360 258.136078,41.263088 247.382919,41.161999 
	C247.106918,41.758930 246.830917,42.355858 246.312332,43.863930 
	C246.440353,53.266567 246.568359,62.669201 246.667953,72.582138 
	C246.737732,72.737556 246.807495,72.892982 247.205688,73.695854 
	C249.143097,78.238213 252.221375,73.563286 255.682693,75.092995 
	C255.682693,80.183624 255.473373,85.797226 255.720795,91.390617 
	C256.561310,110.392174 254.535126,129.463013 257.118042,148.417923 
	C257.468781,150.992004 255.940506,154.628922 259.877930,155.202972 
	C260.565796,155.303253 261.723450,150.999237 262.959015,148.903198 
	C263.925629,147.263428 265.320038,144.653366 266.574097,144.624344 
	C271.167023,144.518021 275.777710,145.346588 280.388947,145.737656 
	C281.478668,145.830063 282.596649,145.589096 283.431610,145.522903 
	C284.192749,139.742767 285.486176,134.364777 285.499756,128.983582 
	C285.540283,112.879677 285.038391,96.774956 284.871246,80.669273 
	C284.851685,78.782089 285.599731,76.886948 286.804810,74.997307 
	C288.343353,74.372185 289.881866,73.747063 291.683319,72.334808 
M216.947830,43.105717 
	C211.618423,43.113190 206.285995,43.230164 200.960861,43.082970 
	C198.206680,43.006836 197.058395,43.877995 197.145630,46.766342 
	C197.864166,70.558395 198.211044,94.365990 199.293365,118.140518 
	C199.704681,127.175781 202.559875,135.858170 208.899078,142.803391 
	C210.232758,144.264557 212.261429,145.287781 214.161880,146.001526 
	C222.859879,149.268295 230.612885,144.269424 238.666885,142.553299 
	C240.278351,142.209915 241.001175,137.747101 242.169876,135.200287 
	C242.295044,134.927505 242.707047,134.801620 242.911789,134.547745 
	C245.875610,130.872925 246.561996,123.998230 243.202881,120.965889 
	C238.586792,116.798828 240.233505,111.883949 240.198715,107.128349 
	C240.178482,104.359055 241.098068,101.580170 241.053925,98.814224 
	C240.791718,82.385139 240.367142,65.958664 240.009949,49.531040 
	C239.967941,47.599037 240.004257,45.665333 240.004257,43.044060 
	C233.432129,43.044060 227.301041,43.044060 220.343384,43.040714 
	C219.517502,43.038860 218.691635,43.037006 216.947830,43.105717 
M83.753983,88.915329 
	C83.213593,90.750816 82.185104,92.593132 82.210655,94.420708 
	C82.401237,108.054893 82.570168,121.697929 83.265228,135.311661 
	C83.493889,139.790192 84.846985,143.965851 81.620491,148.115280 
	C80.803108,149.166473 81.753944,152.337402 82.833862,153.871445 
	C83.625290,154.995682 86.701439,155.959549 87.440674,155.362427 
	C88.853340,154.221313 89.678688,151.991364 90.086227,150.072800 
	C90.468491,148.273224 89.996117,146.292114 89.892502,144.246567 
	C94.936470,145.162720 99.309402,146.402863 103.742355,146.678833 
	C117.234360,147.518814 126.428017,144.202698 130.408066,133.731796 
	C135.338303,120.761078 135.991730,104.141273 121.321854,93.385971 
	C127.522690,87.149597 131.349289,79.878044 132.644638,71.869690 
	C135.666641,53.186462 123.623222,39.147991 106.312897,40.853905 
	C99.110039,41.563736 91.835991,41.551228 84.254333,41.197411 
	C83.495232,41.465626 82.736130,41.733841 81.793808,42.588554 
	C81.739586,42.994411 81.685371,43.400269 81.183830,44.376240 
	C81.178009,45.579975 81.172188,46.783707 81.006844,48.855206 
	C81.058846,50.907177 81.110847,52.959152 81.043495,55.675053 
	C81.237419,56.517132 81.431343,57.359211 81.704453,59.048717 
	C81.856438,61.036556 82.008423,63.024399 82.040703,65.939331 
	C82.293350,71.663345 82.545998,77.387360 82.902321,83.748306 
	C82.987267,84.169243 83.072212,84.590172 83.046555,85.677963 
	C83.266212,86.504898 83.485863,87.331825 83.753983,88.915329 
M31.517855,144.997498 
	C33.684280,144.980927 35.865650,144.796295 38.013607,144.987366 
	C41.197025,145.270508 43.165386,144.462982 43.155979,140.816208 
	C43.137760,133.754959 46.487286,128.278229 51.658073,123.560455 
	C52.408237,130.650101 53.151421,137.673721 53.886276,144.618683 
	C61.346249,144.618683 68.102631,144.618683 74.312141,144.618683 
	C74.878372,135.606461 75.425186,126.958878 75.951050,118.310020 
	C75.970032,117.997826 75.742691,117.678650 75.697609,117.353386 
	C74.542885,109.021629 73.113998,100.715858 72.309036,92.350136 
	C70.653122,75.140572 69.353630,57.896923 67.857460,40.671650 
	C67.474586,36.263702 66.905060,31.871971 66.323944,26.587564 
	C63.310818,27.567003 60.888206,28.354492 57.928108,29.316696 
	C50.222755,25.530373 33.100811,25.946596 29.991190,30.367298 
	C29.096107,19.845694 25.968153,16.102638 17.181488,14.475698 
	C15.520459,16.584743 13.839340,18.346449 12.609199,20.380848 
	C11.242247,22.641508 9.661910,25.059244 9.293526,27.572613 
	C8.694860,31.657110 8.963174,35.874893 8.947648,40.036728 
	C8.934695,43.509056 8.863670,46.995564 9.133768,50.451138 
	C9.528769,55.504684 11.988708,55.542656 16.834106,56.008492 
	C23.932346,56.690918 23.661833,52.171398 23.492653,48.422894 
	C23.262264,43.318188 27.794449,42.532581 30.143681,38.023304 
	C27.371637,74.544785 24.718880,109.494652 22.024101,144.998154 
	C25.309799,144.998154 27.929722,144.998154 31.517855,144.997498 
M299.958527,131.692413 
	C302.010895,126.346306 304.121521,121.166794 303.513611,115.074844 
	C302.956024,109.487320 301.683594,105.057297 295.757019,103.205772 
	C294.268738,106.424484 291.905670,109.413666 291.614502,112.592613 
	C290.942627,119.928322 291.001831,127.367668 291.312469,134.741882 
	C291.478241,138.678085 295.602264,140.483566 298.309357,137.966904 
	C299.501038,136.859039 299.425598,134.388199 299.958527,131.692413 
z" />
	<path fill="#5A6E73" opacity="1.000000" stroke="none" d="
M31.033749,144.997833 
	C27.929722,144.998154 25.309799,144.998154 22.024101,144.998154 
	C24.718880,109.494652 27.371637,74.544785 30.143681,38.023304 
	C27.794449,42.532581 23.262264,43.318188 23.492653,48.422894 
	C23.661833,52.171398 23.932346,56.690918 16.834106,56.008492 
	C11.988708,55.542656 9.528769,55.504684 9.133768,50.451138 
	C8.863670,46.995564 8.934695,43.509056 8.947648,40.036728 
	C8.963174,35.874893 8.694860,31.657110 9.293526,27.572613 
	C9.661910,25.059244 11.242247,22.641508 12.609199,20.380848 
	C13.839340,18.346449 15.520459,16.584743 17.181488,14.475698 
	C25.968153,16.102638 29.096107,19.845694 29.991190,30.367298 
	C33.100811,25.946596 50.222755,25.530373 57.928108,29.316696 
	C60.888206,28.354492 63.310818,27.567003 66.323944,26.587564 
	C66.905060,31.871971 67.474586,36.263702 67.857460,40.671650 
	C69.353630,57.896923 70.653122,75.140572 72.309036,92.350136 
	C73.113998,100.715858 74.542885,109.021629 75.697609,117.353386 
	C75.742691,117.678650 75.970032,117.997826 75.951050,118.310020 
	C75.425186,126.958878 74.878372,135.606461 74.312141,144.618683 
	C68.102631,144.618683 61.346249,144.618683 53.886276,144.618683 
	C53.151421,137.673721 52.408237,130.650101 51.658073,123.560455 
	C46.487286,128.278229 43.137760,133.754959 43.155979,140.816208 
	C43.165386,144.462982 41.197025,145.270508 38.013607,144.987366 
	C35.865650,144.796295 33.684280,144.980927 31.033749,144.997833 
M49.957096,61.071594 
	C49.684078,60.456970 49.411064,59.842342 48.670849,58.175941 
	C48.670849,66.532326 48.670849,73.626328 48.670849,80.720337 
	C49.107449,80.712128 49.544052,80.703918 49.980652,80.695717 
	C49.980652,74.451920 49.980652,68.208130 49.957096,61.071594 
z" />
	<path fill="#596D73" opacity="1.000000" stroke="none" d="
M138.368317,120.085312 
	C136.712280,108.509911 132.781204,97.047745 136.714355,85.199104 
	C137.830185,81.837654 139.365585,78.492279 139.726562,75.036934 
	C140.113922,71.329308 139.606979,67.460129 139.028519,63.733116 
	C137.574402,54.364395 141.960342,47.616192 149.372314,43.292423 
	C155.129272,39.934120 161.994553,39.754944 168.765381,41.979698 
	C174.514053,33.775600 175.511230,44.278893 179.619827,44.428101 
	C183.199265,42.237644 184.192368,42.736214 185.078384,47.196243 
	C185.638443,50.015396 186.953003,52.702831 187.358887,55.531178 
	C188.832413,65.799225 190.217773,76.085548 191.317657,86.398964 
	C191.790344,90.831184 191.700882,95.357040 191.488953,99.822426 
	C190.780289,114.755447 192.419220,129.839020 189.254547,144.618942 
	C188.720886,144.663635 188.187225,144.708328 187.653564,144.753021 
	C187.298950,141.622620 186.944351,138.492218 186.545197,134.968658 
	C185.560318,135.407166 184.248627,135.561737 183.961578,136.186829 
	C181.630753,141.262604 176.339157,142.520615 172.105057,143.938156 
	C168.107941,145.276367 163.140060,143.876541 158.620941,143.450409 
	C153.676895,142.984192 149.992004,140.476028 147.532639,136.086395 
	C146.837540,134.845734 145.648941,133.881561 144.316772,132.367615 
	C143.431839,130.120270 142.916824,128.295898 142.401794,126.471512 
	C141.931290,126.496582 141.460770,126.521645 140.990265,126.546715 
	C140.990265,133.028641 140.990265,139.510574 140.686462,145.995239 
	C139.977585,146.001389 139.572479,146.004822 139.167389,146.008255 
	C138.985443,139.025101 138.803482,132.041962 138.989029,124.378654 
	C139.027115,122.494102 138.697723,121.289711 138.368317,120.085312 
M162.931366,81.500298 
	C163.015671,95.163811 163.099960,108.827316 163.184265,122.490829 
	C163.826111,122.482796 164.467957,122.474754 165.109802,122.466721 
	C165.109802,102.037247 165.109802,81.607765 165.109802,61.178291 
	C164.385513,61.160755 163.661224,61.143223 162.936935,61.125690 
	C162.936935,67.583969 162.936935,74.042252 162.931366,81.500298 
z" />
	<path fill="#596D73" opacity="1.000000" stroke="none" d="
M82.160416,65.012238 
	C82.008423,63.024399 81.856438,61.036556 81.964981,58.446510 
	C81.871292,56.899910 81.517067,55.955517 81.162842,55.011124 
	C81.110847,52.959152 81.058846,50.907177 81.430275,48.347683 
	C81.779526,46.495483 81.705345,45.150803 81.631165,43.806126 
	C81.685371,43.400269 81.739586,42.994411 82.321716,42.285088 
	C83.431190,41.943474 84.012749,41.905327 84.594315,41.867180 
	C91.835991,41.551228 99.110039,41.563736 106.312897,40.853905 
	C123.623222,39.147991 135.666641,53.186462 132.644638,71.869690 
	C131.349289,79.878044 127.522690,87.149597 121.321854,93.385971 
	C135.991730,104.141273 135.338303,120.761078 130.408066,133.731796 
	C126.428017,144.202698 117.234360,147.518814 103.742355,146.678833 
	C99.309402,146.402863 94.936470,145.162720 89.892502,144.246567 
	C89.996117,146.292114 90.468491,148.273224 90.086227,150.072800 
	C89.678688,151.991364 88.853340,154.221313 87.440674,155.362427 
	C86.701439,155.959549 83.625290,154.995682 82.833862,153.871445 
	C81.753944,152.337402 80.803108,149.166473 81.620491,148.115280 
	C84.846985,143.965851 83.493889,139.790192 83.265228,135.311661 
	C82.570168,121.697929 82.401237,108.054893 82.210655,94.420708 
	C82.185104,92.593132 83.213593,90.750816 84.019653,88.357162 
	C83.909279,86.869705 83.533218,85.940407 83.157150,85.011108 
	C83.072212,84.590172 82.987267,84.169243 83.181503,83.150406 
	C83.627075,77.354065 83.858078,72.155861 83.877632,66.956856 
	C83.880058,66.310814 82.760223,65.660545 82.160416,65.012238 
M106.856903,81.910194 
	C107.190849,72.675613 107.534790,63.440323 105.014648,54.371117 
	C104.113617,63.273247 104.072556,72.149551 104.211220,81.023041 
	C104.219933,81.581078 105.632156,82.117195 106.856903,81.910194 
M104.073235,119.489365 
	C104.073235,123.597908 104.073235,127.706451 104.073235,131.815002 
	C104.900459,131.767532 105.727692,131.720078 106.554916,131.672623 
	C107.130432,122.961487 107.618896,114.254311 104.073311,105.711189 
	C104.073311,109.974739 104.073311,114.238297 104.073235,119.489365 
z" />
	<path fill="#576B72" opacity="1.000000" stroke="none" d="
M221.169968,43.044060 
	C227.301041,43.044060 233.432129,43.044060 240.004257,43.044060 
	C240.004257,45.665333 239.967941,47.599037 240.009949,49.531040 
	C240.367142,65.958664 240.791718,82.385139 241.053925,98.814224 
	C241.098068,101.580170 240.178482,104.359055 240.198715,107.128349 
	C240.233505,111.883949 238.586792,116.798828 243.202881,120.965889 
	C246.561996,123.998230 245.875610,130.872925 242.911789,134.547745 
	C242.707047,134.801620 242.295044,134.927505 242.169876,135.200287 
	C241.001175,137.747101 240.278351,142.209915 238.666885,142.553299 
	C230.612885,144.269424 222.859879,149.268295 214.161880,146.001526 
	C212.261429,145.287781 210.232758,144.264557 208.899078,142.803391 
	C202.559875,135.858170 199.704681,127.175781 199.293365,118.140518 
	C198.211044,94.365990 197.864166,70.558395 197.145630,46.766342 
	C197.058395,43.877995 198.206680,43.006836 200.960861,43.082970 
	C206.285995,43.230164 211.618423,43.113190 217.515747,43.526146 
	C218.368393,63.686161 218.653137,83.425743 218.937866,103.165329 
	C219.520401,103.162186 220.102936,103.159035 220.685471,103.155891 
	C220.685471,85.255447 220.669281,67.354980 220.706833,49.454613 
	C220.711319,47.317444 221.008469,45.180897 221.169968,43.044060 
M214.703079,50.569622 
	C214.989365,50.296310 215.275650,50.022999 215.561935,49.749695 
	C215.448608,49.631210 215.242996,49.403481 215.235275,49.410007 
	C214.933319,49.665077 214.649384,49.941490 214.703079,50.569622 
M220.739334,109.185165 
	C220.624374,109.026848 220.509430,108.868530 220.394485,108.710213 
	C220.417770,108.930550 220.441055,109.150879 220.739334,109.185165 
z" />
	<path fill="#596D73" opacity="1.000000" stroke="none" d="
M247.969513,41.301437 
	C258.136078,41.263088 268.302612,41.220360 278.469177,41.188522 
	C282.595764,41.175602 286.722382,41.186390 291.683319,41.186390 
	C291.683319,51.627457 291.683319,61.981133 291.120544,72.693504 
	C289.088379,73.823471 286.136078,71.110550 285.991974,74.995499 
	C285.599731,76.886948 284.851685,78.782089 284.871246,80.669273 
	C285.038391,96.774956 285.540283,112.879677 285.499756,128.983582 
	C285.486176,134.364777 284.192749,139.742767 283.431610,145.522903 
	C282.596649,145.589096 281.478668,145.830063 280.388947,145.737656 
	C275.777710,145.346588 271.167023,144.518021 266.574097,144.624344 
	C265.320038,144.653366 263.925629,147.263428 262.959015,148.903198 
	C261.723450,150.999237 260.565796,155.303253 259.877930,155.202972 
	C255.940506,154.628922 257.468781,150.992004 257.118042,148.417923 
	C254.535126,129.463013 256.561310,110.392174 255.720795,91.390617 
	C255.473373,85.797226 255.682693,80.183624 255.682693,75.092995 
	C252.221375,73.563286 249.143097,78.238213 247.227234,73.262589 
	C247.064636,72.576836 246.880508,72.324333 246.696365,72.071838 
	C246.568359,62.669201 246.440353,53.266567 246.670685,43.355076 
	C247.342529,42.331295 247.656021,41.816368 247.969513,41.301437 
M290.407898,42.483448 
	C290.407898,42.483448 290.520172,42.414909 290.407898,42.483448 
z" />
	<path fill="#5C6F75" opacity="1.000000" stroke="none" d="
M299.941986,132.114304 
	C299.425598,134.388199 299.501038,136.859039 298.309357,137.966904 
	C295.602264,140.483566 291.478241,138.678085 291.312469,134.741882 
	C291.001831,127.367668 290.942627,119.928322 291.614502,112.592613 
	C291.905670,109.413666 294.268738,106.424484 295.757019,103.205772 
	C301.683594,105.057297 302.956024,109.487320 303.513611,115.074844 
	C304.121521,121.166794 302.010895,126.346306 299.941986,132.114304 
z" />
	<path fill="#5A6E73" opacity="1.000000" stroke="none" d="
M291.376801,28.072472 
	C295.927429,27.355659 300.478638,26.642357 305.028534,25.920950 
	C308.898163,25.307405 311.468964,27.443089 310.881592,31.136177 
	C310.049774,36.366150 309.021149,41.573372 307.814941,46.729092 
	C307.523590,47.974453 306.205902,48.979706 305.360168,50.095371 
	C304.864105,50.060581 304.368042,50.025795 303.871979,49.991009 
	C303.492157,47.763477 303.084198,45.540298 302.739044,43.307404 
	C302.203918,39.845200 301.377075,37.366814 296.689606,38.364941 
	C294.450684,38.841682 291.771515,37.250843 288.375000,36.354591 
	C289.466858,33.465111 290.350220,31.127337 291.324005,28.415623 
	C291.414429,28.041683 291.376801,28.072470 291.376801,28.072472 
z" />
	<path fill="#385266" opacity="1.000000" stroke="none" d="
M250.010666,134.010757 
	C249.418121,128.807144 250.112015,122.948311 247.908356,118.536934 
	C244.722275,112.158882 245.003738,106.294220 245.807281,99.716652 
	C246.563309,93.527901 245.969391,87.174240 245.969391,80.560997 
	C247.849808,80.935677 249.237625,81.212212 251.004745,81.564323 
	C251.004745,84.726173 250.941437,87.689903 251.015778,90.650177 
	C251.323242,102.893295 251.743469,115.134254 251.936371,127.378937 
	C251.968613,129.425934 251.080307,131.487411 250.300507,133.766113 
	C249.983643,133.990005 250.002350,134.002335 250.010666,134.010757 
z" />
	<path fill="#F5EDDB" opacity="1.000000" stroke="none" d="
M220.756683,43.042389 
	C221.008469,45.180897 220.711319,47.317444 220.706833,49.454613 
	C220.669281,67.354980 220.685471,85.255447 220.685471,103.155891 
	C220.102936,103.159035 219.520401,103.162186 218.937866,103.165329 
	C218.653137,83.425743 218.368393,63.686161 217.974701,43.490864 
	C218.691635,43.037006 219.517502,43.038860 220.756683,43.042389 
z" />
	<path fill="#5C6F75" opacity="1.000000" stroke="none" d="
M291.542114,27.705105 
	C291.376801,28.072470 291.414429,28.041683 291.436859,28.044979 
	C290.006531,24.493944 288.206390,21.031115 287.236542,17.349564 
	C286.690338,15.276051 286.928406,12.522981 287.930511,10.685373 
	C288.569672,9.513407 292.415466,8.555851 292.809570,9.064009 
	C294.144867,10.785815 295.470764,13.333751 295.178040,15.327908 
	C294.578430,19.412981 292.926208,23.343552 291.542114,27.705105 
z" />
	<path fill="#4C626A" opacity="1.000000" stroke="none" d="
M140.990265,145.992508 
	C140.990265,139.510574 140.990265,133.028641 140.990265,126.546715 
	C141.460770,126.521645 141.931290,126.496582 142.401794,126.471512 
	C142.916824,128.295898 143.431839,130.120270 143.957474,132.313614 
	C143.643555,138.703781 143.365143,144.728058 142.965851,150.744293 
	C142.848862,152.506699 142.388275,154.246292 142.085175,155.996338 
	C141.498795,156.012833 140.912415,156.029312 140.326050,156.045792 
	C139.906540,153.965576 139.487030,151.885376 139.454102,149.337891 
	C140.223877,147.911240 140.607056,146.951874 140.990265,145.992508 
z" />
	<path fill="#53686E" opacity="1.000000" stroke="none" d="
M82.100555,65.475784 
	C82.760223,65.660545 83.880058,66.310814 83.877632,66.956856 
	C83.858078,72.155861 83.627075,77.354065 83.129669,82.831940 
	C82.545998,77.387360 82.293350,71.663345 82.100555,65.475784 
z" />
	<path fill="#53686E" opacity="1.000000" stroke="none" d="
M286.398376,74.996399 
	C286.136078,71.110550 289.088379,73.823471 290.989075,73.087067 
	C289.881866,73.747063 288.343353,74.372185 286.398376,74.996399 
z" />
	<path fill="#53686E" opacity="1.000000" stroke="none" d="
M81.407501,44.091183 
	C81.705345,45.150803 81.779526,46.495483 81.510040,47.913803 
	C81.172188,46.783707 81.178009,45.579975 81.407501,44.091183 
z" />
	<path fill="#53686E" opacity="1.000000" stroke="none" d="
M81.103172,55.343086 
	C81.517067,55.955517 81.871292,56.899910 81.925392,58.022797 
	C81.431343,57.359211 81.237419,56.517132 81.103172,55.343086 
z" />
	<path fill="#53686E" opacity="1.000000" stroke="none" d="
M83.101852,85.344536 
	C83.533218,85.940407 83.909279,86.869705 83.995422,87.978882 
	C83.485863,87.331825 83.266212,86.504898 83.101852,85.344536 
z" />
	<path fill="#53686E" opacity="1.000000" stroke="none" d="
M140.686462,145.995239 
	C140.607056,146.951874 140.223877,147.911240 139.512573,148.938660 
	C139.137405,148.255600 139.090347,147.504501 139.105347,146.380829 
	C139.572479,146.004822 139.977585,146.001389 140.686462,145.995239 
z" />
	<path fill="#53686E" opacity="1.000000" stroke="none" d="
M138.352127,120.492775 
	C138.697723,121.289711 139.027115,122.494102 139.036606,123.922546 
	C138.589783,123.064476 138.462860,121.982353 138.352127,120.492775 
z" />
	<path fill="#4C626A" opacity="1.000000" stroke="none" d="
M247.676208,41.231720 
	C247.656021,41.816368 247.342529,42.331295 246.791962,42.899506 
	C246.830917,42.355858 247.106918,41.758930 247.676208,41.231720 
z" />
	<path fill="#53686E" opacity="1.000000" stroke="none" d="
M84.424324,41.532295 
	C84.012749,41.905327 83.431190,41.943474 82.413330,41.991840 
	C82.736130,41.733841 83.495232,41.465626 84.424324,41.532295 
z" />
	<path fill="#385266" opacity="1.000000" stroke="none" d="
M288.991089,143.005737 
	C288.857117,142.555450 288.738800,142.092804 288.620514,141.630142 
	C288.760101,141.909683 288.899689,142.189240 289.037659,142.717102 
	C289.036102,142.965393 289.006775,142.993362 288.991089,143.005737 
z" />
	<path fill="#4C626A" opacity="1.000000" stroke="none" d="
M246.682159,72.326988 
	C246.880508,72.324333 247.064636,72.576836 247.063019,72.938866 
	C246.807495,72.892982 246.737732,72.737556 246.682159,72.326988 
z" />
	<path fill="#DAD6C8" opacity="1.000000" stroke="none" d="
M49.968872,61.517967 
	C49.980652,68.208130 49.980652,74.451920 49.980652,80.695717 
	C49.544052,80.703918 49.107449,80.712128 48.670849,80.720337 
	C48.670849,73.626328 48.670849,66.532326 48.670849,58.175941 
	C49.411064,59.842342 49.684078,60.456970 49.968872,61.517967 
z" />
	<path fill="#E9E3D3" opacity="1.000000" stroke="none" d="
M162.934143,81.000412 
	C162.936935,74.042252 162.936935,67.583969 162.936935,61.125690 
	C163.661224,61.143223 164.385513,61.160755 165.109802,61.178291 
	C165.109802,81.607765 165.109802,102.037247 165.109802,122.466721 
	C164.467957,122.474754 163.826111,122.482796 163.184265,122.490829 
	C163.099960,108.827316 163.015671,95.163811 162.934143,81.000412 
z" />
	<path fill="#DAD6C8" opacity="1.000000" stroke="none" d="
M106.624161,82.286850 
	C105.632156,82.117195 104.219933,81.581078 104.211220,81.023041 
	C104.072556,72.149551 104.113617,63.273247 105.014648,54.371117 
	C107.534790,63.440323 107.190849,72.675613 106.624161,82.286850 
z" />
	<path fill="#DAD6C8" opacity="1.000000" stroke="none" d="
M104.073273,118.995605 
	C104.073311,114.238297 104.073311,109.974739 104.073311,105.711189 
	C107.618896,114.254311 107.130432,122.961487 106.554916,131.672623 
	C105.727692,131.720078 104.900459,131.767532 104.073235,131.815002 
	C104.073235,127.706451 104.073235,123.597908 104.073273,118.995605 
z" />
	<path fill="#596D73" opacity="1.000000" stroke="none" d="
M214.533096,50.392372 
	C214.649384,49.941490 214.933319,49.665077 215.235275,49.410007 
	C215.242996,49.403481 215.448608,49.631210 215.561935,49.749695 
	C215.275650,50.022999 214.989365,50.296310 214.533096,50.392372 
z" />
	<path fill="#596D73" opacity="1.000000" stroke="none" d="
M220.601837,109.278191 
	C220.441055,109.150879 220.417770,108.930550 220.394485,108.710213 
	C220.509430,108.868530 220.624374,109.026848 220.601837,109.278191 
z" />
	<path fill="#53686E" opacity="1.000000" stroke="none" d="
M290.464050,42.449181 
	C290.520172,42.414909 290.407898,42.483448 290.464050,42.449181 
z" />
</svg>