<svg version="1.1" id="Layer_1" xmlns="http://www.w3.org/2000/svg" xmlns:xlink="http://www.w3.org/1999/xlink" x="0px"
	y="0px" width="100%" viewBox="0 0 429 165" enable-background="new 0 0 429 165" xml:space="preserve">
	<path fill="#385266" opacity="1.000000" stroke="none" d="
M275.000000,166.000000 
	C183.333328,166.000000 92.166664,166.000000 1.000000,166.000000 
	C1.000000,111.000000 1.000000,56.000000 1.000000,1.000000 
	C144.000000,1.000000 287.000000,1.000000 430.000000,1.000000 
	C430.000000,56.000000 430.000000,111.000000 430.000000,166.000000 
	C378.500000,166.000000 327.000000,166.000000 275.000000,166.000000 
M362.287994,84.005287 
	C361.275269,83.260490 360.262543,82.515694 359.818451,82.189095 
	C360.684387,79.595413 361.622955,77.680199 361.929688,75.668648 
	C362.476532,72.082191 362.679596,68.440437 362.956879,64.816490 
	C363.335663,59.866077 363.921021,54.910530 363.918152,49.957474 
	C363.914978,44.510429 359.007690,40.657452 354.064484,41.082073 
	C345.778839,41.793804 337.528503,42.105911 329.170258,40.720177 
	C319.687225,39.147964 314.955933,44.401360 315.000916,51.539059 
	C315.035461,57.020142 315.007782,62.501617 315.007782,67.982918 
	C313.639374,65.480370 312.903503,62.831890 311.922791,60.277401 
	C307.253296,48.114422 299.341187,39.708038 284.670654,40.914944 
	C278.049652,41.459644 271.345123,41.093113 264.681366,40.975990 
	C260.665283,40.905407 258.881958,42.634579 258.978088,46.663002 
	C259.099518,51.752232 259.007355,56.846558 259.007355,61.938683 
	C256.680328,57.141766 254.918121,52.265465 253.217453,47.367794 
	C251.659729,42.881798 237.301117,35.774033 233.698471,38.529282 
	C229.054413,42.080978 223.749893,40.249691 219.037796,41.986145 
	C217.506165,42.550564 215.592194,42.515007 214.383087,43.443813 
	C208.036682,48.319054 201.163330,52.886841 200.300171,62.079834 
	C199.992447,57.792049 200.389130,53.583038 199.826431,49.506439 
	C199.541718,47.443569 197.936447,44.532681 196.216064,43.878738 
	C189.210236,41.215706 181.933273,39.927841 174.327682,41.727165 
	C165.827148,43.738220 159.347488,48.217693 155.304199,57.275948 
	C154.347092,50.530544 157.190811,44.010399 150.508423,40.311211 
	C150.322952,40.208549 150.510025,39.411175 150.542862,38.939102 
	C151.024384,32.017353 151.707657,25.102293 151.933395,18.172304 
	C152.130676,12.115402 145.491241,3.862350 140.228912,3.046545 
	C132.801910,1.895155 126.582008,5.670712 124.102654,13.220814 
	C120.997124,22.677706 121.469872,32.043015 125.825645,41.435120 
	C116.285629,42.568237 121.635727,50.469688 119.470825,55.261177 
	C118.804802,54.465214 118.209381,53.898750 117.785194,53.224552 
	C112.738815,45.204063 105.670708,41.558235 96.037422,41.883965 
	C87.937866,42.157841 79.801468,41.126366 71.682236,41.141247 
	C68.474945,41.147121 65.269981,42.421101 62.095245,43.110863 
	C62.022758,42.455666 61.966019,40.956863 61.667507,39.507870 
	C61.335369,37.895630 60.910633,36.277988 60.303310,34.751373 
	C58.262283,29.620905 55.485840,29.266003 50.201519,29.569159 
	C43.679913,29.943295 37.098980,32.170959 30.348038,28.898729 
	C21.572470,24.645147 12.923152,30.528177 13.025286,40.104893 
	C13.246254,60.824535 13.724203,81.542625 13.788083,102.262306 
	C13.826734,114.798759 13.266863,127.336624 13.030777,139.874893 
	C12.999829,141.518448 13.071331,143.226151 13.479204,144.805008 
	C15.274526,151.754517 17.841932,152.254105 24.738104,150.942810 
	C31.458324,149.664993 39.060917,148.865692 45.383774,150.789322 
	C52.186470,152.858948 57.559116,154.483231 62.582935,148.093124 
	C69.032043,156.043945 77.861183,151.580078 85.560944,153.438492 
	C85.592300,157.583969 88.319817,158.736328 91.889648,159.004074 
	C95.956909,159.309158 97.373894,156.388779 97.585075,153.422684 
	C98.110428,146.043777 98.045082,138.622726 98.212143,131.218475 
	C98.301651,127.251106 97.715553,123.087631 98.796600,119.413475 
	C99.222610,117.965576 103.354073,117.595741 105.812126,116.776802 
	C106.057449,116.695076 106.399948,116.905060 107.008591,117.057739 
	C107.008591,119.304260 106.385750,121.863358 107.172783,123.869286 
	C108.072632,126.162735 109.837120,129.050339 111.902786,129.790375 
	C120.550072,132.888229 121.337799,133.749298 119.663200,142.604385 
	C118.716835,147.608673 122.531448,152.790527 127.643806,152.935196 
	C134.803833,153.137833 141.975250,153.070435 149.138763,152.944809 
	C151.622223,152.901276 154.095596,152.096741 156.575455,152.086273 
	C158.855362,152.076660 161.163437,153.066269 163.414551,152.921738 
	C171.578918,152.397491 179.749893,151.777084 187.857788,150.725616 
	C189.675629,150.489914 191.832550,148.709015 192.827698,147.039871 
	C196.349075,141.133682 199.434494,134.967545 202.538727,129.173279 
	C204.607788,132.951340 206.705566,137.042786 209.040604,140.994003 
	C214.754227,150.662186 231.932251,155.193970 241.796158,149.822968 
	C243.449417,148.922745 245.379333,148.530640 247.875977,147.662125 
	C247.875977,153.401001 247.875977,158.331467 247.875977,163.917297 
	C251.452087,163.636581 255.743652,164.538452 257.232819,162.897354 
	C259.565063,160.327179 260.003296,156.038315 261.412750,151.992355 
	C268.217804,151.992355 275.602631,151.352341 282.829071,152.149124 
	C292.574005,153.223572 298.807251,148.195465 303.718475,141.228882 
	C308.130768,134.970016 311.464172,127.950531 315.038422,121.679085 
	C315.338470,128.498672 315.678040,136.081345 316.003998,143.664612 
	C316.286163,150.229919 319.639221,152.266525 326.093323,151.624527 
	C333.486237,150.889145 341.364136,149.960526 348.362793,151.742050 
	C355.497253,153.558136 361.075745,154.891373 365.528442,147.315536 
	C366.832123,151.894882 367.644318,156.082321 369.274048,159.922867 
	C370.118835,161.913589 372.379730,164.542007 374.058319,164.584000 
	C375.663879,164.624176 377.768646,161.930923 378.882629,159.995193 
	C380.241119,157.634583 380.794495,154.810623 381.493988,152.775101 
	C386.848145,151.536835 391.751129,149.286072 396.435730,149.673782 
	C400.166412,149.982529 402.754608,148.759308 404.137146,146.633347 
	C407.873566,140.887756 412.294434,134.952774 413.753052,128.486023 
	C417.325592,112.647224 415.394989,97.484924 402.313873,84.993088 
	C403.778595,84.993088 404.570496,85.007515 405.361694,84.990829 
	C412.278076,84.845016 413.117157,84.110817 412.958801,77.117294 
	C412.771912,68.863312 412.194427,60.617836 412.029205,52.363808 
	C411.854095,43.618351 411.851562,43.448479 403.416016,41.282299 
	C402.133240,40.952896 400.856659,40.564983 399.552795,40.357613 
	C385.992645,38.200996 372.182281,43.502541 366.873383,57.632664 
	C363.642670,66.231544 362.748840,74.972740 362.991730,84.008179 
	C362.991730,84.008179 362.960449,84.037888 362.287994,84.005287 
z" />
	<path fill="#E1DCCD" opacity="1.000000" stroke="none" d="
M363.025879,83.982559 
	C362.748840,74.972740 363.642670,66.231544 366.873383,57.632664 
	C372.182281,43.502541 385.992645,38.200996 399.552795,40.357613 
	C400.856659,40.564983 402.133240,40.952896 403.416016,41.282299 
	C411.851562,43.448479 411.854095,43.618351 412.029205,52.363808 
	C412.194427,60.617836 412.771912,68.863312 412.958801,77.117294 
	C413.117157,84.110817 412.278076,84.845016 405.361694,84.990829 
	C404.570496,85.007515 403.778595,84.993088 402.313873,84.993088 
	C415.394989,97.484924 417.325592,112.647224 413.753052,128.486023 
	C412.294434,134.952774 407.873566,140.887756 404.137146,146.633347 
	C402.754608,148.759308 400.166412,149.982529 396.435730,149.673782 
	C391.751129,149.286072 386.848145,151.536835 381.493988,152.775101 
	C380.794495,154.810623 380.241119,157.634583 378.882629,159.995193 
	C377.768646,161.930923 375.663879,164.624176 374.058319,164.584000 
	C372.379730,164.542007 370.118835,161.913589 369.274048,159.922867 
	C367.644318,156.082321 366.832123,151.894882 365.528442,147.315536 
	C361.075745,154.891373 355.497253,153.558136 348.362793,151.742050 
	C341.364136,149.960526 333.486237,150.889145 326.093323,151.624527 
	C319.639221,152.266525 316.286163,150.229919 316.003998,143.664612 
	C315.678040,136.081345 315.338470,128.498672 315.038422,121.679085 
	C311.464172,127.950531 308.130768,134.970016 303.718475,141.228882 
	C298.807251,148.195465 292.574005,153.223572 282.829071,152.149124 
	C275.602631,151.352341 268.217804,151.992355 261.412750,151.992355 
	C260.003296,156.038315 259.565063,160.327179 257.232819,162.897354 
	C255.743652,164.538452 251.452087,163.636581 247.875977,163.917297 
	C247.875977,158.331467 247.875977,153.401001 247.875977,147.662125 
	C245.379333,148.530640 243.449417,148.922745 241.796158,149.822968 
	C231.932251,155.193970 214.754227,150.662186 209.040604,140.994003 
	C206.705566,137.042786 204.607788,132.951340 202.538727,129.173279 
	C199.434494,134.967545 196.349075,141.133682 192.827698,147.039871 
	C191.832550,148.709015 189.675629,150.489914 187.857788,150.725616 
	C179.749893,151.777084 171.578918,152.397491 163.414551,152.921738 
	C161.163437,153.066269 158.855362,152.076660 156.575455,152.086273 
	C154.095596,152.096741 151.622223,152.901276 149.138763,152.944809 
	C141.975250,153.070435 134.803833,153.137833 127.643806,152.935196 
	C122.531448,152.790527 118.716835,147.608673 119.663200,142.604385 
	C121.337799,133.749298 120.550072,132.888229 111.902786,129.790375 
	C109.837120,129.050339 108.072632,126.162735 107.172783,123.869286 
	C106.385750,121.863358 107.008591,119.304260 107.008591,117.057739 
	C106.399948,116.905060 106.057449,116.695076 105.812126,116.776802 
	C103.354073,117.595741 99.222610,117.965576 98.796600,119.413475 
	C97.715553,123.087631 98.301651,127.251106 98.212143,131.218475 
	C98.045082,138.622726 98.110428,146.043777 97.585075,153.422684 
	C97.373894,156.388779 95.956909,159.309158 91.889648,159.004074 
	C88.319817,158.736328 85.592300,157.583969 85.560944,153.438492 
	C77.861183,151.580078 69.032043,156.043945 62.582935,148.093124 
	C57.559116,154.483231 52.186470,152.858948 45.383774,150.789322 
	C39.060917,148.865692 31.458324,149.664993 24.738104,150.942810 
	C17.841932,152.254105 15.274526,151.754517 13.479204,144.805008 
	C13.071331,143.226151 12.999829,141.518448 13.030777,139.874893 
	C13.266863,127.336624 13.826734,114.798759 13.788083,102.262306 
	C13.724203,81.542625 13.246254,60.824535 13.025286,40.104893 
	C12.923152,30.528177 21.572470,24.645147 30.348038,28.898729 
	C37.098980,32.170959 43.679913,29.943295 50.201519,29.569159 
	C55.485840,29.266003 58.262283,29.620905 60.303310,34.751373 
	C60.910633,36.277988 61.335369,37.895630 61.667507,39.507870 
	C61.966019,40.956863 62.022758,42.455666 62.095245,43.110863 
	C65.269981,42.421101 68.474945,41.147121 71.682236,41.141247 
	C79.801468,41.126366 87.937866,42.157841 96.037422,41.883965 
	C105.670708,41.558235 112.738815,45.204063 117.785194,53.224552 
	C118.209381,53.898750 118.804802,54.465214 119.470825,55.261177 
	C121.635727,50.469688 116.285629,42.568237 125.825645,41.435120 
	C121.469872,32.043015 120.997124,22.677706 124.102654,13.220814 
	C126.582008,5.670712 132.801910,1.895155 140.228912,3.046545 
	C145.491241,3.862350 152.130676,12.115402 151.933395,18.172304 
	C151.707657,25.102293 151.024384,32.017353 150.542862,38.939102 
	C150.510025,39.411175 150.322952,40.208549 150.508423,40.311211 
	C157.190811,44.010399 154.347092,50.530544 155.304199,57.275948 
	C159.347488,48.217693 165.827148,43.738220 174.327682,41.727165 
	C181.933273,39.927841 189.210236,41.215706 196.216064,43.878738 
	C197.936447,44.532681 199.541718,47.443569 199.826431,49.506439 
	C200.389130,53.583038 199.992447,57.792049 200.300171,62.079834 
	C201.163330,52.886841 208.036682,48.319054 214.383087,43.443813 
	C215.592194,42.515007 217.506165,42.550564 219.037796,41.986145 
	C223.749893,40.249691 229.054413,42.080978 233.698471,38.529282 
	C237.301117,35.774033 251.659729,42.881798 253.217453,47.367794 
	C254.918121,52.265465 256.680328,57.141766 259.007355,61.938683 
	C259.007355,56.846558 259.099518,51.752232 258.978088,46.663002 
	C258.881958,42.634579 260.665283,40.905407 264.681366,40.975990 
	C271.345123,41.093113 278.049652,41.459644 284.670654,40.914944 
	C299.341187,39.708038 307.253296,48.114422 311.922791,60.277401 
	C312.903503,62.831890 313.639374,65.480370 315.007782,67.982918 
	C315.007782,62.501617 315.035461,57.020142 315.000916,51.539059 
	C314.955933,44.401360 319.687225,39.147964 329.170258,40.720177 
	C337.528503,42.105911 345.778839,41.793804 354.064484,41.082073 
	C359.007690,40.657452 363.914978,44.510429 363.918152,49.957474 
	C363.921021,54.910530 363.335663,59.866077 362.956879,64.816490 
	C362.679596,68.440437 362.476532,72.082191 361.929688,75.668648 
	C361.622955,77.680199 360.684387,79.595413 359.818451,82.189095 
	C360.262543,82.515694 361.275269,83.260490 362.620941,84.483894 
	C363.542938,92.724236 364.131989,100.485962 364.695007,107.904465 
	C368.320312,107.422531 371.170959,107.043579 373.703735,106.706886 
	C372.518768,104.747032 371.056000,102.794319 370.080444,100.622734 
	C367.612244,95.128433 365.362885,89.535805 363.025879,83.982559 
M125.177635,144.594421 
	C126.367783,145.995911 127.519669,148.564377 128.754425,148.604858 
	C135.519440,148.826599 142.304794,148.428284 149.730377,147.650177 
	C149.671249,136.697311 149.490372,125.743469 149.579041,114.791801 
	C149.748688,93.837990 150.073471,72.885460 150.327896,51.932323 
	C150.351105,50.020424 150.330994,48.107998 150.330994,46.164230 
	C141.448318,46.164230 133.373367,46.164230 125.115387,46.164230 
	C124.751053,51.687267 124.172813,56.909012 124.106094,62.137276 
	C123.915901,77.041710 123.817047,91.949883 123.954796,106.854057 
	C123.987953,110.442383 122.898956,112.073784 119.406456,113.093643 
	C110.681824,115.641373 110.480110,116.276276 112.397102,125.427437 
	C114.279968,125.992897 116.128571,126.812607 118.052696,127.071907 
	C122.309341,127.645546 125.304184,129.954575 125.896187,134.005920 
	C126.366310,137.223282 125.447350,140.643631 125.177635,144.594421 
M66.442429,120.693077 
	C66.586945,128.492111 66.649902,136.294388 66.959816,144.086823 
	C67.008904,145.321274 68.154839,147.550980 68.821579,147.561569 
	C75.643181,147.669861 82.470497,147.411392 89.296562,147.272690 
	C89.552048,147.267502 89.811111,147.439087 90.070366,147.532394 
	C90.356087,148.860306 90.641808,150.188217 90.927528,151.516129 
	C92.680641,150.396713 93.639786,149.109497 93.782883,147.737183 
	C94.092445,144.768295 94.028488,141.755920 94.037758,138.761093 
	C94.062836,130.658340 94.046349,122.555466 94.046349,114.562202 
	C109.607910,112.258591 120.105316,100.238503 120.069817,84.904434 
	C120.057297,79.495346 119.409515,74.034592 118.502151,68.690750 
	C115.846863,53.052734 108.617302,44.884636 92.619080,45.879883 
	C85.832680,46.302063 78.939682,46.297855 72.191689,45.579903 
	C67.974167,45.131176 66.759323,46.180836 66.870224,50.133514 
	C67.098595,58.272354 67.249451,66.417130 67.218651,74.558655 
	C67.162689,89.351913 66.950844,104.144577 66.701172,119.445038 
	C66.732224,119.614853 66.763275,119.784660 66.442429,120.693077 
M263.621735,48.015255 
	C263.650879,53.642757 263.680023,59.270264 263.591431,65.406990 
	C263.610992,65.580101 263.630585,65.753212 263.329163,66.686333 
	C263.329163,93.616287 263.329163,120.546249 263.329163,147.947830 
	C269.783691,147.947830 276.094666,147.595169 282.348877,148.039917 
	C289.650360,148.559128 294.703918,145.341812 299.071228,139.985016 
	C307.130402,130.099960 311.172363,118.683876 312.594208,106.166557 
	C314.492340,89.456535 312.690948,73.274445 305.843353,57.795956 
	C302.256592,49.688358 295.997833,45.287075 287.144287,45.153126 
	C279.831604,45.042492 272.511108,45.447083 264.382965,45.671032 
	C264.181763,46.148296 263.980560,46.625561 263.621735,48.015255 
M204.870911,102.273773 
	C204.461624,103.383293 204.052338,104.492813 203.748856,106.573662 
	C203.221161,117.353127 205.920563,127.291595 211.623642,136.416458 
	C214.127563,140.422714 216.071884,144.999680 221.868271,145.471283 
	C224.785522,145.708618 227.665924,146.525635 230.534805,147.200333 
	C234.548569,148.144272 244.990829,144.358139 247.031601,140.947678 
	C248.780167,138.025543 250.259140,134.942062 251.777405,132.080597 
	C252.879974,140.935669 250.437561,150.252365 254.207672,159.160904 
	C255.141342,157.910828 255.773361,156.582413 255.691040,155.299835 
	C254.196655,132.018860 259.191772,108.844360 256.916779,85.575684 
	C255.652802,72.648018 253.546738,59.841183 248.600128,47.697571 
	C248.318832,47.006981 247.593674,46.497189 246.902374,45.705456 
	C245.709946,46.667763 244.746338,47.445396 243.651749,48.328751 
	C241.105682,46.084900 238.684479,43.951096 235.952621,41.543514 
	C234.782944,43.424328 233.959854,44.747852 233.693939,45.175426 
	C228.754028,45.697983 224.493759,45.995983 220.283691,46.628162 
	C213.167221,47.696762 207.907028,52.524254 206.476944,58.670921 
	C204.763779,66.034286 205.869812,74.053574 206.111145,82.096313 
	C206.111145,82.096313 206.476791,82.392532 206.186310,83.066902 
	C205.506302,84.500313 204.203827,85.957817 204.258194,87.362801 
	C204.453278,92.402527 205.107346,97.424492 204.870911,102.273773 
M17.672132,140.663803 
	C18.659353,142.844238 19.621740,146.893433 20.637760,146.906952 
	C28.181978,147.007202 35.732826,146.154678 43.290962,145.953644 
	C45.404934,145.897430 47.672813,146.751175 49.656727,147.655548 
	C54.385929,149.811356 58.311729,148.190750 58.746124,143.046478 
	C59.248760,137.094070 59.060955,131.068298 58.851547,125.085632 
	C58.816673,124.089363 57.274769,122.521355 56.205303,122.300102 
	C52.662781,121.567245 49.025249,121.057213 45.410656,120.958954 
	C38.180534,120.762413 37.632263,120.370209 37.972866,113.427406 
	C38.043499,111.987595 38.309372,110.557373 38.490524,109.079834 
	C41.731640,109.079834 44.544113,109.079842 47.356586,109.079842 
	C50.280033,109.079842 53.203480,109.079834 57.479172,109.079834 
	C57.552895,105.496239 57.873493,101.498474 57.636776,97.533997 
	C57.465771,94.670021 56.350029,91.873199 56.027649,89.004616 
	C55.675915,85.874863 56.538200,82.338829 55.327362,79.684090 
	C54.677238,78.258698 50.785419,78.316582 48.360184,77.690399 
	C48.041420,77.608093 47.755470,77.400322 47.437111,77.314514 
	C45.515629,76.796631 43.589138,76.297348 41.128376,75.651100 
	C40.698925,72.892883 37.616272,68.733360 43.147995,65.961159 
	C36.254093,58.743687 43.350773,52.739754 44.382969,45.331291 
	C48.207443,49.421257 46.598698,52.446117 45.111607,55.939972 
	C44.324459,57.789341 44.907455,60.697941 45.873322,62.626915 
	C46.396690,63.672150 49.955376,64.548347 50.515312,63.957222 
	C51.891457,62.504436 52.575535,60.215126 53.046715,58.150177 
	C53.356926,56.790661 52.813492,55.236359 52.652309,53.769279 
	C53.061794,53.900761 53.471279,54.032246 53.880760,54.163727 
	C54.897667,52.159653 56.766499,50.151207 56.756256,48.152397 
	C56.734108,43.831596 55.757851,39.514359 55.120781,35.203217 
	C55.096924,35.041775 54.543396,34.867462 54.229885,34.853626 
	C49.396809,34.640347 44.454109,35.072662 39.728569,35.095669 
	C35.684559,35.115353 32.027824,35.991070 28.062025,33.961960 
	C22.253222,30.989866 18.270319,33.436481 18.135866,39.682693 
	C18.081310,42.217197 18.036245,44.752499 18.035074,47.287457 
	C18.030422,57.357399 17.952164,67.428535 18.080397,77.496948 
	C18.190083,86.109428 19.015295,94.738869 18.649012,103.323479 
	C18.328688,110.830894 15.872324,118.259537 18.615202,125.802200 
	C19.039267,126.968330 18.685200,128.445816 18.579931,129.770462 
	C18.314379,133.112167 17.985477,136.448837 17.672132,140.663803 
M355.160889,46.736313 
	C348.190643,46.772366 341.217926,46.924004 334.251556,46.777126 
	C332.035278,46.730400 329.852997,45.778019 327.625153,45.434677 
	C322.371979,44.625088 320.756134,46.201756 320.794922,51.425720 
	C320.814758,54.103008 320.100372,56.784664 320.107361,59.463337 
	C320.129395,67.928238 320.305176,76.393288 320.478729,84.857101 
	C320.643158,92.876625 321.109589,100.896996 321.028809,108.912811 
	C320.918274,119.883369 320.377228,130.849091 320.128296,141.819336 
	C320.095276,143.273666 320.495239,144.829651 321.081818,146.169022 
	C321.394043,146.881958 322.561462,147.710281 323.299500,147.671005 
	C330.656525,147.279572 337.999115,146.528824 345.358307,146.318832 
	C347.587036,146.255249 349.998657,147.264328 352.074036,148.291977 
	C356.196259,150.333145 360.485229,148.709503 361.170959,144.171219 
	C361.738129,140.417450 361.773041,136.549011 361.691559,132.738907 
	C361.539185,125.613579 361.430511,125.643120 354.160950,124.990387 
	C351.388855,124.741478 348.638458,124.237534 345.864777,124.022232 
	C340.405640,123.598511 339.758484,122.859406 340.514618,117.278526 
	C340.687927,115.999191 341.009766,114.739983 341.206299,113.756577 
	C345.663727,113.756577 349.780914,113.711990 353.896759,113.767403 
	C359.567932,113.843750 363.300659,109.042557 360.429626,103.960449 
	C358.063232,99.771660 358.812592,95.699028 358.278381,91.561600 
	C358.054382,89.826569 358.050873,88.063065 357.968170,86.667999 
	C352.883759,85.561836 348.498413,84.607758 343.195251,83.453995 
	C343.195251,81.422195 343.195251,78.492393 343.195251,74.876205 
	C348.116119,75.254768 352.717865,75.608780 357.286530,75.960243 
	C358.090942,69.294403 359.077576,61.944794 359.823151,54.570805 
	C360.165985,51.180027 359.459259,48.034504 355.160889,46.736313 
M156.674545,113.786583 
	C157.051514,125.056068 157.428482,136.325546 157.828629,148.287659 
	C163.170914,148.287659 167.960556,148.680008 172.650040,148.163254 
	C176.388062,147.751343 180.178223,145.000000 183.633301,145.489410 
	C188.866730,146.230743 189.818726,143.254303 191.201508,139.868942 
	C191.384766,139.420273 191.755478,139.039871 192.072845,138.655487 
	C203.606552,124.685638 199.611084,98.581490 186.491516,88.968674 
	C183.535431,86.802727 181.652374,82.919159 184.491226,78.080200 
	C188.091476,82.679276 192.172073,82.514244 195.656158,80.935242 
	C195.656158,70.736259 195.723343,61.111877 195.574600,51.490833 
	C195.555130,50.230423 194.734756,48.252644 193.767242,47.849030 
	C183.601135,43.608055 167.935043,43.577465 161.120285,56.251335 
	C152.879242,71.577835 151.973297,91.427597 168.185867,106.007980 
	C170.855011,108.408386 172.925720,111.334892 170.619980,116.172485 
	C166.754608,109.764938 161.789154,111.988297 156.674545,113.786583 
M379.636993,111.324516 
	C376.089539,111.324516 372.542084,111.324516 368.579529,111.324516 
	C369.306183,126.729134 368.380707,141.517075 373.804443,155.899139 
	C375.510101,153.773727 376.025421,151.440811 376.956665,149.287766 
	C377.736145,147.485596 378.879425,144.559250 380.074127,144.449783 
	C384.265533,144.065689 388.627167,145.282623 392.773438,144.739990 
	C396.387573,144.267014 401.922974,146.385406 402.760529,139.790741 
	C402.836548,139.191864 403.373169,138.615219 403.786316,138.100906 
	C409.498383,130.989639 411.574371,122.764671 410.782288,113.850616 
	C409.860138,103.472542 407.077911,93.930794 397.486969,87.898125 
	C395.290253,86.516411 394.997711,80.316368 396.039276,78.956932 
	C400.505829,79.653160 404.358673,80.253731 407.719788,80.777641 
	C407.719788,69.585144 407.838318,59.635677 407.566620,49.696880 
	C407.533447,48.482796 405.608429,46.674400 404.218231,46.242859 
	C389.459167,41.661293 374.719910,45.446030 369.855286,62.772057 
	C365.306763,78.972305 367.130310,93.434555 380.406952,105.224930 
	C382.928375,107.464104 385.073486,110.366821 382.227631,115.550659 
	C381.276093,113.950714 380.700867,112.983459 379.636993,111.324516 
M147.911316,21.892067 
	C147.621780,19.917374 147.658966,17.820715 146.976562,15.992677 
	C145.423965,11.833553 143.087494,7.509426 138.310287,7.396722 
	C135.526337,7.331043 131.793381,9.401758 130.025955,11.696337 
	C125.298531,17.833761 125.743347,33.628414 130.478638,39.842567 
	C131.910095,41.721062 134.532349,43.779137 136.653625,43.828102 
	C141.717392,43.945000 145.848770,40.292091 146.904007,35.158806 
	C147.731018,31.135759 147.640991,26.924200 147.911316,21.892067 
M62.006687,90.057755 
	C62.006687,76.037308 62.006687,62.016865 62.006687,47.996418 
	C61.038792,50.316128 60.414604,52.650379 60.186771,55.022690 
	C59.933773,57.657032 60.005547,60.326019 60.000191,62.980053 
	C59.981903,72.046188 59.274197,72.817581 50.338074,73.369804 
	C55.010708,74.143608 60.458061,73.904037 60.020855,80.986885 
	C59.847290,83.798683 59.873280,86.637245 60.040016,89.449898 
	C60.132465,91.009377 60.702869,92.540527 61.057842,94.084442 
	C61.374149,94.013031 61.690456,93.941612 62.006763,93.870201 
	C62.006763,92.886215 62.006763,91.902237 62.006687,90.057755 
M49.969734,116.494942 
	C53.813190,117.147270 57.656647,117.799599 61.762329,118.496437 
	C61.762329,115.568275 61.762329,112.812164 61.762329,109.419991 
	C59.374504,114.819572 55.825363,115.845505 50.743626,114.256180 
	C48.142593,113.442696 45.077324,114.113548 42.221870,114.113548 
	C42.152576,114.539688 42.083282,114.965828 42.013988,115.391968 
	C44.391865,115.657181 46.769737,115.922386 49.969734,116.494942 
M154.615097,99.821571 
	C154.348434,102.538422 154.081787,105.255272 153.811707,108.007164 
	C156.930984,108.007164 159.474533,108.007164 161.659470,108.007164 
	C160.289322,105.411789 159.081619,102.820549 157.560577,100.428543 
	C157.106247,99.714058 155.775223,99.557053 154.615097,99.821571 
M198.008301,92.595901 
	C198.124008,90.223595 198.239716,87.851280 198.356049,85.466270 
	C195.726807,85.747734 193.243896,86.013535 189.318588,86.433746 
	C192.861542,89.224243 195.432968,91.249550 198.008301,92.595901 
M362.987213,116.764580 
	C360.519379,117.598335 358.066650,119.049423 355.579895,119.110329 
	C352.436859,119.187317 349.266113,118.131943 346.107300,117.564987 
	C346.035309,118.011925 345.963287,118.458855 345.891266,118.905792 
	C351.752350,119.829262 357.613434,120.752731 364.062592,121.768852 
	C363.892120,119.636101 363.778992,118.220467 362.987213,116.764580 
M357.124847,46.564678 
	C357.315338,46.580925 357.505798,46.597176 357.696289,46.613411 
	C357.609131,46.512707 357.521973,46.412003 357.124847,46.564678 
z" />
	<path fill="#596D73" opacity="1.000000" stroke="none" d="
M205.754959,81.788803 
	C205.869812,74.053574 204.763779,66.034286 206.476944,58.670921 
	C207.907028,52.524254 213.167221,47.696762 220.283691,46.628162 
	C224.493759,45.995983 228.754028,45.697983 233.693939,45.175426 
	C233.959854,44.747852 234.782944,43.424328 235.952621,41.543514 
	C238.684479,43.951096 241.105682,46.084900 243.651749,48.328751 
	C244.746338,47.445396 245.709946,46.667763 246.902374,45.705456 
	C247.593674,46.497189 248.318832,47.006981 248.600128,47.697571 
	C253.546738,59.841183 255.652802,72.648018 256.916779,85.575684 
	C259.191772,108.844360 254.196655,132.018860 255.691040,155.299835 
	C255.773361,156.582413 255.141342,157.910828 254.207672,159.160904 
	C250.437561,150.252365 252.879974,140.935669 251.777405,132.080597 
	C250.259140,134.942062 248.780167,138.025543 247.031601,140.947678 
	C244.990829,144.358139 234.548569,148.144272 230.534805,147.200333 
	C227.665924,146.525635 224.785522,145.708618 221.868271,145.471283 
	C216.071884,144.999680 214.127563,140.422714 211.623642,136.416458 
	C205.920563,127.291595 203.221161,117.353127 204.036346,106.120865 
	C204.745193,104.596428 205.166534,103.524796 205.587891,102.453171 
	C205.107346,97.424492 204.453278,92.402527 204.258194,87.362801 
	C204.203827,85.957817 205.506302,84.500313 206.526215,82.424461 
	C206.866104,80.708664 206.866104,79.635307 206.866104,78.561951 
	C206.568939,78.563675 206.271774,78.565399 205.974594,78.567123 
	C205.901382,79.641022 205.828171,80.714912 205.754959,81.788803 
M232.106003,90.500824 
	C231.984177,81.776337 231.862335,73.051842 231.740509,64.327354 
	C230.972534,64.345245 230.204575,64.363136 229.436600,64.381027 
	C227.449112,85.979637 227.682938,107.598770 229.259094,129.375992 
	C234.028122,128.017761 234.516327,125.295631 232.965469,121.580811 
	C232.414291,120.260551 232.036240,118.761734 232.023453,117.340431 
	C231.945969,108.727844 231.996994,100.114090 232.106003,90.500824 
z" />
	<path fill="#5A6E73" opacity="1.000000" stroke="none" d="
M265.194092,45.623375 
	C272.511108,45.447083 279.831604,45.042492 287.144287,45.153126 
	C295.997833,45.287075 302.256592,49.688358 305.843353,57.795956 
	C312.690948,73.274445 314.492340,89.456535 312.594208,106.166557 
	C311.172363,118.683876 307.130402,130.099960 299.071228,139.985016 
	C294.703918,145.341812 289.650360,148.559128 282.348877,148.039917 
	C276.094666,147.595169 269.783691,147.947830 263.329163,147.947830 
	C263.329163,120.546249 263.329163,93.616287 263.717346,66.252296 
	C264.204987,65.701385 264.304474,65.584511 264.403992,65.467644 
	C264.172363,65.277687 263.940765,65.087730 263.709167,64.897766 
	C263.680023,59.270264 263.650879,53.642757 264.007019,47.388466 
	C264.659576,46.382236 264.926819,46.002804 265.194092,45.623375 
M287.054260,87.500000 
	C286.527893,77.472404 288.406006,67.244438 284.225891,57.493069 
	C284.225891,79.415909 284.225891,101.338753 284.225891,123.261597 
	C288.037781,111.881592 286.773804,100.132462 287.054260,87.500000 
z" />
	<path fill="#596D73" opacity="1.000000" stroke="none" d="
M66.804047,118.937492 
	C66.950844,104.144577 67.162689,89.351913 67.218651,74.558655 
	C67.249451,66.417130 67.098595,58.272354 66.870224,50.133514 
	C66.759323,46.180836 67.974167,45.131176 72.191689,45.579903 
	C78.939682,46.297855 85.832680,46.302063 92.619080,45.879883 
	C108.617302,44.884636 115.846863,53.052734 118.502151,68.690750 
	C119.409515,74.034592 120.057297,79.495346 120.069817,84.904434 
	C120.105316,100.238503 109.607910,112.258591 94.046349,114.562202 
	C94.046349,122.555466 94.062836,130.658340 94.037758,138.761093 
	C94.028488,141.755920 94.092445,144.768295 93.782883,147.737183 
	C93.639786,149.109497 92.680641,150.396713 90.927528,151.516129 
	C90.641808,150.188217 90.356087,148.860306 90.069443,147.530334 
	C89.811111,147.439087 89.552048,147.267502 89.296562,147.272690 
	C82.470497,147.411392 75.643181,147.669861 68.821579,147.561569 
	C68.154839,147.550980 67.008904,145.321274 66.959816,144.086823 
	C66.649902,136.294388 66.586945,128.492111 66.821808,120.253464 
	C67.068810,119.521729 66.936432,119.229607 66.804047,118.937492 
M90.395828,143.026657 
	C90.258797,143.013092 90.121773,142.999527 89.516724,143.057434 
	C89.591209,143.307602 89.665695,143.557755 89.740181,143.807922 
	C89.833832,143.545288 89.927483,143.282654 90.395828,143.026657 
M90.919167,95.227875 
	C91.890564,96.751724 92.861969,98.275574 93.833374,99.799423 
	C97.601601,85.358093 96.966202,71.462349 94.890884,57.558372 
	C92.134094,69.768654 95.881088,82.554008 90.919167,95.227875 
M93.608788,55.521523 
	C93.608788,55.521523 93.487610,55.602486 93.608788,55.521523 
M117.517273,77.411720 
	C117.517273,77.411720 117.583717,77.522934 117.517273,77.411720 
z" />
	<path fill="#5A6E74" opacity="1.000000" stroke="none" d="
M17.677046,140.225662 
	C17.985477,136.448837 18.314379,133.112167 18.579931,129.770462 
	C18.685200,128.445816 19.039267,126.968330 18.615202,125.802200 
	C15.872324,118.259537 18.328688,110.830894 18.649012,103.323479 
	C19.015295,94.738869 18.190083,86.109428 18.080397,77.496948 
	C17.952164,67.428535 18.030422,57.357399 18.035074,47.287457 
	C18.036245,44.752499 18.081310,42.217197 18.135866,39.682693 
	C18.270319,33.436481 22.253222,30.989866 28.062025,33.961960 
	C32.027824,35.991070 35.684559,35.115353 39.728569,35.095669 
	C44.454109,35.072662 49.396809,34.640347 54.229885,34.853626 
	C54.543396,34.867462 55.096924,35.041775 55.120781,35.203217 
	C55.757851,39.514359 56.734108,43.831596 56.756256,48.152397 
	C56.766499,50.151207 54.897667,52.159653 53.880760,54.163727 
	C53.471279,54.032246 53.061794,53.900761 52.652309,53.769279 
	C52.813492,55.236359 53.356926,56.790661 53.046715,58.150177 
	C52.575535,60.215126 51.891457,62.504436 50.515312,63.957222 
	C49.955376,64.548347 46.396690,63.672150 45.873322,62.626915 
	C44.907455,60.697941 44.324459,57.789341 45.111607,55.939972 
	C46.598698,52.446117 48.207443,49.421257 44.382969,45.331291 
	C43.350773,52.739754 36.254093,58.743687 43.147995,65.961159 
	C37.616272,68.733360 40.698925,72.892883 41.128376,75.651100 
	C43.589138,76.297348 45.515629,76.796631 47.437111,77.314514 
	C47.755470,77.400322 48.041420,77.608093 48.360184,77.690399 
	C50.785419,78.316582 54.677238,78.258698 55.327362,79.684090 
	C56.538200,82.338829 55.675915,85.874863 56.027649,89.004616 
	C56.350029,91.873199 57.465771,94.670021 57.636776,97.533997 
	C57.873493,101.498474 57.552895,105.496239 57.479172,109.079834 
	C53.203480,109.079834 50.280033,109.079842 47.356586,109.079842 
	C44.544113,109.079842 41.731640,109.079834 38.490524,109.079834 
	C38.309372,110.557373 38.043499,111.987595 37.972866,113.427406 
	C37.632263,120.370209 38.180534,120.762413 45.410656,120.958954 
	C49.025249,121.057213 52.662781,121.567245 56.205303,122.300102 
	C57.274769,122.521355 58.816673,124.089363 58.851547,125.085632 
	C59.060955,131.068298 59.248760,137.094070 58.746124,143.046478 
	C58.311729,148.190750 54.385929,149.811356 49.656727,147.655548 
	C47.672813,146.751175 45.404934,145.897430 43.290962,145.953644 
	C35.732826,146.154678 28.181978,147.007202 20.637760,146.906952 
	C19.621740,146.893433 18.659353,142.844238 17.677046,140.225662 
z" />
	<path fill="#5A6E74" opacity="1.000000" stroke="none" d="
M355.470703,46.632622 
	C359.459259,48.034504 360.165985,51.180027 359.823151,54.570805 
	C359.077576,61.944794 358.090942,69.294403 357.286530,75.960243 
	C352.717865,75.608780 348.116119,75.254768 343.195251,74.876205 
	C343.195251,78.492393 343.195251,81.422195 343.195251,83.453995 
	C348.498413,84.607758 352.883759,85.561836 357.968170,86.667999 
	C358.050873,88.063065 358.054382,89.826569 358.278381,91.561600 
	C358.812592,95.699028 358.063232,99.771660 360.429626,103.960449 
	C363.300659,109.042557 359.567932,113.843750 353.896759,113.767403 
	C349.780914,113.711990 345.663727,113.756577 341.206299,113.756577 
	C341.009766,114.739983 340.687927,115.999191 340.514618,117.278526 
	C339.758484,122.859406 340.405640,123.598511 345.864777,124.022232 
	C348.638458,124.237534 351.388855,124.741478 354.160950,124.990387 
	C361.430511,125.643120 361.539185,125.613579 361.691559,132.738907 
	C361.773041,136.549011 361.738129,140.417450 361.170959,144.171219 
	C360.485229,148.709503 356.196259,150.333145 352.074036,148.291977 
	C349.998657,147.264328 347.587036,146.255249 345.358307,146.318832 
	C337.999115,146.528824 330.656525,147.279572 323.299500,147.671005 
	C322.561462,147.710281 321.394043,146.881958 321.081818,146.169022 
	C320.495239,144.829651 320.095276,143.273666 320.128296,141.819336 
	C320.377228,130.849091 320.918274,119.883369 321.028809,108.912811 
	C321.109589,100.896996 320.643158,92.876625 320.478729,84.857101 
	C320.305176,76.393288 320.129395,67.928238 320.107361,59.463337 
	C320.100372,56.784664 320.814758,54.103008 320.794922,51.425720 
	C320.756134,46.201756 322.371979,44.625088 327.625153,45.434677 
	C329.852997,45.778019 332.035278,46.730400 334.251556,46.777126 
	C341.217926,46.924004 348.190643,46.772366 355.470703,46.632622 
M353.553162,87.604050 
	C353.553162,87.604050 353.705200,87.375992 353.705200,87.375992 
	C353.705200,87.375992 353.401489,87.394760 353.553162,87.604050 
z" />
	<path fill="#596D73" opacity="1.000000" stroke="none" d="
M156.858063,113.353714 
	C161.789154,111.988297 166.754608,109.764938 170.619980,116.172485 
	C172.925720,111.334892 170.855011,108.408386 168.185867,106.007980 
	C151.973297,91.427597 152.879242,71.577835 161.120285,56.251335 
	C167.935043,43.577465 183.601135,43.608055 193.767242,47.849030 
	C194.734756,48.252644 195.555130,50.230423 195.574600,51.490833 
	C195.723343,61.111877 195.656158,70.736259 195.656158,80.935242 
	C192.172073,82.514244 188.091476,82.679276 184.491226,78.080200 
	C181.652374,82.919159 183.535431,86.802727 186.491516,88.968674 
	C199.611084,98.581490 203.606552,124.685638 192.072845,138.655487 
	C191.755478,139.039871 191.384766,139.420273 191.201508,139.868942 
	C189.818726,143.254303 188.866730,146.230743 183.633301,145.489410 
	C180.178223,145.000000 176.388062,147.751343 172.650040,148.163254 
	C167.960556,148.680008 163.170914,148.287659 157.828629,148.287659 
	C157.428482,136.325546 157.051514,125.056068 156.858063,113.353714 
z" />
	<path fill="#596D73" opacity="1.000000" stroke="none" d="
M379.881317,111.670364 
	C380.700867,112.983459 381.276093,113.950714 382.227631,115.550659 
	C385.073486,110.366821 382.928375,107.464104 380.406952,105.224930 
	C367.130310,93.434555 365.306763,78.972305 369.855286,62.772057 
	C374.719910,45.446030 389.459167,41.661293 404.218231,46.242859 
	C405.608429,46.674400 407.533447,48.482796 407.566620,49.696880 
	C407.838318,59.635677 407.719788,69.585144 407.719788,80.777641 
	C404.358673,80.253731 400.505829,79.653160 396.039276,78.956932 
	C394.997711,80.316368 395.290253,86.516411 397.486969,87.898125 
	C407.077911,93.930794 409.860138,103.472542 410.782288,113.850616 
	C411.574371,122.764671 409.498383,130.989639 403.786316,138.100906 
	C403.373169,138.615219 402.836548,139.191864 402.760529,139.790741 
	C401.922974,146.385406 396.387573,144.267014 392.773438,144.739990 
	C388.627167,145.282623 384.265533,144.065689 380.074127,144.449783 
	C378.879425,144.559250 377.736145,147.485596 376.956665,149.287766 
	C376.025421,151.440811 375.510101,153.773727 373.804443,155.899139 
	C368.380707,141.517075 369.306183,126.729134 368.579529,111.324516 
	C372.542084,111.324516 376.089539,111.324516 379.881317,111.670364 
z" />
	<path fill="#596D73" opacity="1.000000" stroke="none" d="
M125.145142,143.973846 
	C125.447350,140.643631 126.366310,137.223282 125.896187,134.005920 
	C125.304184,129.954575 122.309341,127.645546 118.052696,127.071907 
	C116.128571,126.812607 114.279968,125.992897 112.396210,125.430206 
	C110.480110,116.276276 110.681824,115.641373 119.406456,113.093643 
	C122.898956,112.073784 123.987953,110.442383 123.954796,106.854057 
	C123.817047,91.949883 123.915901,77.041710 124.106094,62.137276 
	C124.172813,56.909012 124.751053,51.687267 125.115387,46.164230 
	C133.373367,46.164230 141.448318,46.164230 150.330994,46.164230 
	C150.330994,48.107998 150.351105,50.020424 150.327896,51.932323 
	C150.073471,72.885460 149.748688,93.837990 149.579041,114.791801 
	C149.490372,125.743469 149.671249,136.697311 149.129547,147.614380 
	C140.864395,145.532333 132.250839,149.643799 125.145142,143.973846 
z" />
	<path fill="#5A6E74" opacity="1.000000" stroke="none" d="
M147.934860,22.344231 
	C147.640991,26.924200 147.731018,31.135759 146.904007,35.158806 
	C145.848770,40.292091 141.717392,43.945000 136.653625,43.828102 
	C134.532349,43.779137 131.910095,41.721062 130.478638,39.842567 
	C125.743347,33.628414 125.298531,17.833761 130.025955,11.696337 
	C131.793381,9.401758 135.526337,7.331043 138.310287,7.396722 
	C143.087494,7.509426 145.423965,11.833553 146.976562,15.992677 
	C147.658966,17.820715 147.621780,19.917374 147.934860,22.344231 
z" />
	<path fill="#385266" opacity="1.000000" stroke="none" d="
M62.006725,90.488007 
	C62.006763,91.902237 62.006763,92.886215 62.006763,93.870201 
	C61.690456,93.941612 61.374149,94.013031 61.057842,94.084442 
	C60.702869,92.540527 60.132465,91.009377 60.040016,89.449898 
	C59.873280,86.637245 59.847290,83.798683 60.020855,80.986885 
	C60.458061,73.904037 55.010708,74.143608 50.338074,73.369804 
	C59.274197,72.817581 59.981903,72.046188 60.000191,62.980053 
	C60.005547,60.326019 59.933773,57.657032 60.186771,55.022690 
	C60.414604,52.650379 61.038792,50.316128 62.006687,47.996418 
	C62.006687,62.016865 62.006687,76.037308 62.006725,90.488007 
z" />
	<path fill="#385266" opacity="1.000000" stroke="none" d="
M363.008789,83.995369 
	C365.362885,89.535805 367.612244,95.128433 370.080444,100.622734 
	C371.056000,102.794319 372.518768,104.747032 373.703735,106.706886 
	C371.170959,107.043579 368.320312,107.422531 364.695007,107.904465 
	C364.131989,100.485962 363.542938,92.724236 362.957153,84.500198 
	C362.960449,84.037888 362.991730,84.008179 363.008789,83.995369 
z" />
	<path fill="#385266" opacity="1.000000" stroke="none" d="
M49.558670,116.341270 
	C46.769737,115.922386 44.391865,115.657181 42.013988,115.391968 
	C42.083282,114.965828 42.152576,114.539688 42.221870,114.113548 
	C45.077324,114.113548 48.142593,113.442696 50.743626,114.256180 
	C55.825363,115.845505 59.374504,114.819572 61.762329,109.419991 
	C61.762329,112.812164 61.762329,115.568275 61.762329,118.496437 
	C57.656647,117.799599 53.813190,117.147270 49.558670,116.341270 
z" />
	<path fill="#6B7B7E" opacity="1.000000" stroke="none" d="
M125.161392,144.284134 
	C132.250839,149.643799 140.864395,145.532333 148.805939,147.910767 
	C142.304794,148.428284 135.519440,148.826599 128.754425,148.604858 
	C127.519669,148.564377 126.367783,145.995911 125.161392,144.284134 
z" />
	<path fill="#385266" opacity="1.000000" stroke="none" d="
M154.730469,99.483101 
	C155.775223,99.557053 157.106247,99.714058 157.560577,100.428543 
	C159.081619,102.820549 160.289322,105.411789 161.659470,108.007164 
	C159.474533,108.007164 156.930984,108.007164 153.811707,108.007164 
	C154.081787,105.255272 154.348434,102.538422 154.730469,99.483101 
z" />
	<path fill="#385266" opacity="1.000000" stroke="none" d="
M198.006348,92.935379 
	C195.432968,91.249550 192.861542,89.224243 189.318588,86.433746 
	C193.243896,86.013535 195.726807,85.747734 198.356049,85.466270 
	C198.239716,87.851280 198.124008,90.223595 198.006348,92.935379 
z" />
	<path fill="#385266" opacity="1.000000" stroke="none" d="
M363.326538,116.784706 
	C363.778992,118.220467 363.892120,119.636101 364.062592,121.768852 
	C357.613434,120.752731 351.752350,119.829262 345.891266,118.905792 
	C345.963287,118.458855 346.035309,118.011925 346.107300,117.564987 
	C349.266113,118.131943 352.436859,119.187317 355.579895,119.110329 
	C358.066650,119.049423 360.519379,117.598335 363.326538,116.784706 
z" />
	<path fill="#AFB4AC" opacity="1.000000" stroke="none" d="
M205.229401,102.363464 
	C205.166534,103.524796 204.745193,104.596428 203.983444,105.635193 
	C204.052338,104.492813 204.461624,103.383293 205.229401,102.363464 
z" />
	<path fill="#50666D" opacity="1.000000" stroke="none" d="
M66.752609,119.191269 
	C66.936432,119.229607 67.068810,119.521729 66.997757,119.884155 
	C66.763275,119.784660 66.732224,119.614853 66.752609,119.191269 
z" />
	<path fill="#50666D" opacity="1.000000" stroke="none" d="
M263.650269,65.152382 
	C263.940765,65.087730 264.172363,65.277687 264.403992,65.467644 
	C264.304474,65.584511 264.204987,65.701385 263.877838,65.872292 
	C263.630585,65.753212 263.610992,65.580101 263.650269,65.152382 
z" />
	<path fill="#5A6E74" opacity="1.000000" stroke="none" d="
M357.279816,46.437988 
	C357.521973,46.412003 357.609131,46.512707 357.696289,46.613419 
	C357.505798,46.597176 357.315338,46.580925 357.279816,46.437988 
z" />
	<path fill="#50666D" opacity="1.000000" stroke="none" d="
M264.788513,45.647202 
	C264.926819,46.002804 264.659576,46.382236 264.085846,46.932251 
	C263.980560,46.625561 264.181763,46.148296 264.788513,45.647202 
z" />
	<path fill="#D8D5C7" opacity="1.000000" stroke="none" d="
M232.055542,91.000778 
	C231.996994,100.114090 231.945969,108.727844 232.023453,117.340431 
	C232.036240,118.761734 232.414291,120.260551 232.965469,121.580811 
	C234.516327,125.295631 234.028122,128.017761 229.259094,129.375992 
	C227.682938,107.598770 227.449112,85.979637 229.436600,64.381027 
	C230.204575,64.363136 230.972534,64.345245 231.740509,64.327354 
	C231.862335,73.051842 231.984177,81.776337 232.055542,91.000778 
z" />
	<path fill="#E1DCCD" opacity="1.000000" stroke="none" d="
M205.933044,81.942558 
	C205.828171,80.714912 205.901382,79.641022 205.974594,78.567123 
	C206.271774,78.565399 206.568939,78.563675 206.866104,78.561951 
	C206.866104,79.635307 206.866104,80.708664 206.671448,82.087280 
	C206.476791,82.392532 206.111145,82.096313 205.933044,81.942558 
z" />
	<path fill="#E1DCCD" opacity="1.000000" stroke="none" d="
M287.054291,88.000000 
	C286.773804,100.132462 288.037781,111.881592 284.225891,123.261597 
	C284.225891,101.338753 284.225891,79.415909 284.225891,57.493069 
	C288.406006,67.244438 286.527893,77.472404 287.054291,88.000000 
z" />
	<path fill="#D8D5C7" opacity="1.000000" stroke="none" d="
M90.911362,94.862350 
	C95.881088,82.554008 92.134094,69.768654 94.890884,57.558372 
	C96.966202,71.462349 97.601601,85.358093 93.833374,99.799423 
	C92.861969,98.275574 91.890564,96.751724 90.911362,94.862350 
M93.531013,95.485123 
	C93.531013,95.485123 93.374550,95.359695 93.374550,95.359695 
	C93.374550,95.359695 93.370758,95.604576 93.531013,95.485123 
z" />
	<path fill="#818D8D" opacity="1.000000" stroke="none" d="
M93.548203,55.562004 
	C93.487610,55.602486 93.608788,55.521523 93.548203,55.562004 
z" />
	<path fill="#5A6D73" opacity="1.000000" stroke="none" d="
M117.550491,77.467331 
	C117.583717,77.522934 117.517273,77.411720 117.550491,77.467331 
z" />
	<path fill="#E1DCCD" opacity="1.000000" stroke="none" d="
M89.984741,142.985977 
	C90.121773,142.999527 90.258797,143.013092 90.199127,143.014496 
	C90.002419,143.002350 89.984741,142.985977 89.984741,142.985977 
z" />
	<path fill="#E1DCCD" opacity="1.000000" stroke="none" d="
M90.011772,143.011185 
	C89.927483,143.282654 89.833832,143.545288 89.740181,143.807922 
	C89.665695,143.557755 89.591209,143.307602 89.750732,143.021698 
	C89.984741,142.985977 90.002419,143.002350 90.011772,143.011185 
z" />
	<path fill="#E1DCCD" opacity="1.000000" stroke="none" d="
M353.477325,87.499405 
	C353.401489,87.394760 353.705200,87.375992 353.705200,87.375992 
	C353.705200,87.375992 353.553162,87.604050 353.477325,87.499405 
z" />
	<path fill="#596D73" opacity="1.000000" stroke="none" d="
M93.450882,95.544846 
	C93.370758,95.604576 93.374550,95.359695 93.374550,95.359695 
	C93.374550,95.359695 93.531013,95.485123 93.450882,95.544846 
z" />
</svg>