<?xml version="1.0" encoding="utf-8"?>
<!-- Generator: Adobe Illustrator 25.2.3, SVG Export Plug-In . SVG Version: 6.00 Build 0)  -->
<svg version="1.1" id="Layer_1" xmlns="http://www.w3.org/2000/svg" xmlns:xlink="http://www.w3.org/1999/xlink" x="0px" y="0px"
	 viewBox="0 0 283.5 283.5" style="enable-background:new 0 0 283.5 283.5;" xml:space="preserve">
<style type="text/css">
	.st0{fill:#FFFFFF;}
</style>
<g>
	<g>
		<path class="st0" d="M188.4,144.4v-16.5c0-5.8-5.9-10.4-13.3-10.4c-7.5,0-13.3,4.6-13.3,10.4v16.5c0,2.8,2.3,5.1,5.1,5.1h16.5
			C186.2,149.5,188.4,147.2,188.4,144.4z"/>
		<path class="st0" d="M235.3,151.1l-4.7-50.1V70.7c0-3.9-3.1-7-7-7h-18c-3.9,0-7,3.1-7,7v11h-7.5v-11c0-3.9-3.1-7-7-7h-3.2V51
			l13.3-4.4c2.9-0.9,4.8-3.6,4.8-6.6c0-3-1.9-5.7-4.8-6.6l-18.1-6c-2.1-0.7-4.5-0.3-6.3,1c-1.8,1.3-2.9,3.4-2.9,5.7v12v17.8h-4.3
			c-3.9,0-7,3.1-7,7v11h-7.5v-11c0-3.9-3.1-7-7-7h-18c-3.9,0-7,3.1-7,7v15c-23.4,7-43.1,23.6-53.8,46.4c-0.1,0-0.3,0-0.4,0
			C27.9,132.1,0,160,0,194.3c0,34.3,27.9,62.2,62.2,62.2h168.5c29.1,0,52.8-23.7,52.8-52.8C283.5,176.1,262.3,153.5,235.3,151.1z
			 M230.6,242.5H62.2c-26.6,0-48.2-21.6-48.2-48.2c0-25,19.2-45.7,43.6-48c-2,7.3-3.1,15-3.1,23c0,3.9,3.1,7,7,7c3.9,0,7-3.1,7-7
			c0-31.5,20-58.3,47.9-68.6v0.4l-8.1,86.7c-5.6,0.6-11,2.1-15.4,4.4c-3.4,1.8-4.7,6-3,9.4c1.2,2.4,3.7,3.8,6.2,3.8
			c1.1,0,2.2-0.3,3.2-0.8c8.2-4.3,22.7-4.3,31,0c3.4,1.8,7.6,0.4,9.4-3c1.8-3.4,0.5-7.6-3-9.4c-4.2-2.2-9.2-3.6-14.4-4.2l8-85.9
			c0-0.2,0-0.4,0-0.6V77.7h4v11c0,3.9,3.1,7,7,7h21.5c3.8,0,7-3.1,7-7v-11h7.5v11c0,3.9,3.1,7,7,7h21.5c3.8,0,7-3.1,7-7v-11h4v23.7
			c0,0.2,0,0.4,0,0.6l4.6,49.8c-10.6,1.9-20.3,6.8-28.1,14.5c-2.7,2.7-2.7,7.1,0,9.9c1.4,1.4,3.1,2,4.9,2c1.8,0,3.6-0.7,4.9-2
			c5.4-5.4,12.1-9,19.4-10.5h0c1.7-0.4,3.4-0.6,5.2-0.7c0.6,0.1,1.2,0.2,1.9,0.1c0.5,0,0.9-0.1,1.3-0.3
			c21.3,0.2,38.6,17.5,38.6,38.8C269.5,225.1,252.1,242.5,230.6,242.5z"/>
	</g>
</g>
</svg>
