<?xml version="1.0" encoding="utf-8"?>
<!-- Generator: Adobe Illustrator 25.2.3, SVG Export Plug-In . SVG Version: 6.00 Build 0)  -->
<svg version="1.1" id="Layer_1" xmlns="http://www.w3.org/2000/svg" xmlns:xlink="http://www.w3.org/1999/xlink" x="0px" y="0px"
	 viewBox="0 0 400 100" style="enable-background:new 0 0 400 100;" xml:space="preserve">
<style type="text/css">
	.st0{fill:#FFFFF0;}
</style>
<g>
	<g>
		<path class="st0" d="M13.4,63.1c0-17.7,12-27.9,25.2-27.9s25.2,10.2,25.2,27.9c0,17.6-12,27.8-25.2,27.8S13.4,80.7,13.4,63.1z
			 M51,63.1c0-10.6-4.7-17.7-12.4-17.7c-7.8,0-12.4,7.1-12.4,17.7c0,10.6,4.7,17.6,12.4,17.6C46.4,80.7,51,73.7,51,63.1z"/>
		<path class="st0" d="M72.9,36.6h10.2l1,7.2h0.3c4.8-4.6,10.2-8.5,17.4-8.5c11.4,0,16.3,7.7,16.3,21.1v33.3h-12.4V57.9
			c0-8.7-2.5-12-8.3-12c-4.7,0-7.7,2.3-12.1,6.6v37.1H72.9V36.6z"/>
		<path class="st0" d="M126.7,63.1c0-17.7,12.5-27.9,26.6-27.9c6.7,0,11.7,2.6,15.5,6l-6,8.1c-2.8-2.5-5.5-3.9-8.8-3.9
			c-8.6,0-14.5,7.1-14.5,17.7c0,10.6,5.8,17.6,14.1,17.6c4.1,0,7.9-2,11-4.6l5.1,8.2c-5,4.4-11.3,6.5-17.3,6.5
			C137.8,90.9,126.7,80.7,126.7,63.1z"/>
		<path class="st0" d="M173.3,63.1c0-17.2,12-27.9,24.5-27.9c14.3,0,21.9,10.4,21.9,25.2c0,2.4-0.3,4.8-0.5,6h-33.7
			c1,9.4,7.1,14.8,15.6,14.8c4.5,0,8.4-1.4,12.3-3.8l4.2,7.7c-5.1,3.4-11.4,5.7-18.2,5.7C184.8,90.9,173.3,80.6,173.3,63.1z
			 M208.9,58c0-8.2-3.6-13.1-10.9-13.1c-6.2,0-11.6,4.6-12.7,13.1H208.9z"/>
		<path class="st0" d="M230.2,71.7V46.4h-7.6v-9.3l8.2-0.6l1.5-14.5h10.3v14.5h13.5v9.9h-13.5v25.3c0,6.2,2.4,9.3,7.5,9.3
			c1.8,0,4-0.6,5.5-1.2l2.1,9.2c-2.9,1-6.6,1.9-10.8,1.9C234.7,90.9,230.2,83.2,230.2,71.7z"/>
		<path class="st0" d="M260.6,63.1c0-17.7,12-27.9,25.2-27.9S311,45.5,311,63.1c0,17.6-12,27.8-25.2,27.8S260.6,80.7,260.6,63.1z
			 M298.3,63.1c0-10.6-4.7-17.7-12.4-17.7s-12.4,7.1-12.4,17.7c0,10.6,4.7,17.6,12.4,17.6S298.3,73.7,298.3,63.1z"/>
		<path class="st0" d="M320.1,76V13.3h12.4v63.3c0,3.1,1.4,4.1,2.7,4.1c0.6,0,1,0,1.9-0.2l1.6,9.3c-1.5,0.6-3.6,1.1-6.6,1.1
			C323.4,90.9,320.1,85.2,320.1,76z"/>
		<path class="st0" d="M342.9,63.1c0-17.3,10.8-27.9,22.5-27.9c6,0,9.8,2.2,13.9,5.8l-0.5-8.6V13.3h12.4v76.3h-10.2l-1-5.7h-0.3
			c-3.9,3.9-9.4,7-15.1,7C351.5,90.9,342.9,80.6,342.9,63.1z M378.8,74.7V49.9c-3.6-3.2-7.2-4.4-10.8-4.4c-6.7,0-12.3,6.4-12.3,17.5
			c0,11.5,4.4,17.6,12.1,17.6C371.9,80.6,375.3,78.8,378.8,74.7z"/>
	</g>
</g>
<text id="Oncetold">Oncetold</text>
</svg>
