<svg id="Layer_1" data-name="Layer 1" xmlns="http://www.w3.org/2000/svg" width="67.58" height="54.68" viewBox="0 0 67.58 54.68"><path d="M44.93,28V24.06c0-1.38-1.39-2.47-3.17-2.47s-3.18,1.09-3.18,2.47V28a1.21,1.21,0,0,0,1.21,1.21h3.93A1.21,1.21,0,0,0,44.93,28Z" transform="translate(-0.03 -0.04)" fill="#fff"/><path d="M56.11,29.59,55,17.65V10.42a1.66,1.66,0,0,0-1.66-1.66H49.05a1.66,1.66,0,0,0-1.66,1.66h0V13H45.6V10.42a1.66,1.66,0,0,0-1.66-1.66h-.76v-3l3.17-1a1.66,1.66,0,0,0,1.07-2.09,1.63,1.63,0,0,0-1.07-1.07L42,.12a1.67,1.67,0,0,0-1.5.23,1.69,1.69,0,0,0-.69,1.35V8.8h-1a1.66,1.66,0,0,0-1.67,1.65h0v2.62H35.39V10.42a1.66,1.66,0,0,0-1.66-1.66H29.44a1.66,1.66,0,0,0-1.66,1.66h0V14A20.67,20.67,0,0,0,15,25.06h-.1a14.83,14.83,0,0,0,0,29.66H55a12.59,12.59,0,0,0,1.11-25.13ZM55,51.39H14.83a11.5,11.5,0,0,1-1.1-22.95A20.74,20.74,0,0,0,13,33.92a1.67,1.67,0,0,0,3.33,0A17.47,17.47,0,0,1,27.75,17.55v.1L25.82,38.32a10.66,10.66,0,0,0-3.67,1,1.67,1.67,0,0,0,.77,3.15,1.71,1.71,0,0,0,.76-.19,9.22,9.22,0,0,1,7.39,0,1.68,1.68,0,0,0,1.53-3h0a10.89,10.89,0,0,0-3.44-1L31.07,17.8V12h1v2.62a1.67,1.67,0,0,0,1.67,1.67h5.12a1.67,1.67,0,0,0,1.66-1.67V12h1.77v2.62a1.66,1.66,0,0,0,1.65,1.67H49a1.66,1.66,0,0,0,1.66-1.66h0V12h1v5.8l1.11,11.87a12.48,12.48,0,0,0-6.7,3.47,1.67,1.67,0,0,0,2.36,2.35A9.18,9.18,0,0,1,53.07,33h0a10.35,10.35,0,0,1,1.23-.16,1.69,1.69,0,0,0,.45,0,1.65,1.65,0,0,0,.32-.06A9.27,9.27,0,0,1,55,51.29Z" transform="translate(-0.03 -0.04)" fill="ivory"/></svg>