<svg xmlns="http://www.w3.org/2000/svg" version="1.1" width="1400px" height="1166px">
    <g>
        <path style="opacity:0.99" fill="#fefffe"
            d="M 1208.5,13.5 C 1220.29,12.9375 1231.95,13.7708 1243.5,16C 1252.36,21.2648 1260.7,27.2648 1268.5,34C 1275.04,36.6376 1281.71,38.9709 1288.5,41C 1293.33,43.1667 1296.83,46.6667 1299,51.5C 1302.61,61.8595 1304.27,72.5261 1304,83.5C 1304.91,86.3106 1305.74,89.1439 1306.5,92C 1306.39,93.2798 1305.72,94.1131 1304.5,94.5C 1303.23,93.5721 1301.9,93.4054 1300.5,94C 1307.52,102.917 1310.19,113.084 1308.5,124.5C 1307.45,124.649 1306.45,124.483 1305.5,124C 1302.29,119.118 1298.12,115.285 1293,112.5C 1291.82,116.363 1289.99,119.863 1287.5,123C 1291.47,130.744 1294.14,138.91 1295.5,147.5C 1295.28,152.229 1294.28,156.729 1292.5,161C 1291.83,161.667 1291.17,161.667 1290.5,161C 1289,158.833 1287.5,156.667 1286,154.5C 1284.58,157.009 1282.91,159.343 1281,161.5C 1279.67,160.833 1278.33,160.167 1277,159.5C 1277.98,163.165 1279.32,166.832 1281,170.5C 1283.14,177.062 1282.8,183.396 1280,189.5C 1275.7,184.525 1271.36,179.525 1267,174.5C 1265.62,176.635 1264.62,178.968 1264,181.5C 1263.28,182.451 1262.45,182.617 1261.5,182C 1259.81,178.121 1257.98,174.288 1256,170.5C 1255.26,174.71 1255.43,178.876 1256.5,183C 1255.98,188.652 1254.82,194.152 1253,199.5C 1252,200.833 1251,200.833 1250,199.5C 1246.67,193.5 1243.33,187.5 1240,181.5C 1238.76,187.056 1238.09,192.722 1238,198.5C 1237.59,198.957 1237.09,199.291 1236.5,199.5C 1232.51,192.197 1228.01,185.197 1223,178.5C 1224.3,184.042 1225.46,189.709 1226.5,195.5C 1226.16,200.384 1224.99,205.05 1223,209.5C 1222.28,210.451 1221.45,210.617 1220.5,210C 1218.98,208.315 1217.32,206.815 1215.5,205.5C 1214.78,209.532 1213.94,213.532 1213,217.5C 1212.59,217.957 1212.09,218.291 1211.5,218.5C 1209.85,217.352 1208.35,216.019 1207,214.5C 1208.27,228.158 1202.43,236.991 1189.5,241C 1185.72,245.379 1181.39,249.046 1176.5,252C 1186.9,256.272 1197.57,259.939 1208.5,263C 1213.45,264.806 1218.11,267.139 1222.5,270C 1229.14,275.634 1235.47,281.634 1241.5,288C 1246.86,287.511 1248.52,289.677 1246.5,294.5C 1247.31,299.626 1250.31,302.126 1255.5,302C 1256.25,303.734 1256.75,305.567 1257,307.5C 1257.75,308.126 1258.58,308.626 1259.5,309C 1262.71,308.083 1266.05,307.75 1269.5,308C 1270.11,309.947 1270.94,311.781 1272,313.5C 1273.03,310.125 1275.2,308.958 1278.5,310C 1281.38,313.593 1284.38,317.093 1287.5,320.5C 1288.5,319.833 1289.5,319.167 1290.5,318.5C 1292.33,320.5 1293.99,322.667 1295.5,325C 1297.7,326.373 1300.03,326.706 1302.5,326C 1305.06,323.029 1307.73,320.196 1310.5,317.5C 1311.09,317.709 1311.59,318.043 1312,318.5C 1313,321.833 1314,325.167 1315,328.5C 1318.96,332.646 1322.96,332.98 1327,329.5C 1333.46,313.116 1336.63,313.783 1336.5,331.5C 1338.68,331.414 1340.68,330.747 1342.5,329.5C 1343.8,330.09 1344.63,331.09 1345,332.5C 1347.3,330.052 1348.63,330.719 1349,334.5C 1352.17,330.667 1355.33,326.833 1358.5,323C 1360.39,322.691 1361.72,323.525 1362.5,325.5C 1364.1,322.399 1366.27,319.732 1369,317.5C 1369.67,318.167 1370.33,318.833 1371,319.5C 1371.63,326.829 1372.13,334.163 1372.5,341.5C 1379.94,341.324 1382.94,344.991 1381.5,352.5C 1380.08,366.491 1377.25,380.158 1373,393.5C 1368.89,398.65 1363.72,402.483 1357.5,405C 1342.63,411.401 1327.3,416.401 1311.5,420C 1277.45,419.235 1243.45,417.235 1209.5,414C 1196.48,412.108 1183.48,410.108 1170.5,408C 1161.73,407.135 1153.07,407.635 1144.5,409.5C 1138.39,425.985 1131.23,441.985 1123,457.5C 1119.95,461.095 1116.78,464.595 1113.5,468C 1097.38,480.454 1081.54,493.288 1066,506.5C 1066.26,509.82 1067.93,512.487 1071,514.5C 1072.86,516.888 1074.19,519.554 1075,522.5C 1075.12,531.084 1075.95,539.584 1077.5,548C 1076.6,552.63 1075.27,557.13 1073.5,561.5C 1076.53,566.035 1079.37,570.702 1082,575.5C 1082.33,579.833 1082.67,584.167 1083,588.5C 1089.23,584.633 1095.73,581.133 1102.5,578C 1103.83,576.667 1105.17,575.333 1106.5,574C 1128.2,571.94 1148.54,576.274 1167.5,587C 1171.44,590.946 1174.61,595.446 1177,600.5C 1177.92,604.711 1177.42,608.711 1175.5,612.5C 1175,606.143 1172,601.477 1166.5,598.5C 1165.5,598.833 1164.83,599.5 1164.5,600.5C 1165.17,603.833 1165.83,607.167 1166.5,610.5C 1166.17,610.833 1165.83,611.167 1165.5,611.5C 1161.67,605.504 1156.67,600.671 1150.5,597C 1144.77,595.885 1139.27,594.051 1134,591.5C 1128.58,593.49 1123.08,593.823 1117.5,592.5C 1114.47,592.847 1111.81,594.014 1109.5,596C 1102.5,602.333 1095.5,608.667 1088.5,615C 1081.28,619.889 1074.44,619.389 1068,613.5C 1067.18,607.897 1065.51,602.564 1063,597.5C 1057.71,590.54 1052.04,583.873 1046,577.5C 1038.09,591.42 1027.93,603.587 1015.5,614C 1039.02,619.834 1058.85,631.668 1075,649.5C 1078.43,654.534 1080.93,660.034 1082.5,666C 1082.04,669.356 1081.04,672.522 1079.5,675.5C 1078.68,672.893 1078.18,670.226 1078,667.5C 1074.89,665.353 1072.05,662.853 1069.5,660C 1067.47,659.319 1065.47,658.986 1063.5,659C 1069.37,665.214 1072.54,672.38 1073,680.5C 1074.83,686.476 1073.16,691.143 1068,694.5C 1068.74,691.593 1069.07,688.593 1069,685.5C 1061.23,678.382 1054.9,670.048 1050,660.5C 1040.08,650.115 1028.24,642.615 1014.5,638C 1013.17,636.333 1011.83,634.667 1010.5,633C 999.851,631.853 989.184,631.519 978.5,632C 974.177,636.96 969.843,641.96 965.5,647C 961,650.167 956.5,653.333 952,656.5C 951.333,662.5 951.333,668.5 952,674.5C 956.222,707.055 959.056,739.722 960.5,772.5C 960.789,795.102 957.289,817.102 950,838.5C 944.764,853.069 935.264,863.903 921.5,871C 911.433,875.085 902.433,880.752 894.5,888C 878.365,902.467 862.532,917.3 847,932.5C 843.6,936.135 841.1,940.302 839.5,945C 841.25,949.08 843.417,952.913 846,956.5C 854.06,963.561 861.06,971.561 867,980.5C 887.584,1002.21 912.751,1015.71 942.5,1021C 949.394,1024.28 956.394,1027.28 963.5,1030C 965.833,1030.67 968.167,1030.67 970.5,1030C 977.771,1028.18 985.104,1026.68 992.5,1025.5C 995.226,1025.68 997.893,1026.18 1000.5,1027C 1008.6,1030.8 1016.44,1034.97 1024,1039.5C 1025.02,1041.27 1025.19,1042.94 1024.5,1044.5C 1036.57,1047.14 1047.91,1051.64 1058.5,1058C 1065.86,1063.85 1070.52,1071.35 1072.5,1080.5C 1072.12,1084.04 1071.12,1087.37 1069.5,1090.5C 1066.81,1087.98 1063.98,1085.64 1061,1083.5C 1061.43,1087.59 1061.93,1091.76 1062.5,1096C 1062.32,1100.88 1060.99,1105.38 1058.5,1109.5C 1054.72,1103.88 1050.05,1099.05 1044.5,1095C 1041.05,1092.94 1037.38,1091.44 1033.5,1090.5C 1027.91,1092.29 1022.58,1094.63 1017.5,1097.5C 1016.26,1096.75 1014.93,1096.42 1013.5,1096.5C 1013.67,1097.82 1013.34,1098.99 1012.5,1100C 1005.79,1099.99 999.454,1098.32 993.5,1095C 991.919,1093.17 990.585,1091.17 989.5,1089C 987.833,1088.33 986.167,1088.33 984.5,1089C 992.606,1099.41 994.606,1110.91 990.5,1123.5C 983.023,1117.86 975.689,1112.02 968.5,1106C 964.13,1103.5 960.464,1104.16 957.5,1108C 952.864,1109.79 948.198,1109.79 943.5,1108C 917.968,1099.27 892.302,1090.93 866.5,1083C 861.191,1081.87 855.857,1080.87 850.5,1080C 833.442,1079.25 816.442,1077.91 799.5,1076C 793.121,1074.57 788.287,1071.07 785,1065.5C 779.409,1052.16 777.909,1038.33 780.5,1024C 780.419,1007.34 777.585,991.178 772,975.5C 766.943,964.328 762.276,952.995 758,941.5C 756.024,935.627 755.357,929.627 756,923.5C 760.796,912.241 767.796,902.575 777,894.5C 779.838,890.828 782.171,886.828 784,882.5C 785.941,871.56 787.607,860.56 789,849.5C 794.164,832.368 802.664,817.201 814.5,804C 822.109,800.53 830.109,798.53 838.5,798C 841.242,796.93 843.742,795.43 846,793.5C 843.505,788.499 839.672,784.499 834.5,781.5C 830.817,785.341 826.483,788.174 821.5,790C 813.299,790.073 805.133,790.239 797,790.5C 785.574,787.54 774.74,783.04 764.5,777C 760.943,775.592 757.276,774.592 753.5,774C 736.382,772.93 719.382,773.93 702.5,777C 686.695,794.808 670.862,812.641 655,830.5C 645.5,839.333 636,848.167 626.5,857C 613.633,868.263 598.633,874.929 581.5,877C 564.261,883.572 551.427,895.072 543,911.5C 537.65,930.917 538.984,949.917 547,968.5C 557.449,993.569 571.116,1016.57 588,1037.5C 592.546,1041.71 597.379,1045.55 602.5,1049C 615.167,1055.67 627.833,1062.33 640.5,1069C 642.405,1070.82 644.072,1072.82 645.5,1075C 652.354,1074.7 659.188,1073.87 666,1072.5C 674.241,1072.89 681.574,1075.55 688,1080.5C 688.743,1082.44 688.576,1084.27 687.5,1086C 703.408,1087.87 716.241,1095.03 726,1107.5C 731.567,1115.71 732.734,1124.38 729.5,1133.5C 716.563,1122.24 701.563,1117.74 684.5,1120C 683.584,1120.37 682.75,1120.87 682,1121.5C 682.929,1127.42 683.762,1133.42 684.5,1139.5C 684.476,1145.88 682.476,1151.54 678.5,1156.5C 674.951,1151.32 672.451,1145.65 671,1139.5C 666.87,1136.46 662.203,1134.8 657,1134.5C 651.172,1136 645.339,1137.5 639.5,1139C 633.833,1139.67 628.167,1139.67 622.5,1139C 620.19,1137.36 618.69,1135.2 618,1132.5C 616.276,1130.16 614.443,1129.66 612.5,1131C 614.327,1138.41 614.827,1145.91 614,1153.5C 612.382,1156.94 610.215,1159.94 607.5,1162.5C 603.874,1158.05 601.374,1153.05 600,1147.5C 596.529,1144.85 592.696,1142.85 588.5,1141.5C 585.26,1143.52 581.76,1144.86 578,1145.5C 565.208,1143.59 553.042,1139.76 541.5,1134C 531.985,1124.16 520.318,1119.83 506.5,1121C 496.411,1118.25 488.577,1112.42 483,1103.5C 465.271,1067.19 457.937,1028.85 461,988.5C 463.114,973.366 464.948,958.199 466.5,943C 466.042,938.752 465.209,934.585 464,930.5C 461.064,925.627 458.397,920.627 456,915.5C 453.057,903.948 454.391,892.948 460,882.5C 467.783,872.714 474.783,862.38 481,851.5C 482.504,843.465 484.171,835.465 486,827.5C 492.073,816.76 500.239,807.926 510.5,801C 523.415,794.806 536.415,788.806 549.5,783C 551.711,781.418 553.045,779.251 553.5,776.5C 514.119,772.279 474.786,767.446 435.5,762C 346.313,751.218 259.313,760.552 174.5,790C 122.128,808.521 71.4614,830.854 22.5,857C 20.8659,857.494 19.1992,857.66 17.5,857.5C 17.372,855.345 17.872,853.345 19,851.5C 48.7431,814.728 84.9097,786.228 127.5,766C 214.572,724.466 303.906,688.466 395.5,658C 429.634,646.931 462.301,632.598 493.5,615C 506.552,605.621 518.718,595.121 530,583.5C 543.374,565.454 558.207,548.621 574.5,533C 595.275,516.891 616.609,501.558 638.5,487C 643.983,482.094 649.649,477.428 655.5,473C 679.27,448.141 703.27,423.474 727.5,399C 743.661,385.914 761.661,375.914 781.5,369C 804.525,360.128 828.358,355.628 853,355.5C 869.497,356.333 885.997,356.5 902.5,356C 918.884,335.276 936.384,315.443 955,296.5C 957.421,292.66 959.588,288.66 961.5,284.5C 956.526,276.22 952.36,267.553 949,258.5C 948.27,251.452 948.603,244.452 950,237.5C 951.019,233.826 952.852,230.659 955.5,228C 952.351,216.203 953.184,204.703 958,193.5C 970.663,182.869 976.33,169.202 975,152.5C 976.941,142.765 981.775,134.932 989.5,129C 997.229,128.857 1004.9,128.19 1012.5,127C 1027.71,122.71 1042.37,117.043 1056.5,110C 1063.77,103.531 1072.1,98.8647 1081.5,96C 1088.5,87.6667 1096.17,80 1104.5,73C 1124.88,56.9494 1145.55,41.2827 1166.5,26C 1179.88,19.3263 1193.88,15.1596 1208.5,13.5 Z" />
    </g>
</svg>