<?xml version="1.0" encoding="UTF-8"?>
<!DOCTYPE svg PUBLIC "-//W3C//DTD SVG 1.1//EN" "http://www.w3.org/Graphics/SVG/1.1/DTD/svg11.dtd">
<svg xmlns="http://www.w3.org/2000/svg" version="1.1" width="1400px" height="1200px" style="shape-rendering:geometricPrecision; text-rendering:geometricPrecision; image-rendering:optimizeQuality; fill-rule:evenodd; clip-rule:evenodd" xmlns:xlink="http://www.w3.org/1999/xlink">
<g><path style="opacity:0.995" fill="#fefffe" d="M 1207.5,20.5 C 1217.17,20.3335 1226.84,20.5002 1236.5,21C 1243.57,21.3729 1249.91,23.7062 1255.5,28C 1261.12,31.9546 1266.46,36.2879 1271.5,41C 1278.04,43.6376 1284.71,45.9709 1291.5,48C 1298.15,51.3141 1302.65,56.4808 1305,63.5C 1307.78,72.9604 1309.11,82.6271 1309,92.5C 1311.41,98.1957 1311.91,104.029 1310.5,110C 1311.84,112.678 1312.67,115.511 1313,118.5C 1313.67,125.5 1313.67,132.5 1313,139.5C 1306.4,144.286 1301.23,142.953 1297.5,135.5C 1296.68,134.614 1295.68,134.281 1294.5,134.5C 1296.63,140.721 1298.46,147.054 1300,153.5C 1300.64,160.208 1300.3,166.874 1299,173.5C 1296.56,178.224 1292.73,179.724 1287.5,178C 1287,177.5 1286.5,177 1286,176.5C 1286.31,182.125 1286.81,187.792 1287.5,193.5C 1287.72,198.27 1286.39,202.437 1283.5,206C 1280.83,206.667 1278.17,206.667 1275.5,206C 1272.63,203.463 1270.13,200.63 1268,197.5C 1265.86,199.278 1263.36,199.945 1260.5,199.5C 1261.38,206.152 1259.71,211.985 1255.5,217C 1250.68,218.406 1246.68,217.24 1243.5,213.5C 1239.56,217.014 1235.39,217.347 1231,214.5C 1231.13,222.627 1227.3,227.294 1219.5,228.5C 1218.65,233.025 1215.98,235.358 1211.5,235.5C 1209.79,247.386 1203.13,255.219 1191.5,259C 1190.31,260.019 1189.31,261.186 1188.5,262.5C 1196.09,265.15 1203.76,267.65 1211.5,270C 1216.45,271.806 1221.11,274.139 1225.5,277C 1232.14,282.634 1238.47,288.634 1244.5,295C 1251.77,295.889 1254.61,300.055 1253,307.5C 1257.84,307.514 1260.67,309.847 1261.5,314.5C 1268.39,314.23 1275.06,315.063 1281.5,317C 1284.21,319.371 1286.54,322.037 1288.5,325C 1290.5,325.333 1292.5,325.667 1294.5,326C 1296.45,328.074 1298.29,330.241 1300,332.5C 1301.79,329.705 1303.96,327.205 1306.5,325C 1309.17,324.333 1311.83,324.333 1314.5,325C 1317.07,329.503 1319.57,334.003 1322,338.5C 1323.62,333.221 1326.45,328.721 1330.5,325C 1338.93,323.935 1342.6,327.768 1341.5,336.5C 1343.73,336.38 1345.9,336.713 1348,337.5C 1350.48,335.022 1352.98,332.522 1355.5,330C 1359.88,330.385 1363.21,328.719 1365.5,325C 1369.9,323.622 1373.4,324.788 1376,328.5C 1376.53,335.171 1377.03,341.837 1377.5,348.5C 1380.62,348.642 1383.12,349.976 1385,352.5C 1386.59,359.726 1386.93,367.06 1386,374.5C 1384,384.5 1382,394.5 1380,404.5C 1377.94,409.888 1374.44,414.054 1369.5,417C 1347.77,429.298 1324.44,436.464 1299.5,438.5C 1253.22,436.386 1207.22,431.719 1161.5,424.5C 1156.84,424.974 1152.34,425.974 1148,427.5C 1142.68,443.118 1136.02,458.118 1128,472.5C 1122.5,479.333 1116.33,485.5 1109.5,491C 1097.17,500.667 1084.83,510.333 1072.5,520C 1075.88,523.269 1078.38,527.103 1080,531.5C 1080.23,541.069 1081.06,550.569 1082.5,560C 1082.83,564.493 1081.83,568.66 1079.5,572.5C 1083.58,577.995 1086.58,583.995 1088.5,590.5C 1094.18,588.333 1099.18,585.166 1103.5,581C 1127.26,578.152 1149.59,582.485 1170.5,594C 1175.1,598.603 1178.94,603.77 1182,609.5C 1182.67,614.5 1182.67,619.5 1182,624.5C 1181.73,626.329 1180.89,627.829 1179.5,629C 1173.52,628.001 1167.52,627.668 1161.5,628C 1158.89,626.062 1157.06,623.562 1156,620.5C 1153.41,618.789 1150.91,616.955 1148.5,615C 1143.07,614.245 1138.07,612.412 1133.5,609.5C 1128.25,611.491 1122.92,611.824 1117.5,610.5C 1115.73,611.091 1114.07,611.924 1112.5,613C 1104.42,621.084 1095.75,628.418 1086.5,635C 1077.25,637.388 1069.42,635.221 1063,628.5C 1061.62,622.609 1059.62,616.942 1057,611.5C 1053.67,607.5 1050.33,603.5 1047,599.5C 1041.29,608.221 1034.45,616.054 1026.5,623C 1039.03,627.93 1051.03,633.93 1062.5,641C 1072.25,649.067 1080.08,658.567 1086,669.5C 1088.08,676.592 1087.75,683.592 1085,690.5C 1083.21,692.229 1081.04,692.896 1078.5,692.5C 1080.36,700.37 1078.02,706.537 1071.5,711C 1068.33,711.978 1065.5,711.478 1063,709.5C 1063.44,701.038 1060.1,694.371 1053,689.5C 1048.64,679.816 1042.14,671.983 1033.5,666C 1026.62,662.394 1019.62,659.061 1012.5,656C 1010.46,653.626 1008.13,651.626 1005.5,650C 997.167,649.333 988.833,649.333 980.5,650C 974.288,659.212 966.455,666.712 957,672.5C 959.223,702.509 961.889,732.509 965,762.5C 968.157,793.573 964.824,823.906 955,853.5C 949.09,868.744 938.923,880.244 924.5,888C 914.433,892.085 905.433,897.752 897.5,905C 882.032,918.8 866.865,932.967 852,947.5C 849.64,950.36 847.473,953.36 845.5,956.5C 847.333,959.5 849.167,962.5 851,965.5C 859.06,972.561 866.06,980.561 872,989.5C 882.984,1001.24 895.818,1010.41 910.5,1017C 922.044,1021.07 933.711,1024.74 945.5,1028C 952.664,1031.34 959.83,1034.5 967,1037.5C 978.84,1032.8 991.006,1031.63 1003.5,1034C 1010.38,1037.61 1017.38,1040.94 1024.5,1044C 1027.5,1046.16 1029.5,1049 1030.5,1052.5C 1046.56,1055.28 1060.06,1062.61 1071,1074.5C 1078.6,1084.88 1079.43,1095.71 1073.5,1107C 1071.53,1107.5 1069.53,1107.66 1067.5,1107.5C 1067.93,1114.29 1066.26,1120.45 1062.5,1126C 1059.83,1126.67 1057.17,1126.67 1054.5,1126C 1049.09,1117.91 1041.92,1112.08 1033,1108.5C 1027.29,1111.77 1021.46,1114.6 1015.5,1117C 1009.5,1117.92 1003.67,1117.42 998,1115.5C 997.706,1123.2 997.04,1130.87 996,1138.5C 992.353,1140.99 988.519,1141.16 984.5,1139C 978.792,1134.8 973.459,1130.14 968.5,1125C 966.649,1124.16 964.816,1123.33 963,1122.5C 961.786,1124.05 960.286,1125.22 958.5,1126C 953.5,1126.67 948.5,1126.67 943.5,1126C 915.027,1116.4 886.361,1107.4 857.5,1099C 838.213,1096.88 818.88,1095.21 799.5,1094C 785.378,1090.21 777.211,1081.04 775,1066.5C 776.371,1047.03 775.371,1027.7 772,1008.5C 766.853,991.058 760.519,974.058 753,957.5C 748.481,944.395 749.814,932.062 757,920.5C 762,914.833 767,909.167 772,903.5C 774.503,900.498 776.503,897.165 778,893.5C 780.438,881.582 782.438,869.582 784,857.5C 788.833,843.499 795.5,830.499 804,818.5C 807.251,814.578 811.084,811.412 815.5,809C 806.884,807.827 798.217,807.161 789.5,807C 779.458,803.479 769.791,799.145 760.5,794C 754.168,791.917 747.668,790.75 741,790.5C 728.721,791.139 716.554,792.639 704.5,795C 680.215,824.952 653.549,852.618 624.5,878C 611.09,887.699 596.09,893.699 579.5,896C 565.39,902.444 554.89,912.61 548,926.5C 544.464,936.656 543.797,946.989 546,957.5C 555.664,990.501 571.33,1020.17 593,1046.5C 596.883,1050.05 601.049,1053.22 605.5,1056C 617.5,1062.33 629.5,1068.67 641.5,1075C 644.128,1076.63 646.461,1078.63 648.5,1081C 654.308,1080.67 660.141,1080.17 666,1079.5C 676.455,1079.19 685.455,1082.52 693,1089.5C 693.49,1090.79 693.657,1092.13 693.5,1093.5C 714.647,1096.81 728.813,1108.47 736,1128.5C 736.667,1134.17 736.667,1139.83 736,1145.5C 735.727,1147.33 734.893,1148.83 733.5,1150C 730.833,1150.67 728.167,1150.67 725.5,1150C 714.809,1141.05 702.475,1136.55 688.5,1136.5C 689.374,1144.15 689.541,1151.82 689,1159.5C 687.768,1164.46 685.602,1168.96 682.5,1173C 679.833,1173.67 677.167,1173.67 674.5,1173C 670.732,1167.63 667.899,1161.8 666,1155.5C 662.521,1153.01 658.687,1152.17 654.5,1153C 643.129,1157.27 631.463,1158.44 619.5,1156.5C 621.198,1165.59 618.531,1173.09 611.5,1179C 608.833,1179.67 606.167,1179.67 603.5,1179C 599.385,1174.55 596.552,1169.38 595,1163.5C 593.581,1162.54 592.081,1161.71 590.5,1161C 572.721,1163.32 555.721,1160.32 539.5,1152C 534.862,1147.35 529.529,1143.68 523.5,1141C 503.022,1142.64 487.522,1134.81 477,1117.5C 462.332,1085.99 454.832,1052.82 454.5,1018C 455.677,997.587 457.677,977.253 460.5,957C 460.456,953.43 459.956,949.93 459,946.5C 449.664,933.16 446.664,918.493 450,902.5C 454.392,892.113 460.392,882.78 468,874.5C 470.732,870.759 473.066,866.759 475,862.5C 476.908,853.473 478.908,844.473 481,835.5C 493.688,815.494 511.521,802.327 534.5,796C 536.5,795 538.5,794 540.5,793C 503.573,788.592 466.573,783.926 429.5,779C 343.714,769.384 260.047,778.717 178.5,807C 143.162,820.17 108.162,834.17 73.5,849C 57.6748,857.079 42.0081,865.412 26.5,874C 12.6319,877.132 8.79855,872.298 15,859.5C 50.5201,816.661 94.0201,784.494 145.5,763C 194.514,740.44 244.181,719.44 294.5,700C 344.942,681.945 395.275,663.612 445.5,645C 472.618,634.954 496.618,620.121 517.5,600.5C 529.231,587.605 540.398,574.272 551,560.5C 557.167,554.333 563.333,548.167 569.5,542C 596.678,522.244 623.678,502.244 650.5,482C 674.167,457.667 697.833,433.333 721.5,409C 737.471,394.507 755.804,383.84 776.5,377C 800.939,367.389 826.272,362.556 852.5,362.5C 868.163,363.354 883.829,363.521 899.5,363C 913.848,343.977 929.681,326.144 947,309.5C 949.723,306.443 952.056,303.11 954,299.5C 952.722,291.59 949.722,284.257 945,277.5C 943.039,267.505 943.039,257.505 945,247.5C 945.848,244.302 947.348,241.469 949.5,239C 948.203,229.535 948.37,220.035 950,210.5C 950.759,207.215 952.092,204.215 954,201.5C 958.749,197.422 962.749,192.755 966,187.5C 967.863,177.878 969.53,168.211 971,158.5C 973.06,153.38 975.393,148.38 978,143.5C 980.592,140.238 983.759,137.738 987.5,136C 995.229,135.857 1002.9,135.19 1010.5,134C 1024.22,129.983 1037.55,124.983 1050.5,119C 1058.52,112.33 1067.52,107.33 1077.5,104C 1084.5,95.6667 1092.17,88 1100.5,81C 1121.63,63.9374 1143.3,47.6041 1165.5,32C 1179.02,25.9568 1193.02,22.1234 1207.5,20.5 Z M 829.5,805.5 C 831.972,801.246 834.972,800.746 838.5,804C 835.607,805.149 832.607,805.649 829.5,805.5 Z"/></g>
</svg>
