<svg version="1.1" id="Layer_1" xmlns="http://www.w3.org/2000/svg" xmlns:xlink="http://www.w3.org/1999/xlink" x="0px" y="0px"
	 width="100%" viewBox="0 0 600 165" enable-background="new 0 0 600 165" xml:space="preserve">
<path fill="#FFFFFF" opacity="1.000000" stroke="none" 
	d="
M402.000000,166.000000 
	C268.000000,166.000000 134.500000,166.000000 1.000000,166.000000 
	C1.000000,111.000000 1.000000,56.000000 1.000000,1.000000 
	C201.000000,1.000000 401.000000,1.000000 601.000000,1.000000 
	C601.000000,56.000000 601.000000,111.000000 601.000000,166.000000 
	C534.833313,166.000000 468.666656,166.000000 402.000000,166.000000 
M35.667992,12.005414 
	C32.362610,11.139649 29.070358,10.219386 25.749201,9.419084 
	C18.031881,7.559433 13.908519,8.912983 11.556093,13.932972 
	C8.085189,21.339748 8.811275,28.947308 9.730965,36.790455 
	C10.392324,42.430557 9.781090,48.269520 9.276261,53.978992 
	C8.948632,57.684383 7.055374,61.335121 7.148139,64.977631 
	C7.391420,74.530418 8.598388,84.057701 8.877311,93.611031 
	C8.988788,97.429222 7.116410,101.289680 7.120277,105.129921 
	C7.128593,113.385658 7.651165,121.648392 8.186599,129.893753 
	C8.625273,136.649078 9.509806,143.375168 9.964793,150.129822 
	C10.295878,155.045044 12.008825,156.946762 17.040089,156.981812 
	C24.205780,157.031738 31.372166,157.015976 38.538086,156.987045 
	C43.701771,156.966187 45.991093,154.999451 45.932171,149.886429 
	C45.840473,141.929352 45.321564,133.977905 45.047993,126.021873 
	C44.948139,123.118034 45.031914,120.207886 45.031914,116.994652 
	C47.250038,116.994652 48.592598,117.150780 49.888210,116.970161 
	C61.126389,115.403488 67.810944,111.896858 67.035118,100.033745 
	C66.776955,96.086189 66.994370,92.107521 66.994370,88.143082 
	C67.331413,88.153168 67.668449,88.163261 68.005493,88.173347 
	C68.005493,89.810883 68.005486,91.448418 68.005493,93.085953 
	C68.005585,107.584679 67.619530,122.098267 68.176376,136.575577 
	C68.436378,143.335403 67.181313,151.809799 75.721786,154.957840 
	C80.285408,156.639999 85.575470,156.480835 90.559914,156.861679 
	C98.128334,157.439972 105.807014,157.195633 113.265511,158.386444 
	C118.762413,159.264084 123.422325,159.283188 127.406563,155.066650 
	C131.544342,150.687622 130.054520,145.402786 129.507370,140.382278 
	C129.098984,136.634933 128.123871,132.949326 127.401115,129.236237 
	C130.632812,133.616425 132.737289,138.264053 135.397415,142.568298 
	C139.361130,148.981796 144.006393,154.768265 152.346359,155.632568 
	C154.483612,155.854050 156.898499,155.579498 158.699921,156.492065 
	C167.986511,161.196564 174.986084,153.661545 183.094482,152.231735 
	C183.501831,152.159897 183.891907,151.624786 184.166855,151.221436 
	C189.290283,143.704987 194.395004,136.175812 199.067947,129.291214 
	C201.877029,136.334763 205.402435,144.776825 208.589157,153.344879 
	C210.023941,157.202560 212.185226,158.412888 216.167999,157.471741 
	C223.116196,155.829819 226.538452,151.028015 228.998199,144.793335 
	C232.227371,136.608383 235.917343,128.605225 239.937103,119.301994 
	C244.645737,130.140854 248.701736,139.745316 253.026932,149.226974 
	C253.991272,151.340973 255.701218,154.394684 257.414673,154.645355 
	C262.404449,155.375336 267.569885,154.904434 271.625061,154.904434 
	C275.208771,156.074509 278.187561,157.906601 280.999908,157.679291 
	C283.058197,157.512924 286.176697,154.904648 286.586273,152.922623 
	C287.659546,147.729294 287.816406,142.079071 282.767639,138.372299 
	C278.640656,135.342300 279.651855,132.573380 282.010468,129.811295 
	C284.451355,130.540833 286.598297,131.940994 288.427856,131.606293 
	C300.342560,129.426559 300.188354,129.334366 302.875305,140.735840 
	C303.834778,144.807098 306.136444,148.596542 306.835907,152.683975 
	C307.425598,156.130020 307.573822,159.059921 311.984314,158.982452 
	C316.616272,158.901077 317.678345,155.712646 317.980469,151.945053 
	C318.129578,150.085236 318.155090,148.215500 318.280945,145.333344 
	C320.035339,146.918640 321.101227,147.519119 321.643555,148.431000 
	C325.040894,154.143585 329.779938,156.773758 336.585724,156.080353 
	C341.039093,155.626617 345.578613,156.083893 350.074921,155.961823 
	C352.866669,155.886032 355.941803,156.168289 358.384521,155.116470 
	C367.440002,151.217239 373.675659,144.290604 375.883881,134.711792 
	C377.892792,125.997734 378.709076,117.008743 380.005219,108.444016 
	C380.005219,121.349091 379.996521,134.643982 380.008942,147.938843 
	C380.014954,154.372437 381.575409,155.979843 387.851898,155.989609 
	C399.432983,156.007629 411.016937,156.148773 422.594208,155.937729 
	C429.683746,155.808502 436.762848,154.782806 443.847076,154.777527 
	C450.719086,154.772415 457.588928,155.607224 464.464630,155.982758 
	C474.288086,156.519302 475.590332,155.730103 477.821014,145.018906 
	C478.092590,143.714783 478.130493,142.362015 478.425659,139.676559 
	C479.077423,143.823013 479.841858,146.563248 479.866058,149.310043 
	C479.908234,154.091293 482.470978,155.154785 486.633423,155.042557 
	C493.294678,154.862946 499.969269,155.142776 506.627960,154.920990 
	C509.277435,154.832733 511.899597,153.925217 515.069092,153.282135 
	C520.563782,158.637054 546.888611,157.346054 550.191284,151.331161 
	C551.690979,152.514648 553.189636,154.712601 554.788147,154.787827 
	C562.881775,155.168610 570.694092,158.792480 579.218201,155.276459 
	C584.669922,153.027740 588.571106,150.758118 587.838379,144.676300 
	C586.993408,137.663467 585.106323,130.757156 583.399414,123.872101 
	C581.314453,115.461769 578.946411,107.121613 576.951172,99.684509 
	C580.303345,97.741776 583.550293,96.946602 584.753845,94.931168 
	C587.096313,91.008713 588.756348,86.515038 589.844604,82.049721 
	C591.128418,76.781693 588.256287,72.175774 586.729065,67.239395 
	C585.288330,62.582352 587.615112,56.896881 587.215149,51.746868 
	C586.683167,44.897823 585.091614,38.133011 583.999207,31.324953 
	C583.116882,25.825911 583.451172,19.686581 577.669617,16.443243 
	C570.246521,12.279066 562.503357,8.656966 553.709656,9.054580 
	C543.460815,9.517989 533.177490,9.959913 523.022522,11.282179 
	C520.181702,11.652084 516.588257,14.576878 515.388977,17.249195 
	C513.626038,21.177336 513.550049,25.913681 513.036438,30.338348 
	C512.403198,35.793907 512.058350,41.282944 511.588867,46.757515 
	C511.079895,46.974377 510.570923,47.191238 510.061920,47.408100 
	C509.042084,45.852203 507.545654,44.418209 507.109528,42.713028 
	C506.380035,39.860989 506.219055,36.843410 506.011353,33.882008 
	C505.478271,26.282385 504.190002,25.006231 496.702789,25.005558 
	C485.238068,25.004530 473.773346,24.999527 462.308624,25.007885 
	C456.128998,25.012390 454.503021,26.633936 453.978271,32.839691 
	C453.722015,35.869804 453.135071,38.871948 452.699646,41.873863 
	C445.084869,42.038925 447.158081,36.888981 447.057678,33.403149 
	C446.837219,25.750866 445.263855,23.911812 437.653717,24.028444 
	C420.699005,24.288290 403.746033,24.664263 386.792694,25.010975 
	C381.884064,25.111362 380.033813,27.013611 380.017822,32.120739 
	C379.979279,44.429119 380.005341,56.737701 380.005341,69.055466 
	C376.279449,69.603783 375.942383,67.611450 375.964233,64.961250 
	C376.042603,55.462730 376.291138,45.950951 375.900421,36.467873 
	C375.588074,28.886580 373.520905,22.072651 366.965546,16.836617 
	C356.662048,8.606811 345.068604,8.977585 333.372314,11.004680 
	C329.103668,11.744488 324.821930,14.519419 321.350983,17.352070 
	C311.313080,25.544065 308.378052,37.098255 308.075989,49.381939 
	C307.760254,62.220413 308.005432,75.072685 308.005432,87.918930 
	C302.251221,81.297935 296.410278,78.691002 291.103912,84.986053 
	C288.667297,87.876656 288.537598,93.219452 288.491943,97.462410 
	C288.453125,101.065712 290.037598,104.686493 291.041992,108.875641 
	C288.672546,108.300629 286.995300,107.893593 284.994568,107.408058 
	C284.994568,97.913780 284.974701,88.635246 285.002716,79.356865 
	C285.017303,74.527626 284.964386,69.690918 285.209320,64.871170 
	C285.704956,55.119469 286.779480,45.380222 286.858063,35.629742 
	C286.919220,28.045292 283.137451,24.888615 275.492645,25.046761 
	C269.367920,25.173460 263.248840,25.634817 257.130798,26.006248 
	C250.020493,26.437920 249.011398,27.556313 249.005997,34.780537 
	C249.002548,39.394627 249.005356,44.008720 249.005356,48.750183 
	C245.599838,48.029453 243.205719,47.274651 240.766449,47.076859 
	C238.364151,46.882057 235.916107,47.251789 232.958893,47.400421 
	C232.958893,44.579880 232.755737,41.862274 232.999298,39.185307 
	C233.587814,32.716732 229.536057,28.028246 223.092911,28.009022 
	C217.593460,27.992613 212.049362,27.588753 206.611877,28.169464 
	C203.582596,28.492987 199.631805,29.686890 198.047119,31.891069 
	C195.437027,35.521526 194.409546,40.289795 192.937286,44.015720 
	C189.194290,34.496105 181.737564,27.593487 170.287750,25.704855 
	C166.713745,25.115330 163.003357,25.383434 159.410492,24.871971 
	C147.234421,23.138649 137.979248,28.347763 130.590302,37.285866 
	C128.613190,39.677494 127.459923,43.251316 127.134552,46.406780 
	C126.370621,53.815125 126.479774,61.309170 125.935959,68.746620 
	C125.712204,71.806755 124.895813,74.862167 124.035049,77.828629 
	C122.508186,83.090675 121.800995,88.167793 125.045059,92.000526 
	C124.724701,96.014023 124.464592,99.272667 124.215569,102.392471 
	C120.702866,101.730576 117.056824,101.043556 112.788795,100.239334 
	C112.788795,95.404968 112.786079,90.605324 112.789291,85.805687 
	C112.799286,70.888580 112.312080,55.948223 113.004837,41.062824 
	C113.440559,31.700565 110.458076,22.843336 98.895401,23.845367 
	C89.719017,24.640596 80.418694,24.005547 71.131561,24.005547 
	C70.781647,19.920008 71.957314,15.238307 66.929947,13.578750 
	C63.220726,12.354319 59.293732,11.243213 55.435566,11.140443 
	C49.161251,10.973313 42.863876,11.672085 35.667992,12.005414 
z"/>
<path fill="#E1DDCD" opacity="1.000000" stroke="none" 
	d="
M36.122112,12.005404 
	C42.863876,11.672085 49.161251,10.973313 55.435566,11.140443 
	C59.293732,11.243213 63.220726,12.354319 66.929947,13.578750 
	C71.957314,15.238307 70.781647,19.920008 71.131561,24.005547 
	C80.418694,24.005547 89.719017,24.640596 98.895401,23.845367 
	C110.458076,22.843336 113.440559,31.700565 113.004837,41.062824 
	C112.312080,55.948223 112.799286,70.888580 112.789291,85.805687 
	C112.786079,90.605324 112.788795,95.404968 112.788795,100.239334 
	C117.056824,101.043556 120.702866,101.730576 124.215569,102.392471 
	C124.464592,99.272667 124.724701,96.014023 125.045059,92.000526 
	C121.800995,88.167793 122.508186,83.090675 124.035049,77.828629 
	C124.895813,74.862167 125.712204,71.806755 125.935959,68.746620 
	C126.479774,61.309170 126.370621,53.815125 127.134552,46.406780 
	C127.459923,43.251316 128.613190,39.677494 130.590302,37.285866 
	C137.979248,28.347763 147.234421,23.138649 159.410492,24.871971 
	C163.003357,25.383434 166.713745,25.115330 170.287750,25.704855 
	C181.737564,27.593487 189.194290,34.496105 192.937286,44.015720 
	C194.409546,40.289795 195.437027,35.521526 198.047119,31.891069 
	C199.631805,29.686890 203.582596,28.492987 206.611877,28.169464 
	C212.049362,27.588753 217.593460,27.992613 223.092911,28.009022 
	C229.536057,28.028246 233.587814,32.716732 232.999298,39.185307 
	C232.755737,41.862274 232.958893,44.579880 232.958893,47.400421 
	C235.916107,47.251789 238.364151,46.882057 240.766449,47.076859 
	C243.205719,47.274651 245.599838,48.029453 249.005356,48.750183 
	C249.005356,44.008720 249.002548,39.394627 249.005997,34.780537 
	C249.011398,27.556313 250.020493,26.437920 257.130798,26.006248 
	C263.248840,25.634817 269.367920,25.173460 275.492645,25.046761 
	C283.137451,24.888615 286.919220,28.045292 286.858063,35.629742 
	C286.779480,45.380222 285.704956,55.119469 285.209320,64.871170 
	C284.964386,69.690918 285.017303,74.527626 285.002716,79.356865 
	C284.974701,88.635246 284.994568,97.913780 284.994568,107.408058 
	C286.995300,107.893593 288.672546,108.300629 291.041992,108.875641 
	C290.037598,104.686493 288.453125,101.065712 288.491943,97.462410 
	C288.537598,93.219452 288.667297,87.876656 291.103912,84.986053 
	C296.410278,78.691002 302.251221,81.297935 308.005432,87.918930 
	C308.005432,75.072685 307.760254,62.220413 308.075989,49.381939 
	C308.378052,37.098255 311.313080,25.544065 321.350983,17.352070 
	C324.821930,14.519419 329.103668,11.744488 333.372314,11.004680 
	C345.068604,8.977585 356.662048,8.606811 366.965546,16.836617 
	C373.520905,22.072651 375.588074,28.886580 375.900421,36.467873 
	C376.291138,45.950951 376.042603,55.462730 375.964233,64.961250 
	C375.942383,67.611450 376.279449,69.603783 380.005341,69.055466 
	C380.005341,56.737701 379.979279,44.429119 380.017822,32.120739 
	C380.033813,27.013611 381.884064,25.111362 386.792694,25.010975 
	C403.746033,24.664263 420.699005,24.288290 437.653717,24.028444 
	C445.263855,23.911812 446.837219,25.750866 447.057678,33.403149 
	C447.158081,36.888981 445.084869,42.038925 452.699646,41.873863 
	C453.135071,38.871948 453.722015,35.869804 453.978271,32.839691 
	C454.503021,26.633936 456.128998,25.012390 462.308624,25.007885 
	C473.773346,24.999527 485.238068,25.004530 496.702789,25.005558 
	C504.190002,25.006231 505.478271,26.282385 506.011353,33.882008 
	C506.219055,36.843410 506.380035,39.860989 507.109528,42.713028 
	C507.545654,44.418209 509.042084,45.852203 510.061920,47.408100 
	C510.570923,47.191238 511.079895,46.974377 511.588867,46.757515 
	C512.058350,41.282944 512.403198,35.793907 513.036438,30.338348 
	C513.550049,25.913681 513.626038,21.177336 515.388977,17.249195 
	C516.588257,14.576878 520.181702,11.652084 523.022522,11.282179 
	C533.177490,9.959913 543.460815,9.517989 553.709656,9.054580 
	C562.503357,8.656966 570.246521,12.279066 577.669617,16.443243 
	C583.451172,19.686581 583.116882,25.825911 583.999207,31.324953 
	C585.091614,38.133011 586.683167,44.897823 587.215149,51.746868 
	C587.615112,56.896881 585.288330,62.582352 586.729065,67.239395 
	C588.256287,72.175774 591.128418,76.781693 589.844604,82.049721 
	C588.756348,86.515038 587.096313,91.008713 584.753845,94.931168 
	C583.550293,96.946602 580.303345,97.741776 576.951172,99.684509 
	C578.946411,107.121613 581.314453,115.461769 583.399414,123.872101 
	C585.106323,130.757156 586.993408,137.663467 587.838379,144.676300 
	C588.571106,150.758118 584.669922,153.027740 579.218201,155.276459 
	C570.694092,158.792480 562.881775,155.168610 554.788147,154.787827 
	C553.189636,154.712601 551.690979,152.514648 550.191284,151.331161 
	C546.888611,157.346054 520.563782,158.637054 515.069092,153.282135 
	C511.899597,153.925217 509.277435,154.832733 506.627960,154.920990 
	C499.969269,155.142776 493.294678,154.862946 486.633423,155.042557 
	C482.470978,155.154785 479.908234,154.091293 479.866058,149.310043 
	C479.841858,146.563248 479.077423,143.823013 478.425659,139.676559 
	C478.130493,142.362015 478.092590,143.714783 477.821014,145.018906 
	C475.590332,155.730103 474.288086,156.519302 464.464630,155.982758 
	C457.588928,155.607224 450.719086,154.772415 443.847076,154.777527 
	C436.762848,154.782806 429.683746,155.808502 422.594208,155.937729 
	C411.016937,156.148773 399.432983,156.007629 387.851898,155.989609 
	C381.575409,155.979843 380.014954,154.372437 380.008942,147.938843 
	C379.996521,134.643982 380.005219,121.349091 380.005219,108.444016 
	C378.709076,117.008743 377.892792,125.997734 375.883881,134.711792 
	C373.675659,144.290604 367.440002,151.217239 358.384521,155.116470 
	C355.941803,156.168289 352.866669,155.886032 350.074921,155.961823 
	C345.578613,156.083893 341.039093,155.626617 336.585724,156.080353 
	C329.779938,156.773758 325.040894,154.143585 321.643555,148.431000 
	C321.101227,147.519119 320.035339,146.918640 318.280945,145.333344 
	C318.155090,148.215500 318.129578,150.085236 317.980469,151.945053 
	C317.678345,155.712646 316.616272,158.901077 311.984314,158.982452 
	C307.573822,159.059921 307.425598,156.130020 306.835907,152.683975 
	C306.136444,148.596542 303.834778,144.807098 302.875305,140.735840 
	C300.188354,129.334366 300.342560,129.426559 288.427856,131.606293 
	C286.598297,131.940994 284.451355,130.540833 282.010468,129.811295 
	C279.651855,132.573380 278.640656,135.342300 282.767639,138.372299 
	C287.816406,142.079071 287.659546,147.729294 286.586273,152.922623 
	C286.176697,154.904648 283.058197,157.512924 280.999908,157.679291 
	C278.187561,157.906601 275.208771,156.074509 271.625061,154.904434 
	C267.569885,154.904434 262.404449,155.375336 257.414673,154.645355 
	C255.701218,154.394684 253.991272,151.340973 253.026932,149.226974 
	C248.701736,139.745316 244.645737,130.140854 239.937103,119.301994 
	C235.917343,128.605225 232.227371,136.608383 228.998199,144.793335 
	C226.538452,151.028015 223.116196,155.829819 216.167999,157.471741 
	C212.185226,158.412888 210.023941,157.202560 208.589157,153.344879 
	C205.402435,144.776825 201.877029,136.334763 199.067947,129.291214 
	C194.395004,136.175812 189.290283,143.704987 184.166855,151.221436 
	C183.891907,151.624786 183.501831,152.159897 183.094482,152.231735 
	C174.986084,153.661545 167.986511,161.196564 158.699921,156.492065 
	C156.898499,155.579498 154.483612,155.854050 152.346359,155.632568 
	C144.006393,154.768265 139.361130,148.981796 135.397415,142.568298 
	C132.737289,138.264053 130.632812,133.616425 127.401115,129.236237 
	C128.123871,132.949326 129.098984,136.634933 129.507370,140.382278 
	C130.054520,145.402786 131.544342,150.687622 127.406563,155.066650 
	C123.422325,159.283188 118.762413,159.264084 113.265511,158.386444 
	C105.807014,157.195633 98.128334,157.439972 90.559914,156.861679 
	C85.575470,156.480835 80.285408,156.639999 75.721786,154.957840 
	C67.181313,151.809799 68.436378,143.335403 68.176376,136.575577 
	C67.619530,122.098267 68.005585,107.584679 68.005493,93.085953 
	C68.005486,91.448418 68.005493,89.810883 68.005493,88.173347 
	C67.668449,88.163261 67.331413,88.153168 66.994370,88.143082 
	C66.994370,92.107521 66.776955,96.086189 67.035118,100.033745 
	C67.810944,111.896858 61.126389,115.403488 49.888210,116.970161 
	C48.592598,117.150780 47.250038,116.994652 45.031914,116.994652 
	C45.031914,120.207886 44.948139,123.118034 45.047993,126.021873 
	C45.321564,133.977905 45.840473,141.929352 45.932171,149.886429 
	C45.991093,154.999451 43.701771,156.966187 38.538086,156.987045 
	C31.372166,157.015976 24.205780,157.031738 17.040089,156.981812 
	C12.008825,156.946762 10.295878,155.045044 9.964793,150.129822 
	C9.509806,143.375168 8.625273,136.649078 8.186599,129.893753 
	C7.651165,121.648392 7.128593,113.385658 7.120277,105.129921 
	C7.116410,101.289680 8.988788,97.429222 8.877311,93.611031 
	C8.598388,84.057701 7.391420,74.530418 7.148139,64.977631 
	C7.055374,61.335121 8.948632,57.684383 9.276261,53.978992 
	C9.781090,48.269520 10.392324,42.430557 9.730965,36.790455 
	C8.811275,28.947308 8.085189,21.339748 11.556093,13.932972 
	C13.908519,8.912983 18.031881,7.559433 25.749201,9.419084 
	C29.070358,10.219386 32.362610,11.139649 36.122112,12.005404 
M131.183578,63.754261 
	C131.465500,67.174179 131.747437,70.594101 132.169479,74.740181 
	C129.736557,78.593788 126.724266,82.275047 128.489197,88.118858 
	C129.392258,85.455467 130.075287,83.441010 130.758316,81.426559 
	C131.049393,81.489044 131.340469,81.551521 131.631546,81.614006 
	C131.631546,87.407234 131.631546,93.200462 131.631546,98.996170 
	C131.116409,98.595680 130.570496,98.171280 130.042542,97.760826 
	C128.191620,115.444061 133.115250,131.077545 143.731354,144.942230 
	C145.240173,146.912781 147.632645,148.698639 149.973587,149.437500 
	C154.812363,150.964783 159.859833,151.944748 164.889404,152.693527 
	C166.720016,152.966064 169.057312,152.425720 170.621979,151.416656 
	C175.662903,148.165771 182.045090,146.647430 185.308853,141.027405 
	C188.005524,136.383896 191.864639,131.714478 192.487411,126.717392 
	C193.684738,117.110085 192.971680,107.262650 193.012314,97.514664 
	C193.022522,95.064590 192.892868,92.613693 192.815887,90.163536 
	C192.624954,84.087410 192.604263,77.999138 192.181412,71.939034 
	C191.778168,66.160233 191.250732,60.358299 190.244919,54.660622 
	C188.643341,45.588169 185.712738,36.711067 176.204987,33.280685 
	C170.012085,31.046297 163.109619,30.238047 156.468369,29.898197 
	C142.181137,29.167089 130.549988,41.073235 131.422729,52.391357 
	C131.689972,55.856949 131.442551,59.362228 131.183578,63.754261 
M384.888611,149.558350 
	C385.250732,149.899445 385.612885,150.240540 386.892883,150.771469 
	C393.903717,150.585632 400.914551,150.399796 408.498108,150.302612 
	C408.685974,150.257584 408.873840,150.212570 409.756866,149.636230 
	C409.756866,136.094223 409.756866,122.552231 409.756866,109.010231 
	C410.282227,108.985229 410.807556,108.960220 411.332916,108.935219 
	C412.231384,120.943985 413.088074,132.956238 414.087494,144.956589 
	C414.197815,146.280991 415.124420,147.537430 415.784027,149.588608 
	C416.223816,149.798828 416.663574,150.009048 418.017822,150.372833 
	C424.975464,150.347366 431.933136,150.321899 439.500702,150.392929 
	C439.702118,150.350296 439.903503,150.307663 440.771027,149.684143 
	C440.848755,147.868668 440.979828,146.053665 440.995789,144.237640 
	C441.133759,128.499466 441.251068,112.761101 441.866272,97.017151 
	C442.194153,97.010719 442.522064,97.008171 443.266327,97.639900 
	C444.814148,102.987030 448.242706,107.834503 446.968781,113.940346 
	C446.583771,115.785751 447.172363,119.363144 448.130096,119.679504 
	C451.280914,120.720268 450.507874,122.563820 450.334686,124.710724 
	C449.790131,131.460236 449.395325,138.221832 448.584686,145.653397 
	C448.461090,147.236359 448.337524,148.819336 448.193756,150.660675 
	C455.435394,150.660675 462.178101,150.762177 468.910217,150.541534 
	C469.826935,150.511505 470.690887,148.871323 471.860413,147.195724 
	C471.423462,138.581741 477.596100,133.192886 482.378021,126.403763 
	C483.321198,134.406815 484.223206,142.060822 485.129883,149.754150 
	C493.516266,149.754150 501.414307,149.754150 509.251068,149.754150 
	C509.251068,139.084473 509.371643,128.730606 509.163727,118.383354 
	C509.113586,115.888504 507.715118,113.448769 507.393158,110.925446 
	C506.746033,105.853363 506.448090,100.737724 505.943634,95.646248 
	C504.752075,83.620018 503.524017,71.597397 502.249268,58.964615 
	C506.268097,60.445648 509.579681,61.912895 513.039673,62.803635 
	C514.207947,63.104401 515.752319,61.944149 517.783752,61.867329 
	C517.845276,69.176361 518.061157,76.488441 517.917236,83.793427 
	C517.810669,89.202675 516.976440,94.601418 516.949768,100.007217 
	C516.927307,104.574303 517.833740,109.140533 517.916809,113.714638 
	C518.106812,124.183243 517.864319,134.663040 518.247375,145.121811 
	C518.318237,147.057526 520.392334,150.460968 521.726135,150.554321 
	C529.278137,151.082855 536.886230,150.809982 545.124023,150.809982 
	C545.124023,136.106232 545.124023,122.521408 545.124023,108.936584 
	C546.367249,109.948608 546.816101,110.992737 547.067688,112.082413 
	C549.686768,123.425743 552.387024,134.752533 554.793457,146.141251 
	C555.417297,149.093536 556.382751,150.422821 559.610779,150.331268 
	C564.033569,150.205872 568.470764,150.714951 572.904907,150.830704 
	C582.031128,151.069000 584.159241,148.889893 582.012878,139.798233 
	C578.231445,123.780441 573.974426,107.871414 569.685059,91.979317 
	C568.519775,87.661812 569.765930,84.338005 572.451050,80.351112 
	C574.842224,84.850189 576.938232,88.793900 579.418335,93.460289 
	C582.444519,88.914078 584.518127,84.284973 584.898132,78.927261 
	C585.029480,77.075592 585.529663,75.599220 582.831787,74.339279 
	C580.263672,73.139900 579.080322,70.166252 580.649353,66.631210 
	C581.849426,63.927559 582.490479,60.674160 582.307800,57.731850 
	C582.058594,53.718124 580.550232,49.799736 580.013428,45.782784 
	C579.152100,39.337852 578.830078,32.818027 577.873352,26.390408 
	C577.589783,24.485523 576.376038,21.966703 574.833679,21.143526 
	C570.321106,18.735012 565.570801,16.289637 560.629883,15.348662 
	C557.716919,14.793908 553.364746,11.881443 551.437744,16.127897 
	C548.335999,15.532659 545.678894,14.507351 543.076111,14.630485 
	C537.645447,14.887402 532.181396,16.559633 526.846252,16.150059 
	C520.882751,15.692248 519.877563,18.906433 519.197815,23.272064 
	C517.854248,31.901747 516.902466,40.525356 518.035583,49.294147 
	C518.311462,51.428982 517.447449,53.711113 517.080505,55.279060 
	C516.696350,54.518780 516.312195,53.758503 515.693787,52.413445 
	C515.120117,52.243359 514.546448,52.073273 513.338501,52.165413 
	C512.720398,53.097279 512.102356,54.029148 511.313354,55.218655 
	C507.677032,52.332767 504.271576,49.630131 500.785950,46.863838 
	C498.277710,51.587551 502.981232,57.531387 496.327881,60.935566 
	C497.043427,54.433872 496.384399,47.726639 498.790558,42.405407 
	C500.874176,37.797504 500.365112,34.246841 499.611053,28.973286 
	C497.011688,29.926992 494.962616,30.734619 492.872894,31.417915 
	C492.041992,31.689608 491.105682,31.858301 490.243500,31.781254 
	C480.269165,30.889906 470.299866,29.942419 459.873566,28.967213 
	C458.571899,40.423481 457.417419,50.584309 456.262939,60.745136 
	C455.827789,60.722420 455.392609,60.699703 454.957458,60.676987 
	C454.366058,56.802834 455.064148,51.571594 452.818817,49.438049 
	C450.594940,47.324951 445.402740,48.335777 441.383362,47.964474 
	C441.383362,42.409649 441.383362,36.176163 441.383362,29.155207 
	C434.709106,29.155207 427.943512,29.346554 421.195892,29.080551 
	C417.393188,28.930643 415.883911,29.882761 416.042908,34.020779 
	C416.366364,42.440208 416.139679,50.880772 416.139679,59.312626 
	C414.712006,57.947636 414.361176,56.453846 414.143799,54.940884 
	C413.103851,47.703632 412.253448,40.433258 410.943909,33.246021 
	C410.704865,31.933834 408.678894,30.017963 407.423279,29.975014 
	C400.614990,29.742115 393.789551,30.009861 386.349426,30.119787 
	C386.153259,30.446527 385.957062,30.773268 385.579895,32.007469 
	C385.523804,38.017597 385.467743,44.027725 385.236969,50.887993 
	C385.290955,52.626801 385.344940,54.365608 385.197052,57.006363 
	C385.121002,87.667336 385.044952,118.328300 384.888611,149.558350 
M349.027069,15.146292 
	C341.611542,15.270662 334.084381,14.038872 327.324615,18.840742 
	C318.897247,24.827246 314.589905,33.307274 314.150787,43.027821 
	C313.257660,62.797798 313.341858,82.616142 313.264954,102.415489 
	C313.247986,106.782188 314.236511,111.152786 314.792603,115.775482 
	C311.930206,115.184814 309.675598,114.719551 307.781433,114.328682 
	C305.701660,106.440201 303.908936,98.831161 301.576874,91.391167 
	C301.026245,89.634399 298.660797,88.446465 297.130188,86.996864 
	C295.967102,88.785835 293.938019,90.506058 293.789612,92.375580 
	C293.117889,100.836311 296.497772,108.313622 300.419556,115.556030 
	C300.968872,116.570557 301.883942,117.449692 302.198212,118.518394 
	C303.861969,124.175354 305.354462,129.882645 307.011139,135.541809 
	C307.182739,136.128021 308.158447,136.432220 308.565216,137.006088 
	C309.355072,138.120377 310.302429,139.254929 310.638031,140.525436 
	C311.047577,142.075912 310.894867,143.774902 310.976501,145.250229 
	C312.593628,143.810776 313.951843,142.601761 314.285431,142.304825 
	C313.859436,140.112335 312.934509,138.378815 313.418396,137.248260 
	C314.641602,134.390244 316.498199,131.803329 317.786652,129.636551 
	C319.604340,133.511047 321.551910,138.464844 324.169983,143.034546 
	C327.266327,148.439102 331.346344,152.482071 338.602478,151.269547 
	C342.171356,150.673157 345.928925,150.928116 349.578918,151.154633 
	C356.421967,151.579346 361.409607,148.399887 365.506775,143.393539 
	C370.559479,137.219650 372.469391,129.879227 373.156189,122.113213 
	C373.726990,115.658813 374.440033,109.214432 374.874054,102.751106 
	C375.513397,93.230080 375.960754,83.696167 376.544495,73.184303 
	C369.519684,73.184303 363.635559,73.184303 357.751465,73.184303 
	C357.758514,72.614822 357.765564,72.045341 357.772644,71.475861 
	C362.081482,71.254166 366.390320,71.032471 370.643555,70.813637 
	C370.874878,70.041245 371.137634,69.571846 371.138184,69.102150 
	C371.149139,59.273350 371.368774,49.437077 371.062195,39.617413 
	C370.593048,24.590305 364.707184,18.004236 349.027069,15.146292 
M225.578644,139.041336 
	C230.561356,127.957451 235.544067,116.873566 240.272751,106.354797 
	C246.617447,121.179436 252.716797,135.430832 258.587494,149.147949 
	C266.089539,151.676407 270.771484,149.016373 273.392120,142.470901 
	C274.160339,140.552124 274.522156,138.450272 274.898987,136.400848 
	C275.282318,134.315857 275.299866,132.158295 275.750793,130.092117 
	C276.732910,125.591545 277.808472,121.107605 278.989075,116.654839 
	C282.094482,104.942680 277.906097,93.127144 279.680786,81.314880 
	C280.856567,73.488838 280.424530,65.426559 280.810028,57.474781 
	C281.124329,50.991440 281.772583,44.518829 281.899567,38.034153 
	C281.963684,34.759518 281.725555,30.390501 277.494873,30.212410 
	C269.815582,29.889149 262.091644,30.626173 254.199615,30.927788 
	C253.826111,44.975403 257.549774,58.180794 252.844086,71.441185 
	C249.962723,66.544540 248.280441,61.230881 245.731216,56.372063 
	C244.666672,54.342983 241.929199,52.720600 239.616821,52.018520 
	C238.483154,51.674320 236.016159,53.515205 235.147354,54.963795 
	C233.330109,57.993706 232.172546,61.419266 230.744034,64.682320 
	C229.058029,55.931038 228.479050,47.309540 227.701019,38.706047 
	C227.408127,35.467266 226.737137,32.452682 222.108002,32.912598 
	C218.146072,33.306221 214.120987,33.073471 210.123734,33.100418 
	C201.875458,33.156021 199.439865,35.035179 199.304092,43.503181 
	C199.166153,52.107269 199.890396,60.736969 200.483688,69.338440 
	C201.589142,85.365074 202.923538,101.375900 204.034286,117.402199 
	C204.220734,120.092484 202.955551,123.091698 203.743515,125.494911 
	C206.717850,134.566376 210.262375,143.450897 213.559814,152.314987 
	C220.600357,150.709396 220.600357,150.709396 225.578644,139.041336 
M61.354839,55.404411 
	C62.624619,54.292950 64.945930,53.214870 64.982460,52.064259 
	C65.142090,47.035934 64.525116,41.989017 64.416588,36.943974 
	C64.345818,33.654362 64.684532,30.357103 64.802048,27.061922 
	C64.901596,24.270864 66.079735,20.653219 64.775200,18.861227 
	C62.233612,15.369939 55.686634,15.463682 53.847294,16.872667 
	C47.763187,16.872667 43.209438,16.948877 38.659386,16.851822 
	C33.844406,16.749115 29.032949,16.481537 24.644758,16.303234 
	C23.464695,15.625026 22.195744,14.310686 20.943548,14.326461 
	C19.431261,14.345512 17.084261,15.116870 16.595110,16.223896 
	C15.347046,19.048460 14.318151,22.238489 14.308276,25.285885 
	C14.287411,31.724604 15.399672,38.177189 15.225280,44.601776 
	C15.100393,49.202656 17.712814,54.260132 13.350171,58.540123 
	C12.343685,59.527538 12.697562,62.040218 12.667403,63.855026 
	C12.606586,67.514816 12.600932,71.182541 12.771395,74.837723 
	C13.152150,83.002159 13.906165,91.158157 13.995297,99.323189 
	C14.035995,103.051300 12.590137,106.775246 12.350814,110.534966 
	C12.221418,112.567749 13.534370,114.654938 13.644532,116.746666 
	C14.208603,127.457130 14.643624,138.175369 15.003435,148.894913 
	C15.089638,151.463089 16.116507,152.426147 18.645855,152.348175 
	C24.801695,152.158417 30.963474,151.992950 37.119919,152.065964 
	C39.974579,152.099808 41.062454,150.921417 40.963017,148.250687 
	C40.790001,143.604065 40.526588,138.958145 40.479256,134.310104 
	C40.398960,126.425720 40.457180,118.539909 40.457180,110.372177 
	C41.895924,110.607285 42.900452,110.627678 43.803299,110.941032 
	C53.645309,114.356956 62.007324,108.756905 61.943474,98.549553 
	C61.903145,92.102379 61.103748,85.650040 61.255268,79.214394 
	C61.403820,72.904770 61.113136,72.669792 54.660664,73.030289 
	C50.891327,73.240875 46.789780,72.725380 43.298347,71.359230 
	C39.002956,69.678513 37.506001,64.301636 39.529385,59.872829 
	C41.478706,55.606140 45.054756,56.705009 47.116146,57.437130 
	C49.204582,56.395184 50.281162,55.445866 51.414291,55.372730 
	C54.395596,55.180309 57.401497,55.368954 61.354839,55.404411 
M112.768829,105.843590 
	C111.234383,105.414101 109.699936,104.984619 108.103470,104.537766 
	C108.103470,102.966293 108.158310,101.640137 108.094582,100.319695 
	C107.678223,91.691795 107.231903,83.065338 106.804207,74.437973 
	C106.565628,69.625427 106.008759,64.799332 106.190422,60.001881 
	C106.491417,52.052937 107.436508,44.129112 107.772583,36.180428 
	C107.910599,32.916016 106.922714,29.408558 102.821648,29.305714 
	C93.083611,29.061512 83.335297,29.227125 72.736389,29.227125 
	C72.736389,40.295254 72.678902,50.867409 72.750999,61.438675 
	C72.840240,74.525337 73.036598,87.611267 73.187386,100.697502 
	C73.340553,113.991219 73.924355,127.298706 73.498428,140.573822 
	C73.210403,149.551010 80.622124,153.486298 88.944984,151.995300 
	C94.172440,151.058823 99.885567,147.654266 105.049927,152.597809 
	C105.244041,152.783630 105.686340,152.722275 106.015129,152.753448 
	C109.575851,153.091034 113.154808,153.296600 116.693489,153.790909 
	C121.009995,154.393860 125.388329,150.878952 124.969803,146.559814 
	C124.743240,144.221756 123.057297,141.985260 122.997551,139.677902 
	C122.758606,130.448746 122.898903,121.209778 122.898903,112.049240 
	C123.421043,112.450432 124.089104,112.963745 124.992950,113.658218 
	C124.300064,108.063034 121.558372,106.281151 112.768829,105.843590 
M68.005287,77.178177 
	C67.633385,71.764648 67.261475,66.351120 66.847855,60.330387 
	C59.075115,61.268032 51.661720,62.162327 44.156796,63.067665 
	C43.753918,67.125076 46.659081,67.738747 49.520157,67.938354 
	C52.996155,68.180862 56.505264,67.902245 59.993114,68.033447 
	C64.069969,68.186798 66.421928,70.660881 66.887779,74.475967 
	C67.192863,76.974434 66.566261,79.586670 66.356949,82.147949 
	C66.674789,82.210892 66.992630,82.273842 67.310463,82.336792 
	C67.542061,80.909439 67.773659,79.482086 68.005287,77.178177 
M285.602203,114.742966 
	C284.094055,116.740524 282.585907,118.738091 281.536041,120.128654 
	C285.555573,127.676010 291.258667,124.805748 296.478851,124.589195 
	C296.078186,117.729248 291.959229,113.673325 285.602203,114.742966 
M512.545471,68.589981 
	C511.367065,68.147392 510.188660,67.704811 508.550598,67.089600 
	C509.296021,76.085007 510.002808,84.614365 510.709625,93.143723 
	C511.437347,93.125290 512.165100,93.106857 512.892822,93.088417 
	C512.892822,85.167404 512.892822,77.246384 512.545471,68.589981 
M276.394989,145.805847 
	C276.539917,146.620926 276.511292,147.522263 276.864868,148.233627 
	C277.671417,149.856293 278.665222,151.385849 279.582977,152.953232 
	C280.367188,151.163269 281.264038,149.410736 281.877625,147.564072 
	C282.108124,146.870453 281.909729,145.810532 281.501862,145.179337 
	C280.837372,144.150986 279.840240,143.337540 278.983490,142.433411 
	C278.165894,143.314377 277.348297,144.195343 276.394989,145.805847 
z"/>
<path fill="#5A6D73" opacity="1.000000" stroke="none" 
	d="
M438.890778,150.296448 
	C431.933136,150.321899 424.975464,150.347366 417.396606,149.995453 
	C416.407715,149.353836 416.040100,149.089615 415.672455,148.825394 
	C415.124420,147.537430 414.197815,146.280991 414.087494,144.956589 
	C413.088074,132.956238 412.231384,120.943985 411.332916,108.935219 
	C410.807556,108.960220 410.282227,108.985229 409.756866,109.010231 
	C409.756866,122.552231 409.756866,136.094223 409.304596,149.703323 
	C408.543335,149.918274 408.234375,150.066116 407.925385,150.213959 
	C400.914551,150.399796 393.903717,150.585632 386.401093,150.425720 
	C385.595825,149.716415 385.282349,149.352844 384.968933,148.989288 
	C385.044952,118.328300 385.121002,87.667336 385.493958,56.748100 
	C386.025208,56.703930 386.248047,56.934143 386.504272,57.117737 
	C386.552155,57.152061 386.845978,56.977047 386.837830,56.936523 
	C386.375092,54.634422 385.892456,52.336330 385.411682,50.037849 
	C385.467743,44.027725 385.523804,38.017597 385.919769,31.447109 
	C386.496429,30.626219 386.733246,30.365686 386.970032,30.105156 
	C393.789551,30.009861 400.614990,29.742115 407.423279,29.975014 
	C408.678894,30.017963 410.704865,31.933834 410.943909,33.246021 
	C412.253448,40.433258 413.103851,47.703632 414.143799,54.940884 
	C414.361176,56.453846 414.712006,57.947636 416.139679,59.312626 
	C416.139679,50.880772 416.366364,42.440208 416.042908,34.020779 
	C415.883911,29.882761 417.393188,28.930643 421.195892,29.080551 
	C427.943512,29.346554 434.709106,29.155207 441.383362,29.155207 
	C441.383362,36.176163 441.383362,42.409649 441.383362,47.964474 
	C445.402740,48.335777 450.594940,47.324951 452.818817,49.438049 
	C455.064148,51.571594 454.366058,56.802834 454.957458,60.676987 
	C455.392609,60.699703 455.827789,60.722420 456.262939,60.745136 
	C457.417419,50.584309 458.571899,40.423481 459.873566,28.967213 
	C470.299866,29.942419 480.269165,30.889906 490.243500,31.781254 
	C491.105682,31.858301 492.041992,31.689608 492.872894,31.417915 
	C494.962616,30.734619 497.011688,29.926992 499.611053,28.973286 
	C500.365112,34.246841 500.874176,37.797504 498.790558,42.405407 
	C496.384399,47.726639 497.043427,54.433872 496.327881,60.935566 
	C502.981232,57.531387 498.277710,51.587551 500.785950,46.863838 
	C504.271576,49.630131 507.677032,52.332767 511.313354,55.218655 
	C512.102356,54.029148 512.720398,53.097279 513.809448,52.292061 
	C514.829590,52.611885 515.378784,52.805061 515.928040,52.998230 
	C516.312195,53.758503 516.696350,54.518780 516.819824,55.825912 
	C516.747681,58.065716 516.936279,59.758663 517.124817,61.451607 
	C515.752319,61.944149 514.207947,63.104401 513.039673,62.803635 
	C509.579681,61.912895 506.268097,60.445648 502.249268,58.964615 
	C503.524017,71.597397 504.752075,83.620018 505.943634,95.646248 
	C506.448090,100.737724 506.746033,105.853363 507.393158,110.925446 
	C507.715118,113.448769 509.113586,115.888504 509.163727,118.383354 
	C509.371643,128.730606 509.251068,139.084473 509.251068,149.754150 
	C501.414307,149.754150 493.516266,149.754150 485.129883,149.754150 
	C484.223206,142.060822 483.321198,134.406815 482.378021,126.403763 
	C477.596100,133.192886 471.423462,138.581741 471.341003,147.673798 
	C465.711334,148.438004 460.580658,148.532669 455.497986,149.076416 
	C452.008698,149.449692 449.983459,148.177277 448.942505,144.978745 
	C449.395325,138.221832 449.790131,131.460236 450.334686,124.710724 
	C450.507874,122.563820 451.280914,120.720268 448.130096,119.679504 
	C447.172363,119.363144 446.583771,115.785751 446.968781,113.940346 
	C448.242706,107.834503 444.814148,102.987030 443.061218,96.943909 
	C442.651093,95.228722 442.446136,94.209534 442.241180,93.190346 
	C441.897583,93.248238 441.554016,93.306129 441.210419,93.364021 
	C441.265106,94.583611 441.319794,95.803200 441.374512,97.022789 
	C441.251068,112.761101 441.133759,128.499466 440.995789,144.237640 
	C440.979828,146.053665 440.848755,147.868668 440.326782,149.758148 
	C439.551971,149.986923 439.221375,150.141693 438.890778,150.296448 
M452.655579,96.419571 
	C453.323944,89.105904 453.992310,81.792244 454.745056,73.555489 
	C449.507874,76.483795 445.505646,78.009636 441.444397,73.622078 
	C441.444397,79.742897 441.444397,85.169678 441.444397,90.184883 
	C443.655457,89.041901 446.746948,86.681572 447.422638,87.240700 
	C449.278839,88.776619 450.165039,91.515526 451.338318,93.827484 
	C451.696991,94.534233 451.742065,95.400108 452.655579,96.419571 
M481.086700,63.712170 
	C480.822540,61.913677 480.558380,60.115185 480.294220,58.316692 
	C479.793640,58.348370 479.293091,58.380047 478.792511,58.411724 
	C478.515656,66.354759 478.155762,74.296768 478.057190,82.241997 
	C478.043427,83.351929 479.313385,84.477783 479.989075,85.596283 
	C480.565765,84.427109 481.639099,83.256340 481.635345,82.089020 
	C481.616699,76.263977 481.315186,70.439842 481.086700,63.712170 
M477.158661,115.077347 
	C477.428864,116.070892 477.699066,117.064430 478.025360,118.264168 
	C482.091125,114.885956 481.995483,113.410637 477.157623,105.772591 
	C477.157623,109.125320 477.157623,111.665794 477.158661,115.077347 
z"/>
<path fill="#596D73" opacity="1.000000" stroke="none" 
	d="
M349.470947,15.187027 
	C364.707184,18.004236 370.593048,24.590305 371.062195,39.617413 
	C371.368774,49.437077 371.149139,59.273350 371.138184,69.102150 
	C371.137634,69.571846 370.874878,70.041245 370.643555,70.813637 
	C366.390320,71.032471 362.081482,71.254166 357.772644,71.475861 
	C357.765564,72.045341 357.758514,72.614822 357.751465,73.184303 
	C363.635559,73.184303 369.519684,73.184303 376.544495,73.184303 
	C375.960754,83.696167 375.513397,93.230080 374.874054,102.751106 
	C374.440033,109.214432 373.726990,115.658813 373.156189,122.113213 
	C372.469391,129.879227 370.559479,137.219650 365.506775,143.393539 
	C361.409607,148.399887 356.421967,151.579346 349.578918,151.154633 
	C345.928925,150.928116 342.171356,150.673157 338.602478,151.269547 
	C331.346344,152.482071 327.266327,148.439102 324.169983,143.034546 
	C321.551910,138.464844 319.604340,133.511047 317.786652,129.636551 
	C316.498199,131.803329 314.641602,134.390244 313.418396,137.248260 
	C312.934509,138.378815 313.859436,140.112335 314.285431,142.304825 
	C313.951843,142.601761 312.593628,143.810776 310.976501,145.250229 
	C310.894867,143.774902 311.047577,142.075912 310.638031,140.525436 
	C310.302429,139.254929 309.355072,138.120377 308.565216,137.006088 
	C308.158447,136.432220 307.182739,136.128021 307.011139,135.541809 
	C305.354462,129.882645 303.861969,124.175354 302.198212,118.518394 
	C301.883942,117.449692 300.968872,116.570557 300.419556,115.556030 
	C296.497772,108.313622 293.117889,100.836311 293.789612,92.375580 
	C293.938019,90.506058 295.967102,88.785835 297.130188,86.996864 
	C298.660797,88.446465 301.026245,89.634399 301.576874,91.391167 
	C303.908936,98.831161 305.701660,106.440201 307.781433,114.328682 
	C309.675598,114.719551 311.930206,115.184814 314.792603,115.775482 
	C314.236511,111.152786 313.247986,106.782188 313.264954,102.415489 
	C313.341858,82.616142 313.257660,62.797798 314.150787,43.027821 
	C314.589905,33.307274 318.897247,24.827246 327.324615,18.840742 
	C334.084381,14.038872 341.611542,15.270662 349.470947,15.187027 
M340.048431,52.886257 
	C340.142487,54.315666 340.236572,55.745071 340.330627,57.174480 
	C340.793884,57.116081 341.257172,57.057682 341.720428,56.999283 
	C341.560944,55.362885 341.401428,53.726490 341.536072,51.519173 
	C341.263458,50.682213 340.990845,49.845253 340.718262,49.008293 
	C340.533813,49.078831 340.349335,49.149368 340.164886,49.219906 
	C340.164886,50.155388 340.164886,51.090870 340.048431,52.886257 
M342.896759,73.820572 
	C346.729553,73.656136 350.562347,73.491699 354.395142,73.327271 
	C354.367920,72.498169 354.340729,71.669075 354.313507,70.839981 
	C350.220551,70.839981 346.127563,70.839981 341.711090,70.018272 
	C340.995056,72.292419 340.279022,74.566566 339.562988,76.840721 
	C340.180939,76.992615 340.798920,77.144508 341.416870,77.296410 
	C341.608002,76.185173 341.799133,75.073936 342.896759,73.820572 
M341.883148,82.194221 
	C341.608337,81.288963 341.333527,80.383705 341.058716,79.478447 
	C340.770355,79.536766 340.481995,79.595078 340.193634,79.653389 
	C340.142944,80.770676 340.092255,81.887955 339.894257,83.931419 
	C339.914520,89.956459 339.934814,95.981499 339.800720,102.932617 
	C339.800720,109.030045 339.800720,115.127480 339.800720,121.482277 
	C341.852722,120.613007 343.366669,120.079239 344.780945,119.351753 
	C348.538940,117.418663 350.114471,112.794746 348.952148,107.071075 
	C348.203827,103.386108 345.776459,101.812340 341.920837,101.051849 
	C341.851349,95.044769 341.781830,89.037689 341.883148,82.194221 
M343.421997,67.466385 
	C343.421997,67.466385 343.461456,67.445686 343.421997,67.466385 
z"/>
<path fill="#5A6D73" opacity="1.000000" stroke="none" 
	d="
M517.454285,61.659470 
	C516.936279,59.758663 516.747681,58.065716 516.833374,56.149139 
	C517.447449,53.711113 518.311462,51.428982 518.035583,49.294147 
	C516.902466,40.525356 517.854248,31.901747 519.197815,23.272064 
	C519.877563,18.906433 520.882751,15.692248 526.846252,16.150059 
	C532.181396,16.559633 537.645447,14.887402 543.076111,14.630485 
	C545.678894,14.507351 548.335999,15.532659 551.437744,16.127897 
	C553.364746,11.881443 557.716919,14.793908 560.629883,15.348662 
	C565.570801,16.289637 570.321106,18.735012 574.833679,21.143526 
	C576.376038,21.966703 577.589783,24.485523 577.873352,26.390408 
	C578.830078,32.818027 579.152100,39.337852 580.013428,45.782784 
	C580.550232,49.799736 582.058594,53.718124 582.307800,57.731850 
	C582.490479,60.674160 581.849426,63.927559 580.649353,66.631210 
	C579.080322,70.166252 580.263672,73.139900 582.831787,74.339279 
	C585.529663,75.599220 585.029480,77.075592 584.898132,78.927261 
	C584.518127,84.284973 582.444519,88.914078 579.418335,93.460289 
	C576.938232,88.793900 574.842224,84.850189 572.451050,80.351112 
	C569.765930,84.338005 568.519775,87.661812 569.685059,91.979317 
	C573.974426,107.871414 578.231445,123.780441 582.012878,139.798233 
	C584.159241,148.889893 582.031128,151.069000 572.904907,150.830704 
	C568.470764,150.714951 564.033569,150.205872 559.610779,150.331268 
	C556.382751,150.422821 555.417297,149.093536 554.793457,146.141251 
	C552.387024,134.752533 549.686768,123.425743 547.067688,112.082413 
	C546.816101,110.992737 546.367249,109.948608 545.124023,108.936584 
	C545.124023,122.521408 545.124023,136.106232 545.124023,150.809982 
	C536.886230,150.809982 529.278137,151.082855 521.726135,150.554321 
	C520.392334,150.460968 518.318237,147.057526 518.247375,145.121811 
	C517.864319,134.663040 518.106812,124.183243 517.916809,113.714638 
	C517.833740,109.140533 516.927307,104.574303 516.949768,100.007217 
	C516.976440,94.601418 517.810669,89.202675 517.917236,83.793427 
	C518.061157,76.488441 517.845276,69.176361 517.454285,61.659470 
M549.754089,67.182007 
	C549.516724,55.578892 549.380981,43.971916 548.940613,32.376511 
	C548.868469,30.476572 547.455505,28.627554 546.662231,26.755001 
	C543.480591,35.204319 544.900330,74.633667 547.879639,78.703926 
	C548.522522,74.761879 549.068542,71.413918 549.754089,67.182007 
M533.007690,24.111084 
	C533.568970,29.321159 534.130188,34.531235 534.691467,39.741310 
	C535.224792,39.725536 535.758179,39.709759 536.291504,39.693981 
	C536.531677,35.249332 537.008118,30.795591 536.837708,26.366743 
	C536.797485,25.323078 534.577637,24.363291 533.007690,24.111084 
z"/>
<path fill="#596D73" opacity="1.000000" stroke="none" 
	d="
M225.406372,139.381302 
	C220.600357,150.709396 220.600357,150.709396 213.559814,152.314987 
	C210.262375,143.450897 206.717850,134.566376 203.743515,125.494911 
	C202.955551,123.091698 204.220734,120.092484 204.034286,117.402199 
	C202.923538,101.375900 201.589142,85.365074 200.483688,69.338440 
	C199.890396,60.736969 199.166153,52.107269 199.304092,43.503181 
	C199.439865,35.035179 201.875458,33.156021 210.123734,33.100418 
	C214.120987,33.073471 218.146072,33.306221 222.108002,32.912598 
	C226.737137,32.452682 227.408127,35.467266 227.701019,38.706047 
	C228.479050,47.309540 229.058029,55.931038 230.744034,64.682320 
	C232.172546,61.419266 233.330109,57.993706 235.147354,54.963795 
	C236.016159,53.515205 238.483154,51.674320 239.616821,52.018520 
	C241.929199,52.720600 244.666672,54.342983 245.731216,56.372063 
	C248.280441,61.230881 249.962723,66.544540 252.844086,71.441185 
	C257.549774,58.180794 253.826111,44.975403 254.199615,30.927788 
	C262.091644,30.626173 269.815582,29.889149 277.494873,30.212410 
	C281.725555,30.390501 281.963684,34.759518 281.899567,38.034153 
	C281.772583,44.518829 281.124329,50.991440 280.810028,57.474781 
	C280.424530,65.426559 280.856567,73.488838 279.680786,81.314880 
	C277.906097,93.127144 282.094482,104.942680 278.989075,116.654839 
	C277.808472,121.107605 276.732910,125.591545 275.750793,130.092117 
	C275.299866,132.158295 275.282318,134.315857 274.898987,136.400848 
	C274.522156,138.450272 274.160339,140.552124 273.392120,142.470901 
	C270.771484,149.016373 266.089539,151.676407 258.587494,149.147949 
	C252.716797,135.430832 246.617447,121.179436 240.272751,106.354797 
	C235.544067,116.873566 230.561356,127.957451 225.406372,139.381302 
z"/>
<path fill="#596D73" opacity="1.000000" stroke="none" 
	d="
M131.430817,62.849331 
	C131.442551,59.362228 131.689972,55.856949 131.422729,52.391357 
	C130.549988,41.073235 142.181137,29.167089 156.468369,29.898197 
	C163.109619,30.238047 170.012085,31.046297 176.204987,33.280685 
	C185.712738,36.711067 188.643341,45.588169 190.244919,54.660622 
	C191.250732,60.358299 191.778168,66.160233 192.181412,71.939034 
	C192.604263,77.999138 192.624954,84.087410 192.815887,90.163536 
	C192.892868,92.613693 193.022522,95.064590 193.012314,97.514664 
	C192.971680,107.262650 193.684738,117.110085 192.487411,126.717392 
	C191.864639,131.714478 188.005524,136.383896 185.308853,141.027405 
	C182.045090,146.647430 175.662903,148.165771 170.621979,151.416656 
	C169.057312,152.425720 166.720016,152.966064 164.889404,152.693527 
	C159.859833,151.944748 154.812363,150.964783 149.973587,149.437500 
	C147.632645,148.698639 145.240173,146.912781 143.731354,144.942230 
	C133.115250,131.077545 128.191620,115.444061 130.042542,97.760826 
	C130.570496,98.171280 131.116409,98.595680 131.631546,98.996170 
	C131.631546,93.200462 131.631546,87.407234 131.631546,81.614006 
	C131.340469,81.551521 131.049393,81.489044 130.758316,81.426559 
	C130.075287,83.441010 129.392258,85.455467 128.489197,88.118858 
	C126.724266,82.275047 129.736557,78.593788 132.078079,74.367172 
	C131.986679,73.994164 131.973358,74.040337 132.231384,74.032593 
	C132.595917,73.703621 132.702438,73.382385 133.165009,72.997711 
	C133.874634,69.772812 134.228210,66.611351 134.598526,63.300301 
	C133.351166,63.122719 132.390991,62.986027 131.430817,62.849331 
M162.079742,127.844589 
	C164.423035,105.642838 163.850693,56.567177 160.475052,53.067276 
	C159.904770,56.733273 159.878616,60.416492 159.909088,64.099243 
	C160.081024,84.879044 160.250534,105.658943 160.514175,126.437614 
	C160.523392,127.164185 161.516403,127.878265 162.079742,127.844589 
z"/>
<path fill="#596D73" opacity="1.000000" stroke="none" 
	d="
M60.876221,55.405113 
	C57.401497,55.368954 54.395596,55.180309 51.414291,55.372730 
	C50.281162,55.445866 49.204582,56.395184 47.116146,57.437130 
	C45.054756,56.705009 41.478706,55.606140 39.529385,59.872829 
	C37.506001,64.301636 39.002956,69.678513 43.298347,71.359230 
	C46.789780,72.725380 50.891327,73.240875 54.660664,73.030289 
	C61.113136,72.669792 61.403820,72.904770 61.255268,79.214394 
	C61.103748,85.650040 61.903145,92.102379 61.943474,98.549553 
	C62.007324,108.756905 53.645309,114.356956 43.803299,110.941032 
	C42.900452,110.627678 41.895924,110.607285 40.457180,110.372177 
	C40.457180,118.539909 40.398960,126.425720 40.479256,134.310104 
	C40.526588,138.958145 40.790001,143.604065 40.963017,148.250687 
	C41.062454,150.921417 39.974579,152.099808 37.119919,152.065964 
	C30.963474,151.992950 24.801695,152.158417 18.645855,152.348175 
	C16.116507,152.426147 15.089638,151.463089 15.003435,148.894913 
	C14.643624,138.175369 14.208603,127.457130 13.644532,116.746666 
	C13.534370,114.654938 12.221418,112.567749 12.350814,110.534966 
	C12.590137,106.775246 14.035995,103.051300 13.995297,99.323189 
	C13.906165,91.158157 13.152150,83.002159 12.771395,74.837723 
	C12.600932,71.182541 12.606586,67.514816 12.667403,63.855026 
	C12.697562,62.040218 12.343685,59.527538 13.350171,58.540123 
	C17.712814,54.260132 15.100393,49.202656 15.225280,44.601776 
	C15.399672,38.177189 14.287411,31.724604 14.308276,25.285885 
	C14.318151,22.238489 15.347046,19.048460 16.595110,16.223896 
	C17.084261,15.116870 19.431261,14.345512 20.943548,14.326461 
	C22.195744,14.310686 23.464695,15.625026 24.644758,16.303234 
	C29.032949,16.481537 33.844406,16.749115 38.659386,16.851822 
	C43.209438,16.948877 47.763187,16.872667 53.847294,16.872667 
	C55.686634,15.463682 62.233612,15.369939 64.775200,18.861227 
	C66.079735,20.653219 64.901596,24.270864 64.802048,27.061922 
	C64.684532,30.357103 64.345818,33.654362 64.416588,36.943974 
	C64.525116,41.989017 65.142090,47.035934 64.982460,52.064259 
	C64.945930,53.214870 62.624619,54.292950 60.876221,55.405113 
z"/>
<path fill="#596D73" opacity="1.000000" stroke="none" 
	d="
M113.200424,105.866028 
	C121.558372,106.281151 124.300064,108.063034 124.992950,113.658218 
	C124.089104,112.963745 123.421043,112.450432 122.898903,112.049240 
	C122.898903,121.209778 122.758606,130.448746 122.997551,139.677902 
	C123.057297,141.985260 124.743240,144.221756 124.969803,146.559814 
	C125.388329,150.878952 121.009995,154.393860 116.693489,153.790909 
	C113.154808,153.296600 109.575851,153.091034 106.015129,152.753448 
	C105.686340,152.722275 105.244041,152.783630 105.049927,152.597809 
	C99.885567,147.654266 94.172440,151.058823 88.944984,151.995300 
	C80.622124,153.486298 73.210403,149.551010 73.498428,140.573822 
	C73.924355,127.298706 73.340553,113.991219 73.187386,100.697502 
	C73.036598,87.611267 72.840240,74.525337 72.750999,61.438675 
	C72.678902,50.867409 72.736389,40.295254 72.736389,29.227125 
	C83.335297,29.227125 93.083611,29.061512 102.821648,29.305714 
	C106.922714,29.408558 107.910599,32.916016 107.772583,36.180428 
	C107.436508,44.129112 106.491417,52.052937 106.190422,60.001881 
	C106.008759,64.799332 106.565628,69.625427 106.804207,74.437973 
	C107.231903,83.065338 107.678223,91.691795 108.094582,100.319695 
	C108.158310,101.640137 108.103470,102.966293 108.103470,104.537766 
	C109.699936,104.984619 111.234383,105.414101 113.200424,105.866028 
z"/>
<path fill="#FFFFFF" opacity="1.000000" stroke="none" 
	d="
M68.005264,77.616455 
	C67.773659,79.482086 67.542061,80.909439 67.310463,82.336792 
	C66.992630,82.273842 66.674789,82.210892 66.356949,82.147949 
	C66.566261,79.586670 67.192863,76.974434 66.887779,74.475967 
	C66.421928,70.660881 64.069969,68.186798 59.993114,68.033447 
	C56.505264,67.902245 52.996155,68.180862 49.520157,67.938354 
	C46.659081,67.738747 43.753918,67.125076 44.156796,63.067665 
	C51.661720,62.162327 59.075115,61.268032 66.847855,60.330387 
	C67.261475,66.351120 67.633385,71.764648 68.005264,77.616455 
z"/>
<path fill="#5A6D73" opacity="1.000000" stroke="none" 
	d="
M285.882538,114.460846 
	C291.959229,113.673325 296.078186,117.729248 296.478851,124.589195 
	C291.258667,124.805748 285.555573,127.676010 281.536041,120.128654 
	C282.585907,118.738091 284.094055,116.740524 285.882538,114.460846 
z"/>
<path fill="#FFFFFF" opacity="1.000000" stroke="none" 
	d="
M512.719116,68.957672 
	C512.892822,77.246384 512.892822,85.167404 512.892822,93.088417 
	C512.165100,93.106857 511.437347,93.125290 510.709625,93.143723 
	C510.002808,84.614365 509.296021,76.085007 508.550598,67.089600 
	C510.188660,67.704811 511.367065,68.147392 512.719116,68.957672 
z"/>
<path fill="#627579" opacity="1.000000" stroke="none" 
	d="
M448.763611,145.316071 
	C449.983459,148.177277 452.008698,149.449692 455.497986,149.076416 
	C460.580658,148.532669 465.711334,148.438004 471.200439,148.064270 
	C470.690887,148.871323 469.826935,150.511505 468.910217,150.541534 
	C462.178101,150.762177 455.435394,150.660675 448.193756,150.660675 
	C448.337524,148.819336 448.461090,147.236359 448.763611,145.316071 
z"/>
<path fill="#627579" opacity="1.000000" stroke="none" 
	d="
M276.462830,145.441071 
	C277.348297,144.195343 278.165894,143.314377 278.983490,142.433411 
	C279.840240,143.337540 280.837372,144.150986 281.501862,145.179337 
	C281.909729,145.810532 282.108124,146.870453 281.877625,147.564072 
	C281.264038,149.410736 280.367188,151.163269 279.582977,152.953232 
	C278.665222,151.385849 277.671417,149.856293 276.864868,148.233627 
	C276.511292,147.522263 276.539917,146.620926 276.462830,145.441071 
z"/>
<path fill="#828E8E" opacity="1.000000" stroke="none" 
	d="
M131.307190,63.301796 
	C132.390991,62.986027 133.351166,63.122719 134.598526,63.300301 
	C134.228210,66.611351 133.874634,69.772812 132.993835,73.130005 
	C132.286606,73.553162 132.122192,73.791367 131.973358,74.040337 
	C131.973358,74.040337 131.986679,73.994164 132.008026,74.004089 
	C131.747437,70.594101 131.465500,67.174179 131.307190,63.301796 
z"/>
<path fill="#4F646C" opacity="1.000000" stroke="none" 
	d="
M385.324341,50.462921 
	C385.892456,52.336330 386.375092,54.634422 386.837830,56.936523 
	C386.845978,56.977047 386.552155,57.152061 386.504272,57.117737 
	C386.248047,56.934143 386.025208,56.703930 385.594879,56.297127 
	C385.344940,54.365608 385.290955,52.626801 385.324341,50.462921 
z"/>
<path fill="#DBD8C9" opacity="1.000000" stroke="none" 
	d="
M441.620361,97.019974 
	C441.319794,95.803200 441.265106,94.583611 441.210419,93.364021 
	C441.554016,93.306129 441.897583,93.248238 442.241180,93.190346 
	C442.446136,94.209534 442.651093,95.228722 442.853058,96.628700 
	C442.522064,97.008171 442.194153,97.010719 441.620361,97.019974 
z"/>
<path fill="#5A6D73" opacity="1.000000" stroke="none" 
	d="
M515.810913,52.705841 
	C515.378784,52.805061 514.829590,52.611885 514.126587,52.160950 
	C514.546448,52.073273 515.120117,52.243359 515.810913,52.705841 
z"/>
<path fill="#4F646C" opacity="1.000000" stroke="none" 
	d="
M384.928772,149.273819 
	C385.282349,149.352844 385.595825,149.716415 385.942169,150.330811 
	C385.612885,150.240540 385.250732,149.899445 384.928772,149.273819 
z"/>
<path fill="#4F646C" opacity="1.000000" stroke="none" 
	d="
M408.211731,150.258301 
	C408.234375,150.066116 408.543335,149.918274 408.957031,149.968994 
	C408.873840,150.212570 408.685974,150.257584 408.211731,150.258301 
z"/>
<path fill="#4F646C" opacity="1.000000" stroke="none" 
	d="
M415.728241,149.207001 
	C416.040100,149.089615 416.407715,149.353836 416.939362,149.918671 
	C416.663574,150.009048 416.223816,149.798828 415.728241,149.207001 
z"/>
<path fill="#4F646C" opacity="1.000000" stroke="none" 
	d="
M439.195740,150.344696 
	C439.221375,150.141693 439.551971,149.986923 439.993713,150.048584 
	C439.903503,150.307663 439.702118,150.350296 439.195740,150.344696 
z"/>
<path fill="#4F646C" opacity="1.000000" stroke="none" 
	d="
M386.659729,30.112471 
	C386.733246,30.365686 386.496429,30.626219 386.010254,30.993378 
	C385.957062,30.773268 386.153259,30.446527 386.659729,30.112471 
z"/>
<path fill="#DBD8C9" opacity="1.000000" stroke="none" 
	d="
M452.293182,96.306335 
	C451.742065,95.400108 451.696991,94.534233 451.338318,93.827484 
	C450.165039,91.515526 449.278839,88.776619 447.422638,87.240700 
	C446.746948,86.681572 443.655457,89.041901 441.444397,90.184883 
	C441.444397,85.169678 441.444397,79.742897 441.444397,73.622078 
	C445.505646,78.009636 449.507874,76.483795 454.745056,73.555489 
	C453.992310,81.792244 453.323944,89.105904 452.293182,96.306335 
z"/>
<path fill="#DBD8C9" opacity="1.000000" stroke="none" 
	d="
M481.099945,64.163780 
	C481.315186,70.439842 481.616699,76.263977 481.635345,82.089020 
	C481.639099,83.256340 480.565765,84.427109 479.989075,85.596275 
	C479.313385,84.477783 478.043427,83.351929 478.057190,82.241997 
	C478.155762,74.296768 478.515656,66.354759 478.792511,58.411724 
	C479.293091,58.380047 479.793640,58.348370 480.294220,58.316692 
	C480.558380,60.115185 480.822540,61.913677 481.099945,64.163780 
z"/>
<path fill="#D1CFC2" opacity="1.000000" stroke="none" 
	d="
M477.158142,114.641808 
	C477.157623,111.665794 477.157623,109.125320 477.157623,105.772591 
	C481.995483,113.410637 482.091125,114.885956 478.025360,118.264168 
	C477.699066,117.064430 477.428864,116.070892 477.158142,114.641808 
z"/>
<path fill="#E1DDCD" opacity="1.000000" stroke="none" 
	d="
M342.110718,101.967972 
	C345.776459,101.812340 348.203827,103.386108 348.952148,107.071075 
	C350.114471,112.794746 348.538940,117.418663 344.780945,119.351753 
	C343.366669,120.079239 341.852722,120.613007 339.800720,121.482277 
	C339.800720,115.127480 339.800720,109.030045 340.237213,102.465820 
	C341.152710,101.988670 341.631714,101.978325 342.110718,101.967972 
z"/>
<path fill="#EFE8D6" opacity="1.000000" stroke="none" 
	d="
M342.015778,101.509911 
	C341.631714,101.978325 341.152710,101.988670 340.314392,102.002777 
	C339.934814,95.981499 339.914520,89.956459 340.246429,83.468338 
	C340.969849,83.013710 341.341064,83.022163 341.712311,83.030609 
	C341.781830,89.037689 341.851349,95.044769 342.015778,101.509911 
z"/>
<path fill="#EFE8D6" opacity="1.000000" stroke="none" 
	d="
M342.034607,70.839981 
	C346.127563,70.839981 350.220551,70.839981 354.313507,70.839981 
	C354.340729,71.669075 354.367920,72.498169 354.395142,73.327271 
	C350.562347,73.491699 346.729553,73.656136 342.453857,73.501785 
	C342.018860,72.401985 342.026733,71.620987 342.034607,70.839981 
z"/>
<path fill="#E1DDCD" opacity="1.000000" stroke="none" 
	d="
M341.872864,70.429123 
	C342.026733,71.620987 342.018860,72.401985 342.000641,73.572845 
	C341.799133,75.073936 341.608002,76.185173 341.416870,77.296410 
	C340.798920,77.144508 340.180939,76.992615 339.562988,76.840721 
	C340.279022,74.566566 340.995056,72.292419 341.872864,70.429123 
z"/>
<path fill="#E1DDCD" opacity="1.000000" stroke="none" 
	d="
M341.241943,52.090092 
	C341.401428,53.726490 341.560944,55.362885 341.720428,56.999283 
	C341.257172,57.057682 340.793884,57.116081 340.330627,57.174480 
	C340.236572,55.745071 340.142487,54.315666 340.287537,52.456436 
	C340.765503,52.042942 341.003937,52.064102 341.241943,52.090092 
z"/>
<path fill="#E1DDCD" opacity="1.000000" stroke="none" 
	d="
M341.797729,82.612419 
	C341.341064,83.022163 340.969849,83.013710 340.320068,83.005249 
	C340.092255,81.887955 340.142944,80.770676 340.193634,79.653389 
	C340.481995,79.595078 340.770355,79.536766 341.058716,79.478447 
	C341.333527,80.383705 341.608337,81.288963 341.797729,82.612419 
z"/>
<path fill="#D1CFC2" opacity="1.000000" stroke="none" 
	d="
M341.389008,51.804634 
	C341.003937,52.064102 340.765503,52.042942 340.345764,52.026482 
	C340.164886,51.090870 340.164886,50.155388 340.164886,49.219906 
	C340.349335,49.149368 340.533813,49.078831 340.718262,49.008293 
	C340.990845,49.845253 341.263458,50.682213 341.389008,51.804634 
z"/>
<path fill="#D1CFC2" opacity="1.000000" stroke="none" 
	d="
M343.441711,67.456039 
	C343.461456,67.445686 343.421997,67.466385 343.441711,67.456039 
z"/>
<path fill="#E1DDCD" opacity="1.000000" stroke="none" 
	d="
M549.684326,67.623978 
	C549.068542,71.413918 548.522522,74.761879 547.879639,78.703926 
	C544.900330,74.633667 543.480591,35.204319 546.662231,26.755001 
	C547.455505,28.627554 548.868469,30.476572 548.940613,32.376511 
	C549.380981,43.971916 549.516724,55.578892 549.684326,67.623978 
z"/>
<path fill="#DBD8C9" opacity="1.000000" stroke="none" 
	d="
M533.184082,23.738001 
	C534.577637,24.363291 536.797485,25.323078 536.837708,26.366743 
	C537.008118,30.795591 536.531677,35.249332 536.291504,39.693981 
	C535.758179,39.709759 535.224792,39.725536 534.691467,39.741310 
	C534.130188,34.531235 533.568970,29.321159 533.184082,23.738001 
z"/>
<path fill="#DBD8C9" opacity="1.000000" stroke="none" 
	d="
M162.065308,128.221375 
	C161.516403,127.878265 160.523392,127.164185 160.514175,126.437614 
	C160.250534,105.658943 160.081024,84.879044 159.909088,64.099243 
	C159.878616,60.416492 159.904770,56.733273 160.475052,53.067276 
	C163.850693,56.567177 164.423035,105.642838 162.065308,128.221375 
z"/>
<path fill="#E1DDCD" opacity="1.000000" stroke="none" 
	d="
M132.231384,74.032593 
	C132.122192,73.791367 132.286606,73.553162 132.637787,73.193436 
	C132.702438,73.382385 132.595917,73.703621 132.231384,74.032593 
z"/>
</svg>